<svg width="282" height="277" viewBox="0 0 282 277" fill="none" xmlns="http://www.w3.org/2000/svg">
<g clip-path="url(#clip0_2035_993)">
<path d="M54.9778 235.052C83.8751 235.052 112.749 235.052 141.647 235.052C149.788 235.052 157.929 235.052 166.07 235.052C166.508 235.052 166.508 234.36 166.07 234.36C137.173 234.36 108.298 234.36 79.401 234.36C71.2599 234.36 63.1188 234.36 54.9778 234.36C54.5165 234.36 54.5165 235.052 54.9778 235.052Z" fill="#DBDBDB"/>
<path d="M152.717 178.55C152.717 181.917 152.717 185.285 152.717 188.652C152.717 189.09 153.409 189.09 153.409 188.652C153.409 185.285 153.409 181.917 153.409 178.55C153.409 178.112 152.717 178.112 152.717 178.55Z" fill="#DBDBDB"/>
<path d="M136.804 190.196C147.989 190.196 159.174 190.196 170.36 190.196C170.798 190.196 170.798 189.504 170.36 189.504C159.174 189.504 147.989 189.504 136.804 189.504C136.365 189.504 136.342 190.196 136.804 190.196Z" fill="#DBDBDB"/>
<path d="M144.322 190.381C144.322 193.287 144.322 196.193 144.322 199.122C144.322 199.56 145.014 199.56 145.014 199.122C145.014 196.216 145.014 193.31 145.014 190.381C145.014 189.92 144.322 189.92 144.322 190.381Z" fill="#DBDBDB"/>
<path d="M161.619 190.197C161.619 192.757 161.619 195.34 161.619 197.9C161.619 198.338 162.311 198.338 162.311 197.9C162.311 195.34 162.311 192.757 162.311 190.197C162.311 189.759 161.619 189.759 161.619 190.197Z" fill="#DBDBDB"/>
<path d="M150.664 199.79C159.22 199.79 167.776 199.79 176.333 199.79C176.771 199.79 176.771 199.098 176.333 199.098C167.776 199.098 159.22 199.098 150.664 199.098C150.226 199.098 150.226 199.79 150.664 199.79Z" fill="#DBDBDB"/>
<path d="M131.314 241.741C150.203 241.741 169.091 241.741 187.979 241.741C188.417 241.741 188.417 241.049 187.979 241.049C169.091 241.049 150.203 241.049 131.314 241.049C130.876 241.049 130.876 241.741 131.314 241.741Z" fill="#DBDBDB"/>
<path d="M209.427 235.767C227.97 235.767 246.535 235.767 265.077 235.767C270.289 235.767 275.501 235.767 280.713 235.767C281.152 235.767 281.152 235.075 280.713 235.075C262.171 235.075 243.606 235.075 225.064 235.075C219.852 235.075 214.639 235.075 209.427 235.075C208.989 235.075 208.989 235.767 209.427 235.767Z" fill="#DBDBDB"/>
<path d="M-20.4829 247.576C-1.47938 247.576 17.5472 247.576 36.5507 247.576C36.9889 247.576 36.9889 246.884 36.5507 246.884C17.5472 246.884 -1.47938 246.884 -20.4829 246.884C-20.9211 246.884 -20.9211 247.576 -20.4829 247.576Z" fill="#DBDBDB"/>
<path d="M17.8469 254.495C33.368 254.495 48.889 254.495 64.4101 254.495C64.8483 254.495 64.8483 253.803 64.4101 253.803C48.889 253.803 33.368 253.803 17.8469 253.803C17.3857 253.803 17.3857 254.495 17.8469 254.495Z" fill="#DBDBDB"/>
<path d="M268.813 145.017C268.813 147.785 268.813 150.575 268.813 153.343C268.813 153.781 269.505 153.781 269.505 153.343C269.505 150.575 269.505 147.785 269.505 145.017C269.505 144.579 268.813 144.579 268.813 145.017Z" fill="#DBDBDB"/>
<path d="M260.441 154.358C266.714 154.358 273.01 154.358 279.283 154.358C279.722 154.358 279.722 153.666 279.283 153.666C273.01 153.666 266.714 153.666 260.441 153.666C260.003 153.666 260.003 154.358 260.441 154.358Z" fill="#DBDBDB"/>
<path d="M263.094 154.565C263.094 155.88 263.094 157.171 263.094 158.486C263.094 158.924 263.786 158.924 263.786 158.486C263.786 157.171 263.786 155.88 263.786 154.565C263.786 154.127 263.094 154.127 263.094 154.565Z" fill="#DBDBDB"/>
<path d="M273.172 154.773C273.172 156.318 273.172 157.886 273.172 159.431C273.172 159.87 273.864 159.87 273.864 159.431C273.864 157.886 273.864 156.318 273.864 154.773C273.864 154.311 273.172 154.311 273.172 154.773Z" fill="#DBDBDB"/>
<path d="M268.283 160.331C272.642 160.331 277 160.331 281.359 160.331C281.797 160.331 281.797 159.639 281.359 159.639C277 159.639 272.642 159.639 268.283 159.639C267.845 159.639 267.845 160.331 268.283 160.331Z" fill="#DBDBDB"/>
<path d="M173.15 156.526C115.332 160.7 57.5144 164.852 -0.280229 169.026C-1.84848 127.098 -3.41673 85.1706 -4.96191 43.243C53.1095 42.4589 111.181 41.6748 169.252 40.8906C170.544 79.4281 171.835 117.966 173.15 156.526Z" fill="white" stroke="#272727" stroke-width="0.807187" stroke-miterlimit="10"/>
<path d="M44.1612 63.6543C55.3695 63.6543 66.601 63.6543 77.8094 63.6543C78.2475 63.6543 78.2475 62.9624 77.8094 62.9624C66.601 62.9624 55.3695 62.9624 44.1612 62.9624C43.723 62.9624 43.723 63.6543 44.1612 63.6543Z" fill="#272727"/>
<path d="M56.7532 66.4902C68.3075 66.4902 79.8618 66.4902 91.4161 66.4902C91.8543 66.4902 91.8543 65.7983 91.4161 65.7983C79.8618 65.7983 68.3075 65.7983 56.7532 65.7983C56.2919 65.7983 56.2919 66.4902 56.7532 66.4902Z" fill="#272727"/>
<path d="M2.0489 134.156C2.46403 143.796 2.87915 153.459 3.29428 163.099C3.31734 163.537 4.00921 163.537 3.98615 163.099C3.57103 153.459 3.1559 143.796 2.74078 134.156C2.71772 133.718 2.02584 133.718 2.0489 134.156Z" fill="#272727"/>
<path d="M52.8555 128.528C53.8472 128.528 54.8389 128.528 55.8536 128.528C56.2918 128.528 56.2918 127.836 55.8536 127.836C54.8619 127.836 53.8702 127.836 52.8555 127.836C52.4173 127.836 52.4173 128.528 52.8555 128.528Z" fill="#272727"/>
<path d="M58.46 128.528C61.0199 128.528 63.5568 128.528 66.1167 128.528C66.5549 128.528 66.5549 127.836 66.1167 127.836C63.5568 127.836 61.0199 127.836 58.46 127.836C58.0218 127.836 58.0218 128.528 58.46 128.528Z" fill="#272727"/>
<path d="M71.9053 128.159C74.9496 128.159 77.9938 128.159 81.0611 128.159C81.4993 128.159 81.4993 127.467 81.0611 127.467C78.0169 127.467 74.9726 127.467 71.9053 127.467C71.4671 127.467 71.4671 128.159 71.9053 128.159Z" fill="#272727"/>
<path d="M56.9841 133.371C60.7202 133.371 64.4564 133.371 68.1925 133.371C68.6307 133.371 68.6307 132.679 68.1925 132.679C64.4564 132.679 60.7202 132.679 56.9841 132.679C56.5229 132.679 56.5229 133.371 56.9841 133.371Z" fill="#272727"/>
<path d="M62.3804 130.765C66.7392 130.765 71.098 130.765 75.4568 130.765C75.895 130.765 75.895 130.073 75.4568 130.073C71.098 130.073 66.7392 130.073 62.3804 130.073C61.9422 130.073 61.9422 130.765 62.3804 130.765Z" fill="#272727"/>
<path d="M85.5352 155.419C92.8691 155.419 100.226 155.419 107.56 155.419C107.998 155.419 107.998 154.728 107.56 154.728C100.226 154.728 92.8691 154.728 85.5352 154.728C85.097 154.728 85.097 155.419 85.5352 155.419Z" fill="#272727"/>
<path d="M103.64 157.288C107.491 157.288 111.366 157.288 115.217 157.288C115.655 157.288 115.655 156.596 115.217 156.596C111.366 156.596 107.491 156.596 103.64 156.596C103.201 156.596 103.201 157.288 103.64 157.288Z" fill="#272727"/>
<path d="M113.718 154.473C117.523 154.473 121.305 154.473 125.111 154.473C125.549 154.473 125.549 153.781 125.111 153.781C121.305 153.781 117.523 153.781 113.718 153.781C113.28 153.781 113.28 154.473 113.718 154.473Z" fill="#272727"/>
<path d="M133.136 91.9512C140.17 91.9512 147.204 91.9512 154.238 91.9512C154.677 91.9512 154.677 91.2593 154.238 91.2593C147.204 91.2593 140.17 91.2593 133.136 91.2593C132.698 91.2593 132.698 91.9512 133.136 91.9512Z" fill="#272727"/>
<path d="M126.61 93.0581C128.847 93.0581 131.084 93.0581 133.321 93.0581C133.759 93.0581 133.759 92.3662 133.321 92.3662C131.084 92.3662 128.847 92.3662 126.61 92.3662C126.148 92.3662 126.148 93.0581 126.61 93.0581Z" fill="#272727"/>
<path d="M127.901 94.9267C135.42 94.9267 142.961 94.9267 150.48 94.9267C150.918 94.9267 150.918 94.2349 150.48 94.2349C142.961 94.2349 135.42 94.2349 127.901 94.2349C127.463 94.2349 127.463 94.9267 127.901 94.9267Z" fill="#272727"/>
<path d="M155.738 93.2417C157.167 93.2417 158.597 93.2417 160.027 93.2417C160.465 93.2417 160.465 92.5498 160.027 92.5498C158.597 92.5498 157.167 92.5498 155.738 92.5498C155.276 92.5498 155.276 93.2417 155.738 93.2417Z" fill="#272727"/>
<path d="M150.134 121.425C152.255 121.425 154.354 121.425 156.476 121.425C156.914 121.425 156.914 120.733 156.476 120.733C154.354 120.733 152.255 120.733 150.134 120.733C149.672 120.733 149.672 121.425 150.134 121.425Z" fill="#272727"/>
<path d="M146.028 123.293C148.334 123.293 150.641 123.293 152.924 123.293C153.362 123.293 153.362 122.602 152.924 122.602C150.617 122.602 148.311 122.602 146.028 122.602C145.567 122.602 145.567 123.293 146.028 123.293Z" fill="#272727"/>
<path d="M149.373 125.162C153.916 125.162 158.459 125.162 163.003 125.162C163.441 125.162 163.441 124.47 163.003 124.47C158.459 124.47 153.916 124.47 149.373 124.47C148.934 124.47 148.934 125.162 149.373 125.162Z" fill="#272727"/>
<path d="M157.975 122.924C159.336 122.924 160.719 122.924 162.08 122.924C162.518 122.924 162.518 122.232 162.08 122.232C160.719 122.232 159.336 122.232 157.975 122.232C157.514 122.232 157.514 122.924 157.975 122.924Z" fill="#272727"/>
<path d="M62.98 94.1655C66.2088 94.1655 69.4145 94.1655 72.6432 94.1655C73.0814 94.1655 73.0814 93.4736 72.6432 93.4736C69.4145 93.4736 66.2088 93.4736 62.98 93.4736C62.5418 93.4736 62.5418 94.1655 62.98 94.1655Z" fill="#272727"/>
<path d="M70.0141 96.1479C74.765 96.1479 79.5389 96.1479 84.2898 96.1479C84.728 96.1479 84.728 95.4561 84.2898 95.4561C79.5389 95.4561 74.765 95.4561 70.0141 95.4561C69.5759 95.4561 69.5529 96.1479 70.0141 96.1479Z" fill="#272727"/>
<path d="M82.5371 93.4951C85.2354 93.4951 87.9568 93.4951 90.6551 93.4951C91.0933 93.4951 91.0933 92.8032 90.6551 92.8032C87.9568 92.8032 85.2354 92.8032 82.5371 92.8032C82.0989 92.8032 82.0989 93.4951 82.5371 93.4951Z" fill="#272727"/>
<path d="M-0.00341797 56.6895C0.503957 74.1939 1.01133 91.7214 1.51871 109.226C1.65708 114.207 1.79546 119.166 1.95689 124.147C1.97996 124.585 2.67183 124.585 2.64877 124.147C2.14139 106.643 1.63402 89.1154 1.12664 71.6109C0.988268 66.6294 0.849895 61.671 0.688457 56.6895C0.688457 56.2513 -0.00341797 56.2513 -0.00341797 56.6895Z" fill="#272727"/>
<path d="M167.638 113.907C167.984 125.484 168.33 137.038 168.676 148.616C168.699 149.054 169.39 149.054 169.367 148.616C169.021 137.038 168.676 125.484 168.33 113.907C168.33 113.469 167.638 113.469 167.638 113.907Z" fill="#272727"/>
<path d="M119.875 108.601C120.013 110.008 120.152 111.438 120.267 112.844C121.605 112.498 122.919 112.129 124.257 111.784C124.072 110.377 123.911 108.947 123.726 107.54C122.435 107.886 121.166 108.255 119.875 108.601Z" fill="#EC615B"/>
<path d="M119.068 119.371C120.452 119.187 121.812 119.025 123.196 118.841C123.381 120.524 123.542 122.208 123.726 123.892C122.481 123.938 121.236 123.984 120.013 124.03C119.691 122.462 119.391 120.916 119.068 119.371Z" fill="#EC615B"/>
<path d="M124.119 129.588C124.557 131.041 124.995 132.517 125.456 133.97C126.702 133.393 127.947 132.817 129.169 132.24C128.777 130.949 128.362 129.68 127.97 128.389C126.702 128.804 125.41 129.196 124.119 129.588Z" fill="#EC615B"/>
<path d="M32.9526 143.333C33.2524 147.807 33.5523 152.282 33.8521 156.733C41.6933 156.225 49.5346 155.741 57.3758 155.234C57.5142 151.221 57.6756 147.185 57.814 143.172C49.5346 143.241 41.2321 143.287 32.9526 143.333Z" fill="#FEA300"/>
<path d="M130.438 52.3054C131.342 52.3054 132.075 51.6962 132.075 50.9447C132.075 50.1932 131.342 49.584 130.438 49.584C129.533 49.584 128.8 50.1932 128.8 50.9447C128.8 51.6962 129.533 52.3054 130.438 52.3054Z" fill="#FEA300"/>
<path d="M19.1615 62.4991C19.913 62.4991 20.5222 62.0964 20.5222 61.5996C20.5222 61.1029 19.913 60.7002 19.1615 60.7002C18.41 60.7002 17.8008 61.1029 17.8008 61.5996C17.8008 62.0964 18.41 62.4991 19.1615 62.4991Z" fill="#EC615B"/>
<path d="M40.8167 88.5826C41.4026 88.5826 41.8776 88.025 41.8776 87.3372C41.8776 86.6494 41.4026 86.0918 40.8167 86.0918C40.2308 86.0918 39.7559 86.6494 39.7559 87.3372C39.7559 88.025 40.2308 88.5826 40.8167 88.5826Z" fill="#EC615B"/>
<path opacity="0.21" d="M31.0844 57.5175C31.4995 57.4483 32.3067 61.2998 34.2901 68.2877C36.8961 77.4896 39.4791 84.9158 41.3472 89.9895C38.5105 91.7423 32.1683 95.0863 23.5199 95.2016C17.4083 95.2708 12.5883 93.7026 9.72852 92.5033C15.3327 93.126 19.8529 92.9646 23.0125 92.6648C28.0171 92.2035 27.1407 91.6731 30.923 91.4886C32.4912 91.4194 34.5438 91.4194 36.6424 90.151C37.4035 89.6897 37.957 89.1823 38.326 88.8133C36.85 85.7691 34.9589 81.295 33.4368 75.6908C31.0152 66.5811 30.4848 57.6328 31.0844 57.5175Z" fill="#6D6C6C"/>
<path opacity="0.25" d="M52.694 82.5405C53.063 85.4695 53.7318 88.7443 54.8388 92.2498C57.9984 102.213 63.3258 109.316 67.3387 113.698C64.9402 115.474 61.9652 117.319 58.3905 118.864C47.5511 123.546 37.4266 122.854 32.007 122.024C31.7994 120.801 31.5918 119.579 31.3843 118.357C33.6905 118.426 36.1351 118.38 38.6951 118.241C47.8278 117.665 55.6691 115.612 61.919 113.329C59.9356 109.962 58.5058 107.056 57.5141 104.865C55.1156 99.6298 53.3398 95.6862 52.7171 90.3587C52.325 87.1069 52.4865 84.3625 52.694 82.5405Z" fill="#6D6C6C"/>
<path opacity="0.14" d="M126.01 97.8076C126.24 103.066 126.794 107.425 127.278 110.561C128.408 117.757 129.238 122.738 132.19 128.342C134.035 131.825 136.111 134.385 137.61 136.045C135.004 138.282 131.499 140.819 127.001 142.849C115.701 147.992 105.092 146.954 100.134 146.124C99.8799 144.993 99.6262 143.863 99.3726 142.71C99.9952 142.756 100.964 142.803 102.14 142.826C106.061 142.918 114.225 143.056 123.588 139.92C126.217 139.043 129.907 137.567 134.059 135.123C132.421 132.932 130.807 130.326 129.4 127.305C123.842 115.381 124.949 103.804 126.01 97.8076Z" fill="#6D6C6C"/>
<path opacity="0.18" d="M143.676 46.0786C144.137 48.2234 144.806 51.4983 145.474 55.5804C146.72 63.4677 146.628 66.3275 148.081 70.9861C148.842 73.4077 150.202 76.844 152.762 80.7646C150.617 82.5174 147.942 84.3393 144.644 85.8614C133.851 90.866 123.519 89.4592 118.768 88.4675C118.814 87.545 118.86 86.6225 118.906 85.723C119.506 85.8845 120.406 86.092 121.513 86.2766C122.965 86.5072 128.339 87.2913 138.44 84.7544C141.231 84.0625 144.99 82.9555 149.303 81.1797C148.473 79.7037 147.25 77.3975 146.143 74.4455C142.915 65.8893 142.938 58.4632 142.984 54.6348C143.007 52.5361 143.145 49.6072 143.676 46.0786Z" fill="#6D6C6C"/>
<path d="M5.80808 56.2035C3.52489 68.2882 5.83114 80.5114 8.13739 92.4116C8.22964 92.8498 8.89845 92.6653 8.8062 92.2271C6.52302 80.4652 4.23983 68.3574 6.47689 56.388C6.54608 55.9729 5.87727 55.7653 5.80808 56.2035Z" fill="#272727"/>
<path d="M6.45365 56.111C9.75159 58.325 13.7414 58.7171 17.639 58.4403C22.09 58.1174 26.495 57.1719 30.8999 56.4339C31.3381 56.3647 31.1536 55.6959 30.7154 55.7651C26.495 56.4569 22.2745 57.3564 18.008 57.7023C14.1104 58.0252 10.1206 57.7254 6.79959 55.4883C6.43059 55.2577 6.08465 55.8573 6.45365 56.111Z" fill="#272727"/>
<path d="M30.439 56.9185C31.0848 67.9424 32.7453 79.1969 38.3264 88.8831C38.557 89.2752 39.1567 88.9292 38.926 88.5372C33.4141 78.9432 31.7767 67.804 31.1309 56.9185C31.1079 56.4803 30.416 56.4803 30.439 56.9185Z" fill="#272727"/>
<path d="M8.71393 92.595C13.9491 94.1171 19.5764 93.1946 24.9038 92.7564C29.6316 92.3644 34.7054 92.1799 38.7644 89.4124C39.1334 89.1587 38.7874 88.5591 38.4184 88.8128C34.3364 91.6033 29.2165 91.6956 24.4656 92.0876C19.3457 92.5028 13.9491 93.3561 8.89843 91.9031C8.46025 91.8109 8.27574 92.4797 8.71393 92.595Z" fill="#272727"/>
<path d="M17.57 61.7386C17.1088 61.5311 17.6161 61.0929 17.8929 61.0237C18.2388 60.9314 18.9076 60.8853 19.0691 61.2774C19.1844 61.5772 18.9999 61.9692 18.7231 62.0846C18.2849 62.2921 17.8006 62.0384 17.5008 61.7386C17.1779 61.4157 16.6936 61.9001 17.0165 62.2229C17.5931 62.7995 18.5386 63.0993 19.2536 62.5689C19.8301 62.1537 20.0377 61.2312 19.5534 60.6777C18.9999 60.0551 17.8237 60.1242 17.201 60.5855C16.6475 61.0006 16.5322 61.9923 17.2471 62.3152C17.6392 62.5227 17.9851 61.9231 17.57 61.7386Z" fill="#272727"/>
<path d="M26.8178 92.689C25.1573 101.107 26.9331 109.617 28.732 117.873C28.8242 118.311 29.493 118.127 29.4008 117.689C27.625 109.571 25.8722 101.176 27.4866 92.8735C27.5788 92.4353 26.91 92.2508 26.8178 92.689Z" fill="#272727"/>
<path d="M36.3428 83.8549C41.6702 82.8402 47.0668 82.4712 52.4635 82.6787C52.3481 82.5634 52.2328 82.4481 52.1175 82.3328C51.0336 93.4489 55.7845 104.035 61.5501 113.237C61.7807 113.606 62.3803 113.26 62.1497 112.891C56.4533 103.781 51.7255 93.3336 52.8094 82.3328C52.8325 82.1483 52.6249 81.9869 52.4635 81.9869C46.9976 81.7793 41.5318 82.1714 36.1583 83.1861C35.7201 83.2784 35.9046 83.9472 36.3428 83.8549Z" fill="#272727"/>
<path d="M29.1011 118.356C40.3095 119.671 51.6793 117.987 62.0574 113.559C62.4725 113.375 62.1035 112.798 61.7115 112.96C51.4717 117.342 40.1711 118.956 29.1011 117.665C28.6629 117.618 28.6629 118.31 29.1011 118.356Z" fill="#272727"/>
<path d="M40.6788 86.6922C40.6788 86.6691 40.748 86.5538 40.748 86.5077C40.7711 86.4154 40.8402 86.3232 40.9094 86.254C41.0478 86.1387 41.2093 86.0464 41.3938 86.0234C41.7397 85.9773 42.0626 86.1618 42.1548 86.5077C42.224 86.7844 42.1087 87.1534 41.7858 87.1996C41.486 87.2457 41.2093 87.0381 41.1631 86.7383C41.0939 86.3001 40.4251 86.4846 40.4943 86.9228C40.6096 87.73 41.6474 88.1221 42.3163 87.73C43.0543 87.2918 43.0081 86.1617 42.3854 85.6313C41.6936 85.0547 40.5404 85.3546 40.1484 86.1387C39.9639 86.5308 39.9639 87.0612 40.4021 87.2918C40.748 87.4763 41.2554 87.3149 41.3476 86.8767C41.4168 86.4385 40.748 86.254 40.6788 86.6922Z" fill="#272727"/>
<path d="M8.09137 68.7486C14.226 69.6019 20.3145 68.3335 26.1954 66.6499C26.6336 66.5346 26.4491 65.8658 26.0109 65.9811C20.2453 67.6185 14.2721 68.91 8.27587 68.0798C7.83768 68.0106 7.65319 68.6794 8.09137 68.7486Z" fill="#272727"/>
<path d="M9.24417 73.2698C12.4268 73.6158 15.6094 73.2929 18.6767 72.3243C19.0919 72.1859 18.9304 71.5171 18.4922 71.6555C15.4941 72.601 12.3807 72.9008 9.24417 72.578C8.80598 72.5318 8.80598 73.2237 9.24417 73.2698Z" fill="#272727"/>
<path d="M9.24417 78.8505C15.3327 79.5654 21.4673 79.1272 27.3713 77.582C27.8095 77.4667 27.625 76.7979 27.1868 76.9132C21.3289 78.4584 15.2635 78.8735 9.24417 78.1586C8.80598 78.0894 8.80598 78.7813 9.24417 78.8505Z" fill="#272727"/>
<path d="M32.03 114.251C38.1416 114.527 44.2531 113.789 50.111 112.037C50.5261 111.921 50.3647 111.252 49.9265 111.368C44.1148 113.097 38.0955 113.835 32.03 113.559C31.5688 113.536 31.5688 114.228 32.03 114.251Z" fill="#272727"/>
<path d="M33.2061 108.969C35.9275 108.877 38.6488 108.67 41.3702 108.37C41.8084 108.324 41.8084 107.632 41.3702 107.678C38.6488 107.978 35.9505 108.185 33.2061 108.278C32.7679 108.301 32.7679 108.993 33.2061 108.969Z" fill="#272727"/>
<path d="M35.4204 99.4691C37.2193 99.6997 39.0874 99.2385 40.8632 98.9848C42.8235 98.685 44.7607 98.4082 46.7211 98.1084C47.1593 98.0392 46.9747 97.3704 46.5366 97.4396C44.7377 97.7163 42.9157 97.9931 41.1169 98.2468C39.2488 98.5235 37.3116 99.0309 35.4204 98.7772C34.9822 98.708 34.9822 99.3999 35.4204 99.4691Z" fill="#272727"/>
<path d="M116.923 47.7618C114.409 60.1002 114.156 72.7846 116.162 85.2153C116.231 85.6535 116.9 85.469 116.831 85.0308C114.848 72.7385 115.124 60.1463 117.592 47.9463C117.684 47.5081 117.015 47.3236 116.923 47.7618Z" fill="#272727"/>
<path d="M117.708 47.9232C126.079 46.0091 134.728 45.617 143.261 46.7701C143.699 46.8393 143.884 46.1705 143.445 46.1013C134.797 44.9251 126.033 45.3172 117.523 47.2544C117.108 47.3697 117.292 48.0386 117.708 47.9232Z" fill="#272727"/>
<path d="M143.053 46.1485C142.799 58.0257 142.961 70.5717 148.98 81.2035C149.211 81.5955 149.787 81.2496 149.58 80.8575C143.63 70.341 143.491 57.9103 143.745 46.1485C143.768 45.7103 143.076 45.7103 143.053 46.1485Z" fill="#272727"/>
<path d="M116.693 85.5851C119.276 86.3692 122.043 86.4154 124.718 86.4384C127.601 86.4615 130.484 86.277 133.367 85.8849C138.879 85.1469 144.252 83.6479 149.395 81.48C149.81 81.3185 149.441 80.7189 149.049 80.8804C143.906 83.0482 138.487 84.5242 132.952 85.2392C130.369 85.562 127.763 85.7465 125.157 85.7235C122.412 85.7235 119.529 85.7004 116.9 84.8932C116.439 84.801 116.278 85.4698 116.693 85.5851Z" fill="#272727"/>
<path d="M130.807 48.6615C130.023 48.9382 129.677 49.8377 129.954 50.5987C130.277 51.4521 131.268 51.6596 132.006 51.1522C132.721 50.6449 132.952 49.6301 132.26 48.9844C131.66 48.4309 130.623 48.4078 130.069 49.0074C129.769 49.3303 130.254 49.8146 130.553 49.4917C131.245 48.7537 132.606 49.7916 131.66 50.5296C131.291 50.8063 130.761 50.8063 130.6 50.322C130.484 49.953 130.6 49.4456 130.992 49.3072C131.407 49.1689 131.222 48.5001 130.807 48.6615Z" fill="#272727"/>
<path d="M117.269 58.4872C123.565 58.6487 129.838 58.5333 136.111 58.1182C136.55 58.0952 136.55 57.4033 136.111 57.4263C129.838 57.8415 123.542 57.9798 117.269 57.7953C116.808 57.7953 116.808 58.4872 117.269 58.4872Z" fill="#272727"/>
<path d="M117.892 61.9908C120.244 62.083 122.597 62.1753 124.926 62.2675C125.364 62.2906 125.364 61.5987 124.926 61.5757C122.574 61.4834 120.221 61.3912 117.892 61.2989C117.431 61.2758 117.431 61.9677 117.892 61.9908Z" fill="#272727"/>
<path d="M117.246 66.8806C123.173 67.2035 129.169 67.4803 135.004 66.1888C135.442 66.0965 135.258 65.4277 134.82 65.5199C129.031 66.7884 123.104 66.5116 117.246 66.1888C116.808 66.1657 116.808 66.8576 117.246 66.8806Z" fill="#272727"/>
<path d="M31.2692 141.857C30.7387 146.469 30.5542 151.105 30.7157 155.741C30.7387 156.179 31.4306 156.179 31.4076 155.741C31.2461 151.105 31.4306 146.469 31.9611 141.857C32.0072 141.419 31.3153 141.419 31.2692 141.857Z" fill="#272727"/>
<path d="M31.4995 142.133C39.7098 142.133 47.9431 142.017 56.1534 141.764C56.5915 141.741 56.5915 141.049 56.1534 141.072C47.9431 141.326 39.7098 141.441 31.4995 141.441C31.0614 141.441 31.0614 142.133 31.4995 142.133Z" fill="#272727"/>
<path d="M56.0845 141.441C56.1537 145.454 56.2229 149.444 56.2921 153.457C56.2921 153.895 56.984 153.895 56.984 153.457C56.9148 149.444 56.8456 145.454 56.7764 141.441C56.7764 141.003 56.0615 141.003 56.0845 141.441Z" fill="#272727"/>
<path d="M30.6465 155.233C30.6926 156.732 33.2987 156.063 34.152 156.017C36.5966 155.856 39.0412 155.694 41.4628 155.51C46.4212 155.164 51.3797 154.841 56.3381 154.495C56.7763 154.472 56.7763 153.78 56.3381 153.803C52.1177 154.08 47.9203 154.38 43.6999 154.657C41.6934 154.795 39.687 154.933 37.6805 155.072C37.0809 155.118 31.3384 155.671 31.3153 155.233C31.3384 154.795 30.6465 154.795 30.6465 155.233Z" fill="#272727"/>
<path d="M33.3679 145.247C38.9029 144.994 44.4379 145.201 49.9268 145.893C50.365 145.939 50.365 145.247 49.9268 145.201C44.4379 144.509 38.9029 144.302 33.3679 144.555C32.9067 144.578 32.9067 145.27 33.3679 145.247Z" fill="#272727"/>
<path d="M33.5752 148.753C36.6656 148.522 39.779 148.269 42.8694 148.038C43.3076 148.015 43.3076 147.323 42.8694 147.346C39.779 147.577 36.6656 147.831 33.5752 148.061C33.137 148.084 33.137 148.776 33.5752 148.753Z" fill="#272727"/>
<path d="M34.613 152.282C39.0641 151.705 43.9072 150.529 48.3813 151.336C48.8195 151.405 49.004 150.76 48.5658 150.667C43.9995 149.837 39.1563 150.99 34.613 151.59C34.1979 151.659 34.1748 152.351 34.613 152.282Z" fill="#272727"/>
<path d="M94.5985 102.604C90.9316 115.657 91.3928 129.633 95.89 142.433C96.0284 142.848 96.6972 142.664 96.5588 142.249C92.1078 129.564 91.6465 115.727 95.2673 102.789C95.3826 102.35 94.7138 102.166 94.5985 102.604Z" fill="#272727"/>
<path d="M95.0598 102.836C105.323 102.79 115.539 101.452 125.479 98.8462C125.917 98.7309 125.733 98.0621 125.295 98.1774C115.424 100.76 105.276 102.098 95.0598 102.144C94.5986 102.144 94.5986 102.836 95.0598 102.836Z" fill="#272727"/>
<path d="M125.295 98.4312C124.88 104.843 125.157 111.3 126.31 117.642C126.886 120.848 127.578 124.054 128.847 127.052C130.115 130.027 131.868 132.725 133.92 135.193C134.197 135.539 134.704 135.054 134.405 134.708C132.306 132.195 130.53 129.404 129.285 126.36C128.109 123.454 127.463 120.341 126.932 117.273C125.825 111.069 125.572 104.727 125.964 98.4312C126.01 97.993 125.318 97.993 125.295 98.4312Z" fill="#272727"/>
<path d="M95.9824 142.804C109.036 143.726 122.666 142.25 134.105 135.516C134.497 135.285 134.151 134.686 133.759 134.916C122.389 141.604 108.897 143.011 95.9824 142.112C95.5443 142.066 95.5443 142.757 95.9824 142.804Z" fill="#272727"/>
<path d="M109.866 104.911C109.474 104.242 110.258 103.411 110.927 103.942C111.642 104.518 110.881 105.441 110.12 105.141C109.705 104.98 109.52 105.649 109.935 105.81C110.558 106.064 111.319 105.787 111.688 105.233C112.103 104.611 111.919 103.827 111.342 103.388C110.097 102.397 108.528 103.942 109.266 105.256C109.497 105.649 110.097 105.303 109.866 104.911Z" fill="#272727"/>
<path d="M95.2906 112.867C102.186 112.752 109.082 112.267 115.955 111.437C116.393 111.391 116.393 110.699 115.955 110.745C109.105 111.599 102.209 112.06 95.2906 112.175C94.8524 112.198 94.8524 112.89 95.2906 112.867Z" fill="#272727"/>
<path d="M118.422 108.232C118.63 109.293 118.838 110.377 119.045 111.438C119.137 111.876 119.806 111.691 119.714 111.253C119.506 110.192 119.299 109.108 119.091 108.047C119.022 107.609 118.353 107.794 118.422 108.232Z" fill="#272727"/>
<path d="M118.884 108.14C120.152 107.956 121.421 107.771 122.712 107.563C123.15 107.494 122.966 106.825 122.528 106.895C121.259 107.079 119.991 107.264 118.699 107.471C118.261 107.54 118.446 108.209 118.884 108.14Z" fill="#272727"/>
<path d="M122.505 107.356C122.689 108.347 122.85 109.339 123.035 110.308C123.104 110.746 123.773 110.561 123.704 110.123C123.519 109.131 123.358 108.14 123.173 107.171C123.104 106.756 122.435 106.94 122.505 107.356Z" fill="#272727"/>
<path d="M119.622 111.969C120.982 111.692 122.274 111.323 123.565 110.816C123.98 110.654 123.796 109.986 123.381 110.147C122.089 110.631 120.775 111.023 119.437 111.3C118.999 111.392 119.183 112.061 119.622 111.969Z" fill="#272727"/>
<path d="M119.737 108.924C119.991 109.5 120.337 109.962 120.844 110.354C121.028 110.492 121.374 110.492 121.421 110.192C121.605 108.947 122.043 107.84 122.781 106.802C123.035 106.433 122.435 106.087 122.182 106.456C121.421 107.517 120.936 108.716 120.752 110.008C120.936 109.962 121.144 109.915 121.328 109.846C120.89 109.5 120.567 109.085 120.337 108.555C120.152 108.163 119.552 108.509 119.737 108.924Z" fill="#272727"/>
<path d="M119.99 118.818C119.621 120.478 119.783 122.093 120.452 123.638C120.636 124.053 121.213 123.684 121.051 123.292C120.452 121.931 120.336 120.455 120.659 119.002C120.751 118.564 120.083 118.38 119.99 118.818Z" fill="#272727"/>
<path d="M120.452 119.048C121.835 118.818 123.219 118.61 124.603 118.379C124.465 118.241 124.326 118.103 124.188 117.964C123.957 119.44 124.119 120.847 124.695 122.231C124.857 122.646 125.525 122.461 125.364 122.046C124.834 120.801 124.649 119.486 124.857 118.149C124.903 117.872 124.718 117.688 124.441 117.734C123.058 117.941 121.674 118.172 120.29 118.402C119.829 118.449 120.013 119.117 120.452 119.048Z" fill="#272727"/>
<path d="M120.751 123.66C122.274 123.614 123.727 123.314 125.156 122.807C125.572 122.646 125.387 121.977 124.972 122.138C123.611 122.646 122.204 122.922 120.751 122.968C120.313 122.968 120.313 123.66 120.751 123.66Z" fill="#272727"/>
<path d="M120.959 120.456C121.167 121.056 121.513 121.471 122.066 121.794C122.32 121.932 122.55 121.747 122.597 121.494C122.735 120.271 123.058 119.095 123.565 117.965C123.75 117.573 123.15 117.204 122.966 117.619C122.412 118.865 122.066 120.156 121.905 121.494C122.089 121.401 122.251 121.286 122.435 121.194C122.043 120.963 121.812 120.687 121.651 120.248C121.49 119.856 120.821 120.041 120.959 120.456Z" fill="#272727"/>
<path d="M121.42 129.518C121.582 131.063 121.997 132.516 122.689 133.9C122.873 134.292 123.473 133.946 123.288 133.554C122.666 132.286 122.273 130.925 122.135 129.518C122.066 129.08 121.374 129.08 121.42 129.518Z" fill="#272727"/>
<path d="M121.743 129.449C123.519 129.611 125.18 129.288 126.771 128.504C126.609 128.435 126.425 128.365 126.263 128.296C126.563 129.703 127.186 130.925 128.155 132.009C128.454 132.332 128.939 131.848 128.639 131.525C127.762 130.533 127.209 129.426 126.932 128.135C126.886 127.904 126.609 127.835 126.425 127.927C124.949 128.642 123.381 128.919 121.743 128.781C121.305 128.734 121.305 129.426 121.743 129.449Z" fill="#272727"/>
<path d="M123.312 134.154C125.11 133.485 126.886 132.77 128.616 131.986C129.031 131.802 128.662 131.202 128.27 131.386C126.586 132.147 124.857 132.839 123.127 133.485C122.712 133.647 122.896 134.315 123.312 134.154Z" fill="#272727"/>
<path d="M122.942 130.671C123.496 131.156 124.764 132.816 125.41 131.594C125.71 131.04 125.641 130.279 125.825 129.656C126.102 128.78 126.563 127.973 127.163 127.281C127.44 126.935 126.955 126.451 126.679 126.797C126.033 127.558 125.525 128.388 125.226 129.357C125.087 129.795 124.972 130.256 124.903 130.717C124.81 131.294 124.649 131.156 124.211 130.879C123.934 130.694 123.68 130.418 123.427 130.187C123.104 129.887 122.62 130.371 122.942 130.671Z" fill="#272727"/>
<path d="M95.9131 124.145C102.371 124.075 108.805 123.545 115.17 122.53C115.608 122.461 115.424 121.792 114.986 121.861C108.667 122.853 102.301 123.384 95.9131 123.43C95.4749 123.453 95.4749 124.145 95.9131 124.145Z" fill="#272727"/>
<path d="M95.1753 114.783C99.3496 114.898 103.501 114.76 107.652 114.414C108.09 114.368 108.09 113.676 107.652 113.722C103.501 114.068 99.3266 114.183 95.1753 114.091C94.7371 114.068 94.7371 114.76 95.1753 114.783Z" fill="#272727"/>
<path d="M96.167 125.505C100.549 125.713 104.931 125.551 109.267 124.998C109.705 124.952 109.705 124.26 109.267 124.306C104.908 124.836 100.526 125.021 96.167 124.813C95.7288 124.79 95.7288 125.482 96.167 125.505Z" fill="#272727"/>
<path d="M110.742 124.676C111.988 124.699 113.21 124.538 114.409 124.146C114.824 124.007 114.64 123.338 114.225 123.477C113.095 123.846 111.941 124.007 110.742 123.984C110.304 123.984 110.304 124.676 110.742 124.676Z" fill="#272727"/>
<path d="M98.5193 134.177C103.778 133.854 109.013 133.37 114.225 132.655C114.663 132.586 114.663 131.894 114.225 131.963C109.013 132.655 103.778 133.162 98.5193 133.485C98.058 133.508 98.058 134.2 98.5193 134.177Z" fill="#272727"/>
<path d="M99.1192 135.791C100.849 135.791 102.579 135.791 104.308 135.791C104.746 135.791 104.746 135.1 104.308 135.1C102.579 135.1 100.849 135.1 99.1192 135.1C98.681 135.1 98.681 135.791 99.1192 135.791Z" fill="#272727"/>
<path d="M100.618 137.336C103.317 137.174 106.015 136.921 108.713 136.598C110.881 136.321 113.21 136.206 115.079 134.937C115.448 134.684 115.102 134.084 114.733 134.338C112.772 135.675 110.143 135.744 107.86 135.998C105.461 136.275 103.04 136.482 100.641 136.644C100.18 136.667 100.157 137.359 100.618 137.336Z" fill="#272727"/>
<path d="M126.955 118.704C131.153 118.496 135.327 117.942 139.455 117.066C139.317 116.997 139.179 116.905 139.04 116.835C140.977 122.601 143.837 127.975 147.504 132.841C147.758 133.187 148.38 132.841 148.104 132.495C144.483 127.698 141.646 122.37 139.709 116.674C139.64 116.49 139.478 116.397 139.294 116.443C135.235 117.32 131.13 117.85 126.978 118.058C126.494 118.035 126.494 118.727 126.955 118.704Z" fill="#272727"/>
<path d="M127.67 138.167C128.293 139.044 128.8 139.966 129.238 140.958C129.285 141.096 129.492 141.165 129.63 141.119C133.021 139.989 136.365 138.744 139.64 137.337C141.3 136.622 142.938 135.884 144.575 135.1C145.359 134.731 146.143 134.339 146.904 133.947C147.366 133.716 147.896 133.578 148.057 133.07C148.104 132.932 148.034 132.747 147.896 132.678C147.688 132.563 147.573 132.563 147.366 132.678C147.227 132.747 147.158 132.932 147.204 133.07C147.204 133.093 147.227 133.116 147.227 133.14C147.343 133.578 148.011 133.393 147.896 132.955C147.896 132.932 147.873 132.909 147.873 132.886C147.827 133.024 147.758 133.14 147.711 133.278C147.665 133.278 147.596 133.278 147.55 133.278C147.504 133.14 147.435 133.024 147.389 132.886C147.25 133.301 145.797 133.739 145.405 133.947C144.759 134.27 144.114 134.569 143.445 134.892C141.9 135.63 140.331 136.322 138.74 136.991C135.696 138.282 132.582 139.436 129.446 140.473C129.584 140.52 129.7 140.589 129.838 140.635C129.423 139.643 128.893 138.721 128.27 137.844C128.016 137.452 127.416 137.798 127.67 138.167Z" fill="#272727"/>
<path d="M131.683 120.501C131.637 120.201 132.191 119.924 132.398 120.132C132.675 120.409 132.214 120.916 131.891 120.801C131.476 120.639 131.291 121.308 131.706 121.469C132.698 121.838 133.667 120.409 132.906 119.648C132.56 119.302 132.029 119.325 131.614 119.532C131.176 119.763 130.945 120.201 131.038 120.685C131.084 121.124 131.753 120.916 131.683 120.501Z" fill="#272727"/>
<path d="M29.4932 102.052C32.0531 102.098 34.6361 101.983 37.173 101.637C39.8252 101.268 42.4543 100.507 45.1526 100.622C45.5908 100.646 45.5908 99.9537 45.1526 99.9306C42.685 99.8383 40.2865 100.461 37.8649 100.83C35.0974 101.268 32.2838 101.43 29.4701 101.36C29.055 101.36 29.055 102.052 29.4932 102.052Z" fill="#272727"/>
<path d="M29.8623 94.4172C33.783 94.717 37.7036 94.3711 41.5089 93.3794C41.9471 93.2641 41.7626 92.5953 41.3244 92.7106C37.5652 93.6792 33.7368 94.0251 29.8623 93.7253C29.4241 93.7023 29.4241 94.3941 29.8623 94.4172Z" fill="#272727"/>
<path d="M118.607 74.9996C118.215 77.5365 117.892 80.2809 119.483 82.4949C119.737 82.8639 120.337 82.518 120.083 82.149C118.607 80.0964 118.93 77.5364 119.276 75.1841C119.345 74.7459 118.676 74.5614 118.607 74.9996Z" fill="#272727"/>
<path d="M118.814 74.9754C124.303 75.1829 129.792 74.6525 135.142 73.3841C135.004 73.3149 134.866 73.2226 134.727 73.1534C135.212 75.5289 136.134 77.7429 137.426 79.7724C137.656 80.1414 138.256 79.7954 138.025 79.4264C136.757 77.4431 135.88 75.2752 135.396 72.9689C135.35 72.7844 135.142 72.6922 134.981 72.7383C129.7 73.9837 124.28 74.5141 118.837 74.3066C118.376 74.2604 118.376 74.9523 118.814 74.9754Z" fill="#272727"/>
<path d="M120.06 82.4714C126.01 82.2869 131.891 81.4105 137.61 79.8423C138.049 79.727 137.864 79.0582 137.426 79.1735C131.753 80.7417 125.941 81.6181 120.06 81.7795C119.599 81.8026 119.599 82.4945 120.06 82.4714Z" fill="#272727"/>
<path d="M201.378 243.563C201.378 246.169 201.378 248.752 201.378 251.358C182.928 258.669 179.169 261.275 179.446 262.221C179.515 262.451 179.999 263.143 189.686 262.013C199.28 260.883 207.052 259.246 212.448 257.908C211.503 252.581 210.534 247.253 209.589 241.926C206.844 242.479 204.1 243.033 201.378 243.563Z" fill="#272727"/>
<path d="M209.658 133.255C209.128 134.247 208.943 135.054 208.897 135.239C205.599 149.261 201.286 157.54 198.473 173.799C193.099 205.118 197.735 240.703 198.173 244.047C199.649 244.693 202.486 245.662 206.106 245.523C209.289 245.385 211.757 244.44 213.164 243.771C212.633 233.554 213.163 220.939 216.692 207.032C221.005 189.989 226.471 184.339 231.383 164.413C235.027 149.653 239.247 132.471 231.959 127.374C226.378 123.408 213.302 126.313 209.658 133.255Z" fill="#EC615B"/>
<path opacity="0.2" d="M222.411 140.612C218.721 157.448 215.285 175.39 212.379 194.371C209.635 212.221 207.582 229.31 206.06 245.546C208.389 245.062 210.696 244.578 213.025 244.094C212.725 236.921 213.048 230.81 213.509 226.128C214.063 220.316 215.47 206.778 221.12 193.264C221.858 191.534 222.803 189.435 224.349 185.492C226.955 178.965 228.846 173.384 229.699 170.755C233.712 158.209 235.718 143.656 236.341 138.859C231.683 139.413 227.047 140.013 222.411 140.612Z" fill="#6D6C6C"/>
<path opacity="0.19" d="M230.022 169.925C220.982 181.71 216.761 192.388 214.639 199.56C212.702 206.087 211.849 211.852 210.742 219.325C209.174 229.933 208.574 238.882 208.32 245.247C209.842 244.878 211.341 244.486 212.864 244.117C212.61 235.192 213.233 227.558 213.994 221.608C214.916 214.551 215.977 206.364 219.667 196.516C221.005 192.941 221.65 191.926 224.695 184.2C227.047 178.158 228.846 173.2 230.022 169.925Z" fill="#6D6C6C"/>
<path d="M251.193 240.911C252.485 244.117 253.799 247.322 255.091 250.551C244.252 257.447 239.132 261.46 239.708 262.636C240.423 264.089 249.787 261.206 267.798 254.034C265.884 247.807 263.97 241.603 262.056 235.376C258.435 237.221 254.814 239.066 251.193 240.911Z" fill="#272727"/>
<path d="M242.291 133.532C247.942 138.698 247.757 145.94 248.472 157.932C248.472 157.932 250.225 187.429 256.106 211.137C257.582 217.064 260.257 226.266 265.215 237.29C264.385 238.351 262.125 240.934 258.158 242.295C254.099 243.678 250.64 242.94 249.348 242.594C242.291 230.556 237.287 220.293 234.058 213.19C219.09 180.395 217.891 163.121 217.891 154.104C217.891 144.833 218.053 133.716 224.948 130.003C230.137 127.213 237.748 129.381 242.291 133.532Z" fill="#EC615B"/>
<path opacity="0.15" d="M226.286 137.061C228.846 146.908 231.613 156.917 234.565 167.065C242.268 193.402 250.64 218.287 259.426 241.626C260.28 241.188 261.318 240.588 262.378 239.781C263.462 238.951 264.316 238.12 264.961 237.382C263.762 234.592 262.102 230.556 260.349 225.597C257.697 218.01 253.384 204.057 251.147 185.469C249.002 167.618 247.918 158.693 248.011 153.066C248.08 148.43 248.495 138.998 242.499 133.924C241.253 132.886 240.031 132.264 239.178 131.895C234.865 133.624 230.575 135.354 226.286 137.061Z" fill="#6D6C6C"/>
<path opacity="0.22" d="M248.287 159.062C247.226 169.787 246.88 184.154 249.463 200.759C252.069 217.457 256.797 231.087 261.064 241.004C262.378 239.92 263.693 238.836 265.008 237.729C263.439 234.016 261.387 228.85 259.334 222.53C255.391 210.377 253.684 200.898 252.208 192.388C250.709 183.67 249.141 172.393 248.287 159.062Z" fill="#6D6C6C"/>
<path d="M140.309 49.2842C139.386 49.7454 138.118 50.5526 137.126 51.9364C136.596 52.6513 135.95 53.5969 135.858 54.9345C135.835 55.4649 135.765 56.6181 136.503 57.3791C136.711 57.6097 137.264 58.0479 139.986 57.9557C142.407 57.8634 143.63 57.8173 144.252 57.1716C145.452 55.9262 145.013 53.5738 144.252 52.167C143.053 49.9299 140.701 49.3764 140.309 49.2842Z" fill="white" stroke="#272727" stroke-width="0.46125" stroke-miterlimit="10"/>
<path d="M154.238 55.0729C157.49 58.786 162.702 61 172.273 64.9437C184.335 69.9252 190.377 72.4159 197.527 73.2923C205.253 74.2379 209.381 73.2462 210.811 75.76C212.679 79.0118 208.297 85.1003 203.777 90.1971C200.409 89.4591 196.927 88.5366 193.329 87.3374C173.611 80.8107 159.358 69.3256 149.995 59.7777C148.819 60.0314 146.812 60.285 144.529 59.5932C142.569 59.0166 139.801 57.5406 139.963 56.3644C140.17 54.9345 145.175 54.6809 145.475 54.6578C143.952 54.0351 141.762 52.9742 139.386 51.2445C138.694 50.7372 134.727 47.8082 135.212 46.8857C135.627 46.0785 139.225 47.1855 142.615 48.2234C145.705 49.1689 147.85 49.8377 150.202 51.4521C152.463 52.9742 153.777 54.5425 154.238 55.0729Z" fill="white" stroke="#272727" stroke-width="0.46125" stroke-miterlimit="10"/>
<path d="M138.279 49.5379C138.832 50.1606 138.948 50.9909 139.432 51.6366C139.847 52.2132 140.447 52.6283 141.069 52.9743C142.938 54.0121 144.921 54.8654 146.835 55.8109C147.158 55.9724 147.573 55.5342 147.25 55.2574C146.259 54.4041 145.198 53.6431 144.091 52.9512C143.722 52.7206 143.353 53.3202 143.745 53.5508C144.806 54.2196 145.82 54.9346 146.766 55.7418C146.904 55.5573 147.043 55.3728 147.181 55.1883C145.359 54.3119 143.537 53.4586 141.738 52.513C140.885 52.0748 140.124 51.5674 139.686 50.6911C139.386 50.0914 139.224 49.5149 138.763 49.0075C138.463 48.7308 137.979 49.2151 138.279 49.5379Z" fill="white"/>
<path d="M140.078 51.9587C141.139 52.4199 142.154 53.0196 143.076 53.7345C143.422 54.0112 143.906 53.5269 143.56 53.2502C142.592 52.4891 141.554 51.8664 140.424 51.3591C140.009 51.1746 139.663 51.7742 140.078 51.9587Z" fill="white"/>
<path d="M137.357 49.123C138.233 50.5299 139.386 51.683 140.747 52.6055C141.116 52.8592 141.462 52.2595 141.093 52.0059C139.824 51.1525 138.763 50.0686 137.956 48.754C137.726 48.4081 137.126 48.754 137.357 49.123Z" fill="white"/>
<path d="M138.395 51.0134C138.856 51.6361 139.363 52.2126 139.94 52.72C140.355 53.089 142.177 54.4036 141.231 55.0724C141.047 55.1877 141.231 55.4875 141.416 55.3722C142.061 54.934 141.808 54.1499 141.416 53.6194C141.116 53.2274 140.701 52.9276 140.309 52.5816C139.709 52.0512 139.179 51.4746 138.694 50.8519C138.556 50.6444 138.256 50.8289 138.395 51.0134Z" fill="#272727"/>
<path d="M137.91 53.4123C138.602 54.3579 139.917 55.6955 141.208 55.3035C141.416 55.2343 141.323 54.9114 141.116 54.9806C140.009 55.3265 138.787 54.0581 138.21 53.2509C138.072 53.0664 137.772 53.2278 137.91 53.4123Z" fill="#272727"/>
<path d="M136.895 55.0275C137.657 56.0653 138.764 56.665 140.055 56.7341C140.286 56.7572 140.286 56.4113 140.055 56.3882C138.902 56.319 137.887 55.7655 137.195 54.843C137.057 54.6585 136.757 54.843 136.895 55.0275Z" fill="#272727"/>
<path d="M136.157 57.1013C137.241 58.2314 139.04 58.2544 140.124 57.1013C140.285 56.9399 140.032 56.6862 139.87 56.8476C138.925 57.8624 137.356 57.8393 136.411 56.8476C136.249 56.6862 135.996 56.9399 136.157 57.1013Z" fill="#272727"/>
<path d="M136.388 49.0772C138.948 50.7607 140.793 53.5974 143.999 54.1509C144.206 54.197 144.321 53.8511 144.091 53.828C140.931 53.2976 139.086 50.4609 136.572 48.8004C136.365 48.639 136.203 48.9388 136.388 49.0772Z" fill="#272727"/>
<path opacity="0.2" d="M136.111 56.618C135.281 55.488 135.973 53.0664 137.979 50.7832C140.239 52.0978 142.476 53.4354 144.736 54.75C144.321 54.75 140.677 54.7961 140.424 55.9261C140.378 56.1106 140.424 56.3874 140.77 56.7795C141.923 57.333 143.86 58.071 146.351 58.1401C147.642 58.1632 148.772 58.0018 149.649 57.7942C154.354 62.5451 162.633 69.7175 174.81 74.9296C185.511 79.496 195.105 80.8106 201.447 81.1796C201.24 83.901 201.032 86.5993 200.824 89.3206C190.377 86.5531 176.217 81.2949 162.149 70.7323C157.352 67.1345 153.247 63.4215 149.741 59.8468C146.512 60.3772 144.506 59.8237 143.237 59.178C142.153 58.6245 141.462 57.9326 140.032 57.8173C139.086 57.7481 138.279 57.9787 137.241 57.4713C137.126 57.4252 136.457 57.0793 136.111 56.618Z" fill="#6D6C6C"/>
<path opacity="0.14" d="M165.815 72.9004C169.044 74.6301 172.78 76.3828 177.047 77.8819C186.341 81.1798 194.759 82.2176 201.193 82.4483C201.101 84.8006 201.032 87.1761 200.94 89.5285C194.252 87.9602 185.857 85.2158 176.955 80.2343C172.688 77.8588 168.998 75.345 165.815 72.9004Z" fill="#6D6C6C"/>
<path d="M202.278 79.4732C200.963 82.4483 200.894 84.916 200.779 89.344C200.687 92.688 200.917 96.2858 202.716 105.741C204.907 117.18 205.945 119.025 206.291 125.091C206.568 129.842 206.199 133.739 205.853 136.322C208.758 137.914 213.625 140.081 219.99 140.566C231.244 141.419 239.57 136.461 242.43 134.57C242.776 127.328 243.122 120.063 243.491 112.822C242.222 106.641 240.723 101.798 239.639 98.6151C236.226 88.5829 233.043 83.832 235.073 78.8044C236.203 76.0138 238.44 74.3072 239.985 73.3616C238.901 72.5314 227.531 64.1136 215.124 68.4724C213.832 68.9106 205.668 71.7934 202.278 79.4732Z" fill="white" stroke="#272727" stroke-width="0.46125" stroke-miterlimit="10"/>
<path opacity="0.19" d="M215.078 68.4495C218.537 73.9845 220.474 78.8737 221.581 82.287C221.581 82.287 227.001 98.7536 223.034 120.847C222.181 125.552 220.659 132.24 217.661 139.897C218.814 140.151 220.198 140.358 221.766 140.428C221.766 140.428 224.187 140.543 226.909 140.197C230.23 139.759 235.926 137.983 242.637 134.57C242.753 126.844 242.868 119.141 242.983 111.415C241.277 104.888 239.547 99.653 238.255 95.9861C235.142 87.2454 232.951 83.1403 234.75 78.8045C235.926 75.9678 238.325 74.2151 240.193 73.2003C237.748 71.586 233.228 69.0721 227.047 68.1035C221.95 67.3194 217.753 67.8729 215.078 68.4495Z" fill="#6D6C6C"/>
<path opacity="0.11" d="M218.237 67.9189C221.95 72.4853 226.286 79.1504 228.961 87.9372C236.549 113.029 224.072 135.031 221.189 139.851C223.611 139.828 226.448 139.62 229.538 139.021C235.05 137.96 239.455 136.069 242.614 134.385C242.73 127.19 242.845 119.994 242.96 112.822C241 106.157 239.155 99.8374 236.641 91.2582C234.935 85.3773 233.597 80.5572 236.111 76.7058C237.333 74.8377 239.04 73.7999 240.331 73.2003C232.974 71.4244 225.594 69.6717 218.237 67.9189Z" fill="#6D6C6C"/>
<path d="M216.53 115.036C216.461 110.101 216.415 105.188 216.346 100.253C228.177 99.6534 240.008 99.0537 251.862 98.4541C252.277 103.02 252.692 107.587 253.13 112.153C240.93 113.122 228.73 114.067 216.53 115.036Z" fill="white" stroke="#272727" stroke-width="0.46125" stroke-miterlimit="10"/>
<path d="M212.933 113.422C212.933 111.623 212.933 109.824 212.933 108.025C228.131 106.895 243.329 105.742 258.527 104.612C258.642 106.826 258.758 109.063 258.896 111.277C243.583 111.969 228.246 112.707 212.933 113.422Z" fill="white" stroke="#272727" stroke-width="0.46125" stroke-miterlimit="10"/>
<path d="M214.201 105.304C214.385 107.956 214.57 110.585 214.731 113.237C228.799 112.107 242.844 110.954 256.912 109.824C257.028 107.426 257.143 105.027 257.281 102.605C242.913 103.505 228.546 104.404 214.201 105.304Z" fill="white" stroke="#272727" stroke-width="0.46125" stroke-miterlimit="10"/>
<path d="M210.765 111.254C211.18 121.77 211.595 132.287 212.033 142.803C227.716 141.051 243.398 139.321 259.081 137.568C259.565 127.236 260.049 116.904 260.534 106.572C243.929 108.141 227.347 109.686 210.765 111.254Z" fill="white" stroke="#272727" stroke-width="0.46125" stroke-miterlimit="10"/>
<path d="M213.44 115.359C220.566 114.413 227.693 113.744 234.865 113.329C235.188 113.306 235.188 112.799 234.865 112.799C227.693 113.214 220.543 113.883 213.44 114.828C213.117 114.874 213.117 115.405 213.44 115.359Z" fill="#272727"/>
<path d="M221.396 116.766C226.862 116.074 232.328 115.359 237.817 114.667C238.14 114.621 238.14 114.113 237.817 114.137C232.351 114.828 226.885 115.543 221.396 116.235C221.074 116.304 221.074 116.812 221.396 116.766Z" fill="#272727"/>
<path d="M247.664 131.525C247.572 132.978 247.572 134.454 247.711 135.907C247.734 136.23 248.264 136.23 248.241 135.907C248.103 134.454 248.08 132.978 248.195 131.525C248.218 131.202 247.687 131.202 247.664 131.525Z" fill="#272727"/>
<path d="M247.895 131.573C250.755 131.642 253.592 131.48 256.428 131.111C256.336 131.019 256.244 130.927 256.175 130.858C256.129 132.195 256.175 133.51 256.267 134.825C256.29 135.147 256.82 135.147 256.797 134.825C256.682 133.51 256.659 132.172 256.705 130.858C256.705 130.719 256.59 130.581 256.451 130.604C253.615 130.973 250.778 131.111 247.918 131.065C247.549 131.042 247.549 131.55 247.895 131.573Z" fill="#272727"/>
<path d="M248.103 136.324C250.94 136.37 253.73 136.07 256.498 135.447C256.821 135.378 256.682 134.871 256.359 134.94C253.638 135.54 250.894 135.839 248.103 135.793C247.78 135.793 247.78 136.301 248.103 136.324Z" fill="#272727"/>
<path d="M249.187 133.187C250.94 133.302 252.669 133.21 254.422 132.933C254.745 132.887 254.607 132.38 254.284 132.426C252.6 132.703 250.894 132.772 249.187 132.656C248.864 132.633 248.864 133.164 249.187 133.187Z" fill="#272727"/>
<path d="M250.294 134.639C252.116 134.593 253.869 134.247 255.598 133.624C255.898 133.509 255.783 133.001 255.46 133.117C253.799 133.739 252.07 134.062 250.294 134.131C249.971 134.108 249.948 134.639 250.294 134.639Z" fill="#272727"/>
<path opacity="0.2" d="M218.214 141.604C218.629 131.872 219.044 122.139 219.436 112.384C232.905 111.3 246.396 110.239 259.865 109.155C259.565 118.38 259.242 127.605 258.942 136.83C245.358 138.422 231.798 140.013 218.214 141.604Z" fill="#6D6C6C"/>
<path opacity="0.2" d="M254.791 102.859C254.86 105.534 254.722 108.717 254.03 112.245C252.323 120.917 248.218 127.167 245.427 130.695C247.319 133.209 249.21 135.723 251.124 138.237C245.335 138.906 239.546 139.574 233.758 140.243C234.68 129.681 235.603 119.118 236.525 108.578C236.225 107.195 235.903 105.811 235.603 104.427C241.991 103.874 248.403 103.366 254.791 102.859Z" fill="#6D6C6C"/>
<path d="M238.739 72.7389C243.559 72.0932 249.302 83.1632 251.585 91.1197C254.214 100.276 253.061 108.186 252.116 112.36C250.271 120.547 246.442 126.313 244.044 129.427C244.413 130.649 245.266 133.97 243.859 137.614C241.784 142.941 236.156 145.501 235.718 145.017C235.58 144.855 235.857 144.187 238.048 141.673C237.586 142.157 234.265 145.455 230.529 144.671C229.883 144.532 229.076 144.371 228.615 143.725C227.531 142.157 229.33 138.605 233.158 134.662C228.984 135.7 227.877 135.423 227.669 134.962C227.139 133.855 231.406 130.718 232.951 129.565C235.234 127.881 237.286 126.728 238.693 126.013C242.637 117.826 242.429 111.438 242.083 108.44C241.576 104.012 239.916 99.1916 239.593 98.2691C238.67 95.6169 238.232 95.0173 236.387 90.2434C233.412 82.5866 233.412 81.2721 233.527 80.2573C233.942 77.2131 235.995 73.1079 238.739 72.7389Z" fill="white" stroke="#272727" stroke-width="0.46125" stroke-miterlimit="10"/>
<path d="M228.707 143.08C231.267 141.627 233.504 139.759 235.372 137.499C235.649 137.153 235.165 136.669 234.888 137.015C233.066 139.229 230.875 141.074 228.361 142.503C227.969 142.688 228.315 143.288 228.707 143.08Z" fill="#272727"/>
<path d="M230.968 144.624C233.504 143.31 235.672 141.488 237.425 139.228C237.702 138.882 237.102 138.536 236.826 138.882C235.165 141.049 233.043 142.779 230.622 144.025C230.23 144.232 230.576 144.832 230.968 144.624Z" fill="#272727"/>
<path opacity="0.17" d="M236.802 73.8463C232.213 77.8361 250.94 95.3405 247.734 115.22C245.543 128.85 236.456 137.752 236.456 137.752C233.92 140.289 229.146 143.403 229.722 144.487C230.137 145.271 233.02 144.556 234.058 144.233C236.018 143.633 237.379 142.619 238.14 141.95C236.987 143.241 235.672 144.833 235.949 145.156C236.341 145.571 239.616 143.864 241.669 141.466C245.22 137.314 244.713 131.549 244.367 129.196C245.197 128.112 246.281 126.59 247.388 124.653C248.403 122.923 251.332 117.527 252.6 110.193C254.837 97.2086 250.248 86.9689 248.403 82.956C246.742 79.3813 243.929 73.4542 239.662 73.2005C239.109 73.1313 237.702 73.0622 236.802 73.8463Z" fill="#6D6C6C"/>
<path opacity="0.22" d="M252.346 109.823C251.101 113.444 249.625 117.249 247.872 121.239C246.627 124.076 245.358 126.728 244.067 129.242C243.421 131.317 242.199 134.431 239.777 137.637C237.24 141.004 234.45 143.056 232.582 144.232C233.112 144.256 233.758 144.209 234.473 144.025C236.272 143.61 237.471 142.618 238.07 142.018C237.379 142.895 236.664 143.748 235.972 144.625C236.525 144.532 237.402 144.371 238.37 143.933C243.444 141.649 244.505 135.446 244.574 135.031C244.759 133.9 244.874 131.963 244.182 129.565C245.842 127.604 247.941 124.675 249.625 120.732C251.493 116.396 252.115 112.498 252.346 109.823Z" fill="#6D6C6C"/>
<path d="M196.973 57.5637C193.26 61.8072 195.82 67.7343 196.166 68.5415C197.458 71.5396 200.802 75.8061 205.045 75.4602C208.136 75.1835 210.096 72.5774 210.58 71.8855C213.994 66.9732 212.863 57.5868 207.098 55.1652C203.915 53.8276 199.533 54.6117 196.973 57.5637Z" fill="#FEA300"/>
<path d="M206.337 61.346C206.499 63.168 208.413 63.56 209.704 66.5582C210.627 68.726 210.627 70.8478 210.465 72.3699C211.964 72.5083 214.732 72.5775 217.868 71.3782C220.336 70.4327 222.066 69.072 223.104 68.1264C222.619 67.0425 221.904 65.4512 221.051 63.56C217.361 55.5112 216.761 54.8193 215.862 54.4734C212.264 53.1127 206.037 57.9558 206.337 61.346Z" fill="white" stroke="#272727" stroke-width="0.46125" stroke-miterlimit="10"/>
<path d="M193.053 37.5229C192.269 38.6299 191.785 39.9906 191.715 45.8254C191.669 50.8069 191.946 55.3502 192.407 59.3862C193.445 58.7865 194.483 58.1869 195.521 57.5873C195.982 58.7173 196.766 60.2625 198.104 61.7616C200.756 64.7367 203.985 65.7514 205.415 66.1204C206.914 65.7514 210.65 64.5983 213.486 61.0697C215.354 58.7173 215.954 56.388 216.092 55.8576C216.946 52.3752 216.116 49.4923 215.677 48.2931C216.231 48.0394 217.084 47.5551 217.73 46.6787C219.091 44.8337 219.46 41.5358 217.776 40.4288C216.531 39.5985 214.317 40.0828 212.656 41.7895C212.287 40.9362 211.711 39.76 210.788 38.5377C210.557 38.2378 208.828 35.9777 206.706 34.8015C202.624 32.4492 195.867 33.5562 193.053 37.5229Z" fill="white" stroke="#272727" stroke-width="0.46125" stroke-miterlimit="10"/>
<path d="M191.369 44.7642C190.447 44.6027 188.74 44.1184 187.933 42.7116C186.549 40.3362 188.579 36.7153 189.086 35.8159C189.501 35.0548 190.608 33.2329 195.313 29.935C198.888 27.4212 200.687 26.1758 202.624 25.5762C209.496 23.5236 215.793 27.0752 216.969 27.744C219.436 29.1508 221.005 30.673 222.25 31.8722C224.164 33.7172 226.309 35.839 228.708 38.2836C234.865 46.2632 237.033 53.551 237.909 57.9098C238.901 62.8452 239.916 67.8728 236.964 70.8248C234.012 73.7768 228.615 73.1772 225.317 71.7703C220.728 69.81 218.768 65.6588 217.245 62.4531C214.662 56.9642 214.501 51.706 214.755 48.2927C217.061 47.6239 218.237 45.456 217.707 43.8186C217.292 42.5271 215.746 41.2356 214.155 41.6968C212.933 42.0428 212.056 43.3112 212.126 44.7872C211.019 44.7642 208.067 44.5105 205.253 42.3887C203.2 40.8435 202.163 38.9985 201.678 37.9838C200.41 38.1452 197.873 38.6065 195.313 40.4515C193.168 41.9275 191.969 43.7033 191.369 44.7642Z" fill="#FEA300"/>
<path opacity="0.24" d="M206.637 49.169C209.404 52.5131 210.281 56.0417 210.281 56.0417C211.18 60.0084 209.889 63.3755 209.312 64.7362C210.765 63.6292 212.241 62.5222 213.694 61.4152C214.709 64.7824 215.7 68.1264 216.715 71.4935C217.476 71.4244 219.044 71.1476 220.613 70.0406C221.812 69.1873 222.527 68.1956 222.919 67.5729C221.051 65.8432 217.476 62.0149 215.839 55.9955C215.055 53.0897 214.939 50.5067 215.032 48.5694C217.13 47.7161 218.214 45.6635 217.776 43.9569C217.453 42.7115 216.185 41.2125 214.547 41.4431C213.187 41.6507 212.057 42.9883 212.08 44.6257C211.042 44.6257 208.597 44.5104 206.037 42.9652C203.385 41.3739 202.117 39.1599 201.632 38.2144C201.748 42.6424 203.108 45.2023 204.331 46.7244C205.138 47.7622 205.507 47.8084 206.637 49.169Z" fill="#6D6C6C"/>
<path d="M195.913 48.1998C195.659 49.1223 195.682 50.0679 196.028 50.9673C196.144 51.2902 196.582 51.3132 196.697 50.9673C196.974 50.137 196.974 49.2607 196.72 48.4304C196.582 48.0153 195.913 48.1767 196.051 48.6149C196.282 49.3529 196.259 50.0679 196.028 50.8059C196.259 50.8059 196.466 50.8059 196.697 50.8059C196.397 50.0217 196.351 49.2145 196.582 48.4074C196.697 47.9461 196.051 47.7616 195.913 48.1998Z" fill="#272727"/>
<path d="M195.082 46.7699C195.682 46.4009 196.42 46.4701 196.927 46.9544C197.25 47.2542 197.734 46.7699 197.412 46.4701C196.697 45.7782 195.59 45.6398 194.736 46.1703C194.367 46.4009 194.713 47.0005 195.082 46.7699Z" fill="#272727"/>
<path d="M197.573 52.6289C198.011 52.6289 198.011 51.937 197.573 51.937C197.112 51.937 197.112 52.6289 197.573 52.6289Z" fill="#272727"/>
<path d="M199.095 50.6218C199.095 50.6449 199.095 50.6679 199.095 50.691C199.095 50.8755 199.257 51.0369 199.441 51.0369C199.626 51.0369 199.787 50.8755 199.787 50.691C199.787 50.6679 199.787 50.6449 199.787 50.6218C199.787 50.4373 199.626 50.2759 199.441 50.2759C199.257 50.2759 199.095 50.4143 199.095 50.6218Z" fill="#272727"/>
<path d="M199.165 52.3525C199.603 52.3525 199.603 51.6606 199.165 51.6606C198.726 51.6606 198.726 52.3525 199.165 52.3525Z" fill="#272727"/>
<path d="M189.663 49.2613C189.386 50.1838 189.409 51.1294 189.732 52.0288C189.847 52.3517 190.285 52.3517 190.401 52.0288C190.678 51.1985 190.701 50.3222 190.47 49.4919C190.355 49.0537 189.686 49.2382 189.801 49.6764C190.009 50.4144 189.986 51.1294 189.732 51.8443C189.963 51.8443 190.17 51.8443 190.401 51.8443C190.124 51.0602 190.078 50.253 190.332 49.4458C190.447 49.0076 189.778 48.8231 189.663 49.2613Z" fill="#272727"/>
<path d="M189.271 47.5318C189.755 47.2781 190.424 47.3934 190.747 47.8547C191.001 48.2006 191.6 47.8547 191.346 47.5087C190.77 46.7477 189.778 46.494 188.925 46.9322C188.533 47.1397 188.879 47.7394 189.271 47.5318Z" fill="#272727"/>
<path d="M197.043 60.0778C198.819 59.7549 200.364 58.8093 201.517 57.4025C201.725 57.1488 201.356 56.7798 201.148 57.0335C200.064 58.3711 198.611 59.2475 196.904 59.5704C196.582 59.6396 196.72 60.1469 197.043 60.0778Z" fill="#272727"/>
<path d="M200.64 57.0801C201.055 57.2184 201.401 57.426 201.701 57.7258C201.932 57.9564 202.301 57.5874 202.07 57.3568C201.701 56.9878 201.263 56.7341 200.779 56.5727C200.456 56.4804 200.317 56.9878 200.64 57.0801Z" fill="#272727"/>
<path opacity="0.45" d="M215.008 26.9136C217.937 30.9726 221.696 36.7151 225.271 44.049C229.053 51.798 231.821 57.6328 229.676 59.9391C226.839 63.0064 217.038 58.1402 215.47 57.333C215.792 59.4317 216.6 62.7758 218.975 66.1198C220.174 67.8034 222.273 70.7785 226.147 72.1622C228.477 72.9925 230.552 72.9463 231.36 72.8771C232.444 72.8079 233.689 72.7157 235.05 71.9777C235.05 71.9777 236.825 71.0321 238.025 69.0949C239.847 66.1429 238.878 62.1531 237.586 57.1485C236.041 51.1523 233.966 47.1624 231.936 43.2188C231.429 42.2501 230.829 41.1201 229.861 39.8055C228.892 38.4679 228.177 37.7529 225.179 34.8701C220.728 30.5574 220.036 29.9348 218.698 29.0353C217.222 28.0206 215.908 27.3518 215.008 26.9136Z" fill="#AF7100"/>
<path opacity="0.43" d="M209.451 66.1431C209.635 66.6735 210.05 68.1726 209.451 69.8331C208.551 72.3008 206.06 73.131 205.668 73.2463C202.832 74.1688 199.257 72.7159 196.858 69.5563C197.181 70.3866 197.896 71.8626 199.372 73.1541C200.11 73.7998 202.117 75.5295 204.953 75.3219C205.438 75.2758 208.551 75.0452 209.981 72.3469C211.019 70.4327 210.788 68.0342 209.451 66.1431Z" fill="#FEA300"/>
</g>
<defs>
<clipPath id="clip0_2035_993">
<rect width="282" height="277" fill="white"/>
</clipPath>
</defs>
</svg>
