<svg width="289" height="246" viewBox="0 0 289 246" fill="none" xmlns="http://www.w3.org/2000/svg">
<path d="M98.5026 57.1743C101.061 57.1743 103.136 54.8798 103.136 52.0493C103.136 49.2189 101.061 46.9243 98.5026 46.9243C95.9439 46.9243 93.8696 49.2189 93.8696 52.0493C93.8696 54.8798 95.9439 57.1743 98.5026 57.1743Z" fill="#EC615B"/>
<path d="M203.565 139.297C205.467 139.297 207.009 137.81 207.009 135.976C207.009 134.142 205.467 132.655 203.565 132.655C201.663 132.655 200.121 134.142 200.121 135.976C200.121 137.81 201.663 139.297 203.565 139.297Z" fill="#EC615B"/>
<path d="M98.5435 119.249C99.9587 119.249 101.106 118.101 101.106 116.686C101.106 115.271 99.9587 114.124 98.5435 114.124C97.1282 114.124 95.981 115.271 95.981 116.686C95.981 118.101 97.1282 119.249 98.5435 119.249Z" fill="#EC615B"/>
<path d="M93.767 55.4728C96.02 55.4728 97.8465 53.5546 97.8465 51.1883C97.8465 48.822 96.02 46.9038 93.767 46.9038C91.514 46.9038 89.6875 48.822 89.6875 51.1883C89.6875 53.5546 91.514 55.4728 93.767 55.4728Z" fill="#FEA300"/>
<path d="M202.622 134.049C204.015 134.049 205.144 132.875 205.144 131.425C205.144 129.976 204.015 128.801 202.622 128.801C201.23 128.801 200.101 129.976 200.101 131.425C200.101 132.875 201.23 134.049 202.622 134.049Z" fill="#FEA300"/>
<path d="M236.324 61.6843C237.853 61.6843 239.092 60.3626 239.092 58.7323C239.092 57.1019 237.853 55.7803 236.324 55.7803C234.796 55.7803 233.557 57.1019 233.557 58.7323C233.557 60.3626 234.796 61.6843 236.324 61.6843Z" fill="#FEA300"/>
<path d="M176.218 79.9291C175.767 79.2116 175.029 79.8881 174.721 80.3801C174.086 81.4051 173.676 82.6761 174.147 83.8446C174.496 84.7261 175.357 85.4641 176.361 85.3206C177.284 85.1976 177.981 84.4391 177.96 83.5166C177.96 83.2706 177.612 83.0861 177.427 83.2911C176.341 84.6646 175.008 86.6121 176.095 88.3752C176.853 89.5847 178.719 89.7487 179.457 88.4367C179.272 88.4162 179.088 88.3957 178.903 88.3547C179.006 88.9287 179.108 89.5027 179.19 90.0767C179.252 90.4662 179.846 90.3022 179.785 89.9127C179.682 89.3387 179.58 88.7647 179.498 88.1907C179.457 87.9242 179.047 87.9036 178.944 88.1086C178.616 88.6826 177.878 88.8877 177.284 88.6007C176.628 88.2727 176.341 87.5346 176.341 86.8171C176.341 85.6281 177.181 84.5826 177.878 83.7011C177.694 83.6191 177.53 83.5576 177.345 83.4756C177.366 84.2546 176.607 84.8286 175.849 84.6646C175.275 84.5416 174.906 84.0496 174.701 83.5166C174.496 82.9631 174.516 82.4096 174.68 81.8561C174.701 81.8151 175.541 79.9906 175.664 80.1956C175.89 80.5646 176.423 80.2571 176.218 79.9291Z" fill="#EC615B"/>
<path d="M92.5164 81.7741C92.9674 80.5441 94.4639 81.0771 94.9354 81.9381C95.0994 82.2251 95.1814 82.5531 95.2224 82.8811C95.3044 83.4961 95.2429 83.7421 94.7099 84.1111C94.1359 84.6851 93.9924 84.4596 94.2999 83.4346C94.4434 83.3731 94.6074 83.3116 94.7509 83.2501C95.1404 83.1476 95.5914 83.1681 95.9809 83.2911C96.9649 83.6191 97.4569 84.6646 97.3134 85.6281C97.2724 85.8741 97.5184 86.1201 97.7644 85.9766C99.0969 85.2181 100.86 86.0586 101.167 87.5551C101.249 87.9446 101.844 87.7806 101.762 87.3911C101.372 85.5051 99.1379 84.5211 97.4569 85.4641C97.6004 85.5871 97.7644 85.6896 97.9079 85.8126C98.1744 84.0086 96.8009 82.3276 94.8944 82.6146C94.2384 82.7171 93.2544 83.1271 93.1724 83.9061C93.1109 84.5416 93.7054 85.0131 94.2999 85.0746C96.0629 85.2386 96.0219 82.6761 95.4479 81.6511C94.6689 80.2571 92.5164 79.9086 91.9014 81.6306C91.7784 81.9791 92.3729 82.1431 92.5164 81.7741Z" fill="#EC615B"/>
<path d="M200.449 158.936C202.028 159.982 203.36 161.314 204.426 162.872C204.652 163.2 205.185 162.893 204.959 162.565C203.832 160.925 202.438 159.531 200.777 158.424C200.429 158.178 200.121 158.711 200.449 158.936Z" fill="#FEA300"/>
<path d="M204.447 160.064C204.775 160.453 205.082 160.863 205.41 161.253C205.656 161.56 206.087 161.13 205.841 160.822C205.513 160.433 205.205 160.023 204.877 159.633C204.631 159.326 204.2 159.777 204.447 160.064Z" fill="#FEA300"/>
<path d="M202.56 154.324C203.975 155.636 205.143 157.132 206.045 158.834C206.23 159.182 206.763 158.875 206.579 158.526C205.656 156.784 204.446 155.226 202.991 153.893C202.704 153.606 202.273 154.057 202.56 154.324Z" fill="#FEA300"/>
<path d="M60.8233 177.407C61.2743 181.855 62.0533 186.242 63.1398 190.588C63.2423 190.978 63.8368 190.814 63.7343 190.424C62.6683 186.14 61.8893 181.794 61.4383 177.407C61.3973 177.017 60.7823 177.017 60.8233 177.407Z" fill="#E8E8E8"/>
<path d="M63.2627 190.793C67.3012 191.839 71.5037 191.839 75.5422 190.793C75.9317 190.691 75.7677 190.096 75.3782 190.199C71.4422 191.224 67.3627 191.224 63.4267 190.199C63.0577 190.096 62.8937 190.691 63.2627 190.793Z" fill="#E8E8E8"/>
<path d="M76.0139 190.179C76.2804 185.812 76.6289 181.446 77.0389 177.079C77.0799 176.69 76.4649 176.69 76.4239 177.079C76.0139 181.446 75.6654 185.812 75.3989 190.179C75.3784 190.568 75.9934 190.568 76.0139 190.179Z" fill="#E8E8E8"/>
<path d="M61.1719 177.735C66.2764 178.781 71.5244 178.74 76.6289 177.592C77.0184 177.51 76.8544 176.915 76.4649 176.997C71.4834 178.104 66.3379 178.166 61.3359 177.14C60.9464 177.058 60.7824 177.653 61.1719 177.735Z" fill="#E8E8E8"/>
<path d="M61.1106 179.211C61.2746 180.052 62.3406 180.011 62.9966 180.072C64.6571 180.216 66.3381 180.257 67.9986 180.216C69.5976 180.175 71.1966 180.052 72.7956 179.867C74.0666 179.703 75.2966 179.539 76.4241 178.904C76.7726 178.719 76.4651 178.186 76.1166 178.371C74.0871 179.498 71.2786 179.457 69.0031 179.56C67.8756 179.601 66.7276 179.621 65.6001 179.601C65.0056 179.58 61.8281 179.724 61.7051 179.047C61.6231 178.658 61.0491 178.822 61.1106 179.211Z" fill="#E8E8E8"/>
<path d="M62.279 186.325C63.263 188.067 64.5135 189.605 66.01 190.937C66.297 191.204 66.748 190.773 66.4405 190.507C64.9645 189.215 63.755 187.719 62.812 186.017C62.6275 185.669 62.0945 185.976 62.279 186.325Z" fill="#E8E8E8"/>
<path d="M61.4792 181.589C63.5702 185.115 66.1122 188.354 69.0232 191.265C69.3102 191.552 69.7407 191.101 69.4537 190.834C66.5837 187.964 64.0827 184.766 62.0122 181.281C61.8072 180.953 61.2742 181.261 61.4792 181.589Z" fill="#E8E8E8"/>
<path d="M64.903 180.113C67.076 183.988 69.5975 187.657 72.447 191.081C72.693 191.388 73.1235 190.958 72.8775 190.65C70.069 187.268 67.568 183.639 65.436 179.806C65.2515 179.457 64.7185 179.765 64.903 180.113Z" fill="#E8E8E8"/>
<path d="M68.8186 180.256C70.9301 183.413 73.0621 186.55 75.2147 189.686C75.4402 190.014 75.9732 189.707 75.7477 189.379C73.5952 186.242 71.4631 183.106 69.3516 179.949C69.1261 179.621 68.5931 179.928 68.8186 180.256Z" fill="#E8E8E8"/>
<path d="M72.0984 180.072C73.1644 181.794 74.3124 183.475 75.5014 185.115C75.7269 185.423 76.2599 185.115 76.0344 184.808C74.8454 183.168 73.6974 181.487 72.6313 179.765C72.4263 179.437 71.8934 179.744 72.0984 180.072Z" fill="#E8E8E8"/>
<path d="M54.3662 159.367C54.6122 160.782 54.8581 162.217 55.1246 163.631C55.2066 164.021 55.2682 164.431 55.5962 164.677C55.8217 164.861 56.5597 164.841 56.7032 165.046C56.7237 164.923 56.7441 164.8 56.7441 164.677C56.4366 164.984 56.1292 165.292 55.8012 165.579C55.7192 165.661 55.6986 165.784 55.7191 165.886C55.9036 166.44 56.0267 167.26 56.3957 167.731C56.5802 167.977 56.9081 167.936 57.0516 168.08C57.1746 168.203 57.1337 168.121 57.0722 168.49C57.0312 168.797 57.0312 169.125 57.0722 169.453C57.1337 169.945 57.2771 170.417 57.4616 170.868C58.5276 173.451 60.5982 175.542 62.5867 177.469C62.8737 177.735 63.3042 177.305 63.0172 177.038C61.7462 175.808 60.4752 174.537 59.4297 173.102C58.4047 171.688 57.1952 169.781 57.8307 167.977C57.8717 167.875 57.8307 167.731 57.7487 167.67C57.3592 167.362 56.9697 167.485 56.7032 166.993C56.1907 166.071 56.4777 165.763 57.1337 165.128C57.2362 165.046 57.2567 164.861 57.1747 164.759C57.0107 164.513 56.8877 164.431 56.6212 164.349C56.4572 164.287 56.2111 164.349 56.0471 164.267C55.6986 164.082 55.6986 163.631 55.6371 163.303C55.3911 161.95 55.1451 160.577 54.9196 159.224C54.8786 158.814 54.2842 158.978 54.3662 159.367Z" fill="#E8E8E8"/>
<path d="M54.8169 159.285C62.8119 161.95 68.2854 169.412 68.4494 177.858C68.4494 178.248 69.0644 178.248 69.0644 177.858C68.9004 169.146 63.2424 161.458 54.9809 158.69C54.6119 158.567 54.4479 159.162 54.8169 159.285Z" fill="#E8E8E8"/>
<path d="M67.0965 169.453C69.085 163.939 72.0165 158.609 76.711 154.98C77.0185 154.734 76.711 154.201 76.4035 154.447C71.5655 158.199 68.552 163.611 66.502 169.289C66.379 169.658 66.9735 169.822 67.0965 169.453Z" fill="#E8E8E8"/>
<path d="M76.1777 154.857C76.3212 156.743 76.4852 158.629 76.6287 160.536C76.6697 160.925 77.2848 160.925 77.2438 160.536C77.1003 158.65 76.9363 156.764 76.7928 154.857C76.7723 154.468 76.1572 154.468 76.1777 154.857Z" fill="#E8E8E8"/>
<path d="M76.8953 160.331C76.6288 160.392 76.3623 160.454 76.1163 160.536C75.7268 160.638 75.8908 161.233 76.2803 161.13C76.5468 161.069 76.8133 161.007 77.0592 160.925C77.4487 160.823 77.2847 160.249 76.8953 160.331Z" fill="#E8E8E8"/>
<path d="M75.8088 161.089C75.8908 161.479 76.2188 161.725 76.5878 161.766C76.7518 161.786 76.8953 161.622 76.8953 161.458C76.8953 161.274 76.7518 161.171 76.5878 161.151C76.6493 161.151 76.5878 161.151 76.5673 161.151C76.5468 161.151 76.5058 161.13 76.5468 161.151C76.5263 161.13 76.5058 161.13 76.4853 161.11C76.4443 161.089 76.5263 161.151 76.4648 161.089C76.4443 161.069 76.4443 161.069 76.4238 161.048C76.4648 161.089 76.4238 161.048 76.4238 161.028C76.4033 161.007 76.4033 160.966 76.4033 161.007C76.4033 160.987 76.3828 160.946 76.3828 160.925C76.3418 160.761 76.1573 160.659 76.0138 160.72C75.8498 160.761 75.7678 160.925 75.8088 161.089Z" fill="#E8E8E8"/>
<path d="M76.2803 161.54C76.3008 162.708 76.2598 163.856 76.1368 165.004C76.0958 165.373 76.1573 166.234 75.9113 166.521C75.8908 166.542 75.5218 166.603 75.4398 166.665C75.1323 166.911 75.5628 167.341 75.8703 167.095C75.9728 167.013 76.2188 167.095 76.3828 166.911C76.6288 166.665 76.5878 166.091 76.6288 165.804C76.8133 164.389 76.8953 162.954 76.8748 161.519C76.8953 161.15 76.2803 161.15 76.2803 161.54Z" fill="#E8E8E8"/>
<path d="M75.194 167.198C75.85 167.977 75.6655 169.268 75.604 170.211C75.522 171.298 75.3375 172.302 74.8045 173.245C74.046 174.639 72.98 175.808 72.4265 177.325C72.283 177.694 72.8775 177.858 73.021 177.489C73.759 175.5 75.4605 174.024 75.973 171.934C76.342 170.437 76.6905 168.038 75.6245 166.767C75.3785 166.48 74.948 166.911 75.194 167.198Z" fill="#E8E8E8"/>
<path d="M70.3557 177.612C70.9297 171.79 72.4672 166.111 74.9272 160.822C75.0912 160.474 74.5582 160.146 74.3942 160.515C71.8932 165.927 70.3147 171.687 69.7407 177.632C69.6997 178.022 70.3147 178.001 70.3557 177.612Z" fill="#E8E8E8"/>
<path d="M58.261 162.709C61.8485 167.219 64.4725 172.405 66.01 177.94C66.1125 178.33 66.707 178.166 66.6045 177.776C65.026 172.118 62.3405 166.87 58.6914 162.278C58.4454 161.971 58.015 162.401 58.261 162.709Z" fill="#E8E8E8"/>
<path d="M58.6503 170.273C60.3723 170.17 61.9713 170.58 63.4268 171.482C63.7548 171.687 64.0828 171.154 63.7343 170.949C62.1968 170.006 60.4543 169.555 58.6503 169.658C58.2403 169.678 58.2403 170.293 58.6503 170.273Z" fill="#E8E8E8"/>
<path d="M62.4017 167.526C62.2787 166.399 62.4222 165.312 62.8527 164.246C62.9962 163.877 62.4017 163.713 62.2582 164.082C61.8072 165.189 61.6637 166.337 61.7867 167.526C61.8277 167.916 62.4427 167.916 62.4017 167.526Z" fill="#E8E8E8"/>
<path d="M69.0441 164.123C69.7206 165.783 70.7046 167.547 70.9506 169.31C71.0121 169.699 71.6066 169.535 71.5451 169.146C71.2786 167.362 70.2946 165.599 69.6386 163.959C69.4951 163.59 68.9006 163.754 69.0441 164.123Z" fill="#E8E8E8"/>
<path d="M72.8161 166.071C73.4106 165.394 73.9846 164.595 74.7431 164.082C75.3786 163.652 76.0756 163.365 76.5676 162.77C76.8136 162.463 76.3831 162.032 76.1371 162.34C75.6041 162.975 74.8251 163.242 74.1896 163.734C73.4926 164.267 72.9596 164.984 72.3856 165.64C72.1191 165.948 72.5496 166.378 72.8161 166.071Z" fill="#E8E8E8"/>
<path d="M73.0209 177.407C74.0049 177.14 75.0094 177.038 76.0344 177.099C76.4239 177.12 76.4239 176.505 76.0344 176.484C74.9479 176.423 73.9024 176.525 72.8569 176.812C72.4879 176.915 72.6314 177.509 73.0209 177.407Z" fill="#E8E8E8"/>
<path d="M72.9391 177.653C74.0871 177.756 75.1941 177.612 76.3011 177.264C76.6701 177.141 76.5061 176.546 76.1371 176.669C75.0916 176.997 74.0256 177.12 72.9391 177.038C72.5496 177.018 72.5496 177.633 72.9391 177.653Z" fill="#E8E8E8"/>
<path d="M61.4386 177.551C61.7051 177.551 61.9511 177.551 62.2176 177.551C62.6071 177.551 62.6071 176.936 62.2176 176.936C61.9511 176.936 61.7051 176.936 61.4386 176.936C61.0491 176.936 61.0491 177.551 61.4386 177.551Z" fill="#E8E8E8"/>
<path d="M76.465 182.511C82.9635 182.511 89.4825 182.511 95.981 182.511C96.3705 182.511 96.3705 181.896 95.981 181.896C89.4825 181.896 82.9635 181.896 76.465 181.896C76.0755 181.896 76.0755 182.511 76.465 182.511Z" fill="#E8E8E8"/>
<path d="M186.468 178.452C190.342 178.452 194.196 178.452 198.071 178.452C198.46 178.452 198.46 177.837 198.071 177.837C194.196 177.837 190.342 177.837 186.468 177.837C186.078 177.837 186.078 178.452 186.468 178.452Z" fill="#E8E8E8"/>
<path d="M221.646 178.822C238.354 178.822 255.061 178.822 271.769 178.822C276.525 178.822 281.281 178.822 286.037 178.822C286.426 178.822 286.426 178.207 286.037 178.207C269.329 178.207 252.622 178.207 235.914 178.207C231.158 178.207 226.402 178.207 221.646 178.207C221.257 178.207 221.257 178.822 221.646 178.822Z" fill="#E8E8E8"/>
<path d="M196.902 111.52C195.344 114.738 193.663 117.895 191.88 120.991C191.798 121.155 191.859 121.421 192.064 121.442C200.859 122.774 208.731 127.141 216.316 131.548C216.664 131.753 216.972 131.22 216.623 131.015C208.977 126.587 201.064 122.2 192.208 120.847C192.269 120.991 192.331 121.155 192.392 121.298C194.196 118.203 195.857 115.046 197.415 111.827C197.599 111.479 197.087 111.151 196.902 111.52Z" fill="#E8E8E8"/>
<path d="M198.256 122.692C198.871 120.929 199.486 119.146 200.101 117.383C200.367 116.645 200.552 115.825 200.9 115.107C200.982 114.677 201.249 114.349 201.659 114.103C201.905 114.164 202.151 114.226 202.397 114.287C202.766 114.39 203.135 114.472 203.483 114.574C204.324 114.779 205.677 114.779 205.533 115.907C205.431 116.706 204.959 117.567 204.693 118.346C204.078 120.089 203.483 121.831 202.868 123.574C202.745 123.943 203.34 124.107 203.463 123.738C204.262 121.442 205.062 119.125 205.861 116.829C206.046 116.296 206.558 115.394 206.148 114.82C205.697 114.205 204.344 114.164 203.647 113.98C202.971 113.816 201.782 113.201 201.085 113.529C200.49 113.795 200.367 114.82 200.183 115.333C199.342 117.731 198.502 120.15 197.661 122.549C197.538 122.897 198.133 123.061 198.256 122.692Z" fill="#E8E8E8"/>
<path d="M206.169 124.886C207.481 122.118 208.813 119.33 210.125 116.563C210.781 115.169 211.437 113.795 212.114 112.401C212.421 111.766 212.667 111.007 213.057 110.413C213.385 109.9 213.467 109.777 214.041 110.003C214.348 110.126 214.717 110.433 214.984 110.618C215.332 110.864 215.886 111.13 216.132 111.458C216.439 111.848 216.316 112.258 216.132 112.75C215.886 113.406 215.517 114.041 215.209 114.677C214.533 116.071 213.856 117.465 213.139 118.859C211.786 121.503 210.371 124.127 208.916 126.731C208.711 127.079 209.244 127.387 209.449 127.038C211.232 123.881 212.934 120.683 214.533 117.444C215.332 115.845 216.214 114.205 216.89 112.545C217.362 111.335 216.337 110.843 215.435 110.208C214.717 109.716 213.59 108.589 212.811 109.511C212.319 110.085 212.052 111.048 211.724 111.745C211.314 112.586 210.925 113.426 210.515 114.287C208.875 117.731 207.235 121.175 205.615 124.619C205.472 124.927 206.005 125.255 206.169 124.886Z" fill="#E8E8E8"/>
<path d="M212.974 129.15C214.737 126.382 216.726 123.758 218.919 121.339C218.796 121.36 218.673 121.38 218.55 121.38C219.329 121.913 220.088 122.426 220.867 122.959C220.826 122.815 220.785 122.672 220.764 122.528C219.022 125.255 217.279 127.961 215.537 130.687C215.332 131.015 215.844 131.323 216.07 130.995C217.812 128.268 219.555 125.562 221.297 122.836C221.4 122.692 221.318 122.508 221.195 122.405C220.416 121.872 219.657 121.36 218.878 120.827C218.776 120.745 218.591 120.786 218.509 120.868C216.275 123.348 214.245 125.993 212.462 128.801C212.236 129.191 212.769 129.498 212.974 129.15Z" fill="#E8E8E8"/>
<path d="M237.431 109.655C235.381 108.876 234.089 106.826 234.458 104.632C234.827 102.398 237.021 100.409 239.276 101.742C240.834 102.664 241.633 104.755 241.039 106.457C240.424 108.281 238.415 109.368 236.549 109.081C236.16 109.019 235.996 109.614 236.385 109.675C238.579 110.003 240.895 108.794 241.633 106.621C242.371 104.448 241.182 101.824 239.05 100.942C236.549 99.9171 234.274 102.07 233.843 104.468C233.392 107.01 234.889 109.347 237.246 110.249C237.636 110.393 237.8 109.798 237.431 109.655Z" fill="#E8E8E8"/>
<path d="M241.633 109.265C237.554 109.142 239.091 102.603 242.699 102.849C246.307 103.115 244.831 110.474 240.875 109.121C240.506 108.998 240.342 109.593 240.711 109.716C245.282 111.274 247.332 102.951 242.966 102.254C240.834 101.906 238.907 103.915 238.579 105.903C238.251 107.871 239.583 109.798 241.633 109.859C242.023 109.9 242.023 109.285 241.633 109.265Z" fill="#E8E8E8"/>
<path d="M238.579 90.7126C238.23 90.3436 238.066 89.7491 238.333 89.2981C238.599 88.8676 239.255 88.6626 239.665 88.9906C240.034 89.2776 240.116 89.8926 239.768 90.2001C239.358 90.5691 238.702 90.3846 238.312 90.0771C238.005 89.8311 237.574 90.2616 237.882 90.5076C238.517 90.9996 239.501 91.2456 240.178 90.6511C240.793 90.0976 240.731 89.0726 240.116 88.5396C239.481 87.9861 238.476 88.1501 237.943 88.7651C237.349 89.4621 237.513 90.5076 238.128 91.1431C238.415 91.4301 238.845 90.9996 238.579 90.7126Z" fill="#E8E8E8"/>
<path d="M179.088 106.149C178.514 102.664 180.544 98.4616 184.48 98.5026C186.489 98.5231 188.436 99.3431 190.466 99.0561C191.901 98.8511 193.131 98.0311 193.992 96.9036C194.853 95.7761 195.345 94.3616 195.427 92.9471C195.529 90.8561 194.73 88.7241 195.304 86.6536C195.591 85.6081 196.206 84.6446 197.251 84.2551C198.256 83.9066 199.342 84.1116 200.388 84.0706C201.905 84.0091 203.094 83.3531 203.852 82.0206C204.918 80.1551 204.672 77.9206 205.41 75.9526C206.292 73.5746 208.772 71.5451 211.396 72.7136C211.745 72.8776 212.073 72.3446 211.704 72.1806C208.137 70.5816 205.164 73.8001 204.467 77.0391C204.016 79.1506 204.098 82.4306 201.577 83.2711C199.814 83.8656 197.825 82.9431 196.206 84.1526C194.873 85.1366 194.484 86.9406 194.504 88.5191C194.566 90.8356 195.283 93.0906 194.258 95.3046C193.315 97.3956 191.45 98.6461 189.133 98.5026C187.083 98.3796 185.054 97.5391 182.983 98.0721C179.478 98.9536 177.981 103.095 178.535 106.334C178.576 106.682 179.17 106.518 179.088 106.149Z" fill="#E8E8E8"/>
<path d="M205 91.5325C204.241 89.8105 205.287 88.1705 206.947 87.617C208.157 87.207 209.489 87.1865 210.535 86.3665C211.355 85.731 211.621 84.9315 211.519 83.9065C211.416 82.943 211.416 82.1845 212.175 81.5285C212.81 80.975 213.651 80.77 214.471 80.729C216.726 80.647 219.821 81.795 221.461 79.6015C222.22 78.5765 221.994 77.3055 222.343 76.1575C222.814 74.5585 224.352 73.5745 225.992 73.6565C226.381 73.677 226.381 73.062 225.992 73.0415C224.741 72.98 223.532 73.4515 222.671 74.3535C221.605 75.481 221.748 76.752 221.42 78.1665C220.539 82.041 215.147 79.3145 212.605 80.524C211.662 80.975 210.904 81.7745 210.822 82.8405C210.719 84.091 211.293 85.116 210.022 85.977C209.346 86.428 208.567 86.5715 207.788 86.756C206.496 87.0635 205.225 87.453 204.569 88.7035C204.036 89.6875 204.036 90.815 204.487 91.8195C204.631 92.209 205.143 91.881 205 91.5325Z" fill="#E8E8E8"/>
<path d="M241.531 64.2265C241.449 64.042 241.367 63.837 241.306 63.632C241.572 63.3245 241.818 63.017 242.085 62.7095C242.167 62.689 242.536 62.935 242.659 62.935C242.966 62.976 243.233 62.894 243.479 62.7095C244.237 62.115 243.971 61.172 244.196 60.3725C244.565 58.999 246.185 59.942 246.923 58.917C247.661 57.9125 247.394 55.7805 249.362 56.3545C249.752 56.457 249.916 55.8625 249.526 55.76C248.399 55.432 247.374 55.965 246.964 57.0515C246.841 57.359 246.8 57.7075 246.677 58.015C246.41 58.7325 246.123 58.835 245.344 58.876C244.77 58.917 244.319 58.876 243.93 59.368C243.602 59.7985 243.602 60.352 243.54 60.8645C243.479 61.623 243.54 62.2585 242.413 62.1765C242.187 62.156 242.003 61.951 241.757 61.951C240.404 61.9305 240.629 63.591 240.957 64.3905C241.08 64.7595 241.695 64.5955 241.531 64.2265Z" fill="#E8E8E8"/>
<path d="M245.385 65.9281C245.057 65.4976 244.504 64.2471 245.467 63.9191C245.816 63.7961 246.267 63.9396 246.636 63.9396C246.964 63.9396 247.251 63.9396 247.517 63.7141C248.337 63.0581 247.743 61.8896 248.173 61.0696C248.87 59.7371 250.264 60.7826 251.248 60.0856C251.945 59.5936 252.13 58.6506 252.253 57.8716C252.314 57.4821 251.72 57.3181 251.658 57.7076C251.515 58.6301 251.351 59.6551 250.203 59.7576C249.608 59.8191 249.157 59.6141 248.604 59.8806C247.702 60.3111 247.415 61.1106 247.394 62.0331C247.374 62.8121 247.558 63.2016 246.246 63.2631C246.082 63.2631 245.918 63.2221 245.754 63.2221C245.283 63.2631 244.873 63.5091 244.606 63.8986C244.032 64.7186 244.36 65.6616 244.934 66.3791C245.201 66.6866 245.631 66.2356 245.385 65.9281Z" fill="#E8E8E8"/>
<path d="M235.535 80.088C237.236 78.038 239.655 76.357 242.443 76.644C245.477 76.9515 246.974 79.3705 247.261 82.1995C247.753 86.8939 246.605 92.5109 249.782 96.5084C251.033 98.0869 252.898 98.9274 254.907 98.4354C257.326 97.8614 259.212 95.9549 261.365 94.8274C263.907 93.4949 267.412 92.7774 269.708 95.0119C271.389 96.6519 271.758 99.1529 272.312 101.326C272.824 103.294 273.706 105.467 275.469 106.635C276.535 107.332 277.703 107.394 278.933 107.312C280.307 107.209 283.115 107.127 282.828 109.28C282.787 109.669 283.402 109.669 283.443 109.28C283.546 108.439 283.156 107.763 282.48 107.271C281.414 106.492 280.184 106.615 278.933 106.697C277.519 106.799 276.309 106.676 275.223 105.672C274.239 104.77 273.644 103.499 273.214 102.248C272.496 100.096 272.291 97.7384 271.061 95.7704C269.852 93.8229 267.761 92.8799 265.506 92.9619C262.656 93.0644 260.258 94.7044 257.982 96.2214C256.896 96.9389 255.727 97.6974 254.395 97.9229C252.796 98.1894 251.381 97.4924 250.356 96.3034C248.429 94.0484 248.122 90.8299 248.019 88.0009C247.917 85.3564 248.265 82.4865 247.384 79.924C246.584 77.587 244.555 76.1315 242.115 76.0085C239.286 75.865 236.806 77.5665 235.063 79.6575C234.838 79.965 235.268 80.3955 235.535 80.088Z" fill="#E8E8E8"/>
<path d="M60.7414 108.671C63.9394 114.001 66.7889 119.515 69.3104 125.194C69.4744 125.563 70.0074 125.235 69.8434 124.886C67.3219 119.208 64.4519 113.693 61.2744 108.363C61.0694 108.015 60.5364 108.322 60.7414 108.671Z" fill="#E8E8E8"/>
<path d="M61.1307 108.424C66.1122 105.329 71.2372 102.438 76.5057 99.8144C76.8542 99.6299 76.5467 99.0969 76.1982 99.2814C70.9502 101.905 65.8252 104.796 60.8232 107.891C60.4747 108.117 60.7822 108.65 61.1307 108.424Z" fill="#E8E8E8"/>
<path d="M76.1369 99.5478C78.7404 105.021 81.4874 110.413 84.3984 115.722C84.5829 116.071 85.1159 115.763 84.9314 115.415C82.0204 110.105 79.2529 104.714 76.6699 99.2403C76.4854 98.8713 75.9729 99.1788 76.1369 99.5478Z" fill="#E8E8E8"/>
<path d="M70.0073 125.316C74.9068 122.364 79.7448 119.33 84.5418 116.214C84.8698 116.009 84.5623 115.476 84.2343 115.681C79.4373 118.797 74.5993 121.831 69.6998 124.783C69.3718 124.988 69.6793 125.521 70.0073 125.316Z" fill="#E8E8E8"/>
<path d="M69.618 106.621C69.495 110.557 69.7205 114.472 70.2945 118.367C70.356 118.757 70.9505 118.593 70.889 118.203C70.315 114.37 70.11 110.495 70.233 106.621C70.2535 106.231 69.6385 106.231 69.618 106.621Z" fill="#E8E8E8"/>
<path d="M69.6385 106.416C72.488 108.65 75.3375 110.844 78.228 113.017C78.5355 113.263 78.843 112.73 78.5355 112.484C75.686 110.352 72.857 108.179 70.069 105.985C69.7615 105.739 69.331 106.17 69.6385 106.416Z" fill="#E8E8E8"/>
<path d="M70.9301 118.49C73.2876 116.378 76.3626 115.251 78.5971 112.975C78.8841 112.688 78.4331 112.258 78.1666 112.545C75.9321 114.8 72.8776 115.948 70.4996 118.059C70.1921 118.305 70.6431 118.736 70.9301 118.49Z" fill="#E8E8E8"/>
<path d="M61.5614 111.889C62.2174 111.561 62.8734 111.254 63.5294 110.926C63.8779 110.762 63.5704 110.229 63.2219 110.393C62.5659 110.721 61.9099 111.028 61.2539 111.356C60.9054 111.541 61.2129 112.053 61.5614 111.889Z" fill="#E8E8E8"/>
<path d="M63.6731 115.374C64.2266 115.005 64.8211 114.698 65.4361 114.431C65.8051 114.288 65.6411 113.693 65.2721 113.837C64.5956 114.124 63.9601 114.452 63.3451 114.841C63.0376 115.067 63.3451 115.6 63.6731 115.374Z" fill="#E8E8E8"/>
<path d="M65.9896 119.392C66.5636 119.105 67.1376 118.818 67.7116 118.552C68.0601 118.367 67.7526 117.855 67.4041 118.019C66.8301 118.306 66.2561 118.593 65.6821 118.859C65.3336 119.023 65.6411 119.556 65.9896 119.392Z" fill="#E8E8E8"/>
<path d="M67.1784 123.41C67.8139 122.857 68.4699 122.385 69.2079 121.975C69.5564 121.77 69.2489 121.258 68.9004 121.442C68.1419 121.873 67.4244 122.385 66.7479 122.98C66.4404 123.246 66.8709 123.677 67.1784 123.41Z" fill="#E8E8E8"/>
<path d="M77.3055 103.587C77.777 103.259 78.269 103.033 78.8225 102.89C79.212 102.787 79.048 102.213 78.6585 102.295C78.064 102.439 77.49 102.685 76.9774 103.054C76.6699 103.279 76.9774 103.812 77.3055 103.587Z" fill="#E8E8E8"/>
<path d="M79.1297 107.092C79.7857 106.682 80.4417 106.272 81.0772 105.841C81.4052 105.636 81.0977 105.103 80.7697 105.308C80.1137 105.718 79.4577 106.128 78.8222 106.559C78.4737 106.784 78.7812 107.317 79.1297 107.092Z" fill="#E8E8E8"/>
<path d="M81.2209 111.295C81.9179 110.987 82.6354 110.68 83.3324 110.372C83.7014 110.208 83.3734 109.675 83.0249 109.839C82.3279 110.147 81.6104 110.454 80.9134 110.762C80.5444 110.926 80.8724 111.459 81.2209 111.295Z" fill="#E8E8E8"/>
<path d="M82.7175 114.041C83.271 113.508 83.886 113.057 84.5625 112.668C84.911 112.483 84.6035 111.95 84.255 112.135C83.5375 112.545 82.8815 113.016 82.287 113.59C82 113.877 82.4305 114.308 82.7175 114.041Z" fill="#E8E8E8"/>
<path d="M71.7498 122.611C72.2623 123.369 72.6928 124.169 73.0208 125.009C73.1643 125.378 73.7588 125.214 73.6153 124.845C73.2668 123.943 72.8363 123.082 72.2828 122.283C72.0573 121.975 71.5243 122.283 71.7498 122.611Z" fill="#E8E8E8"/>
<path d="M74.8864 120.909C75.2759 121.606 75.6449 122.283 76.0344 122.98C76.2189 123.328 76.7519 123.021 76.5674 122.672C76.1779 121.975 75.8089 121.299 75.4194 120.602C75.2349 120.253 74.7019 120.561 74.8864 120.909Z" fill="#E8E8E8"/>
<path d="M78.5148 118.306C78.9248 119.044 79.3348 119.782 79.7448 120.52C79.9293 120.868 80.4623 120.561 80.2778 120.212C79.8678 119.474 79.4578 118.736 79.0478 117.998C78.8633 117.65 78.3303 117.957 78.5148 118.306Z" fill="#E8E8E8"/>
<path d="M81.7746 116.358C82.1026 117.137 82.4306 117.916 82.7791 118.675C82.9431 119.044 83.4556 118.716 83.3121 118.367C82.9841 117.588 82.6561 116.809 82.3076 116.051C82.1436 115.702 81.6106 116.01 81.7746 116.358Z" fill="#E8E8E8"/>
<path d="M63.1809 105.268C63.5704 105.903 63.9394 106.539 64.3289 107.154C64.5339 107.502 65.0669 107.174 64.8619 106.846C64.4724 106.211 64.1034 105.575 63.7139 104.96C63.5089 104.632 62.9759 104.94 63.1809 105.268Z" fill="#E8E8E8"/>
<path d="M66.7067 103.218C67.0757 104.038 67.4447 104.858 67.8137 105.678C67.9777 106.047 68.5107 105.719 68.3467 105.37C67.9777 104.55 67.6087 103.73 67.2397 102.91C67.0552 102.541 66.5427 102.849 66.7067 103.218Z" fill="#E8E8E8"/>
<path d="M69.8846 101.25C70.4381 101.988 70.8686 102.787 71.1556 103.648C71.2786 104.017 71.8731 103.853 71.7501 103.484C71.4426 102.562 71.0121 101.701 70.4176 100.942C70.1921 100.635 69.6591 100.922 69.8846 101.25Z" fill="#E8E8E8"/>
<path d="M73.3079 99.6709C73.7384 100.327 74.1484 100.962 74.5789 101.618C74.7839 101.946 75.3169 101.639 75.1119 101.311C74.6814 100.655 74.2714 100.019 73.8409 99.3634C73.6154 99.0354 73.0824 99.3429 73.3079 99.6709Z" fill="#E8E8E8"/>
<path d="M105.185 59.0198C103.197 58.4048 103.094 56.2933 104.037 54.7148C104.96 53.1773 106.743 52.7673 108.137 54.0383C109.285 55.1043 109.388 56.9288 108.322 58.0973C107.256 59.2863 105.513 59.2658 104.283 58.3638C103.976 58.1178 103.668 58.6508 103.976 58.8968C105.534 60.0448 107.809 59.8603 108.978 58.2408C110.187 56.6008 109.757 54.3048 108.055 53.1978C103.955 50.5533 100.429 58.1793 105.021 59.6143C105.411 59.7373 105.575 59.1428 105.185 59.0198Z" fill="#E8E8E8"/>
<path d="M108.486 59.5527C106.948 60.0242 106.579 58.1792 107.256 57.1952C107.809 56.3957 108.896 55.9242 109.88 56.1907C110.823 56.4367 111.499 57.4002 111.253 58.3637C110.946 59.5732 109.675 60.0037 108.547 59.8192C108.158 59.7577 107.994 60.3522 108.383 60.4137C109.9 60.6802 111.54 60.0242 111.868 58.3842C112.155 56.9697 111.048 55.6782 109.675 55.5142C108.158 55.3297 106.497 56.4367 106.292 57.9947C106.108 59.3477 107.338 60.5572 108.691 60.1267C109.039 60.0242 108.875 59.4297 108.486 59.5527Z" fill="#E8E8E8"/>
<path d="M228.161 138.153C227.669 139.158 228.366 140.162 229.391 140.429C230.17 140.634 230.99 140.449 231.79 140.49C232.651 140.531 233.512 140.736 234.291 141.085C236.013 141.864 237.12 143.278 237.181 145.185C237.243 146.784 236.771 148.444 237.468 149.961C238.944 153.159 243.003 150.72 245.094 152.79C246.837 154.533 246.119 157.71 248.456 159.043C248.805 159.248 249.112 158.715 248.764 158.51C246.673 157.321 247.165 154.225 245.689 152.503C244.91 151.601 243.782 151.355 242.634 151.273C241.24 151.191 239.436 151.478 238.411 150.289C237.222 148.895 237.858 146.804 237.796 145.164C237.755 143.873 237.325 142.704 236.423 141.782C235.623 140.982 234.578 140.429 233.491 140.142C232.938 139.998 232.364 139.896 231.79 139.875C231.052 139.834 227.854 140.203 228.715 138.461C228.879 138.112 228.346 137.805 228.161 138.153Z" fill="#E8E8E8"/>
<path d="M47.4779 183.557C51.1884 183.557 54.8784 183.557 58.5889 183.557C58.9784 183.557 58.9784 182.942 58.5889 182.942C54.8784 182.942 51.1884 182.942 47.4779 182.942C47.0679 182.942 47.0679 183.557 47.4779 183.557Z" fill="#E8E8E8"/>
<path d="M53.4638 197.456C60.5978 197.456 67.7113 197.456 74.8453 197.456C75.2348 197.456 75.2348 196.841 74.8453 196.841C67.7113 196.841 60.5978 196.841 53.4638 196.841C53.0537 196.841 53.0537 197.456 53.4638 197.456Z" fill="#E8E8E8"/>
<path d="M73.9843 193.602C80.6058 193.602 87.2478 193.602 93.8693 193.602C94.2588 193.602 94.2588 192.987 93.8693 192.987C87.2478 192.987 80.6058 192.987 73.9843 192.987C73.5743 192.987 73.5743 193.602 73.9843 193.602Z" fill="#E8E8E8"/>
<path d="M184.254 192.536C187.596 191.716 190.958 191.634 194.361 192.167C195.796 192.393 197.251 192.618 198.707 192.495C200.121 192.372 201.495 191.942 202.868 191.573C204.426 191.142 205.984 190.814 207.624 190.937C209.305 191.06 210.925 191.532 212.565 191.901C213.979 192.229 215.414 192.454 216.87 192.434C218.407 192.393 219.924 192.126 221.421 191.901C225.521 191.245 229.375 191.655 233.434 192.331C233.823 192.393 233.987 191.798 233.598 191.737C230.318 191.204 227.017 190.65 223.676 190.978C220.191 191.327 216.952 192.188 213.426 191.47C210.474 190.876 207.665 189.953 204.631 190.527C203.012 190.835 201.474 191.409 199.855 191.716C198.051 192.065 196.308 191.86 194.504 191.573C190.999 191.04 187.534 191.081 184.07 191.942C183.721 192.044 183.885 192.639 184.254 192.536Z" fill="#E8E8E8"/>
<path d="M215.742 186.304C222.179 185.955 228.616 185.607 235.053 185.279C238.231 185.115 241.306 185.176 244.463 185.607C245.877 185.791 247.23 185.832 248.645 185.668C250.223 185.484 251.863 185.238 253.339 185.996C253.688 186.181 253.995 185.648 253.647 185.463C251.146 184.192 248.255 185.381 245.57 185.135C243.971 184.992 242.413 184.684 240.814 184.602C239.153 184.52 237.493 184.561 235.832 184.643C229.129 184.951 222.425 185.361 215.722 185.709C215.353 185.709 215.353 186.324 215.742 186.304Z" fill="#E8E8E8"/>
<path d="M89.6876 203.913C92.7216 204.2 95.7761 204.487 98.8101 204.139C100.225 203.975 101.578 203.667 102.951 203.257C104.735 202.724 106.334 202.581 108.179 202.909C109.593 203.155 110.987 203.503 112.402 203.626C113.898 203.749 115.395 203.667 116.891 203.524C120.028 203.216 123.164 202.683 126.28 203.38C126.67 203.462 126.834 202.868 126.444 202.786C123.451 202.13 120.458 202.56 117.445 202.868C115.948 203.011 114.452 203.155 112.955 203.073C111.254 202.991 109.614 202.54 107.953 202.273C106.559 202.048 105.227 202.048 103.853 202.376C102.377 202.745 100.983 203.237 99.4661 203.462C96.2271 203.934 92.9266 203.606 89.6876 203.319C89.2776 203.257 89.2981 203.872 89.6876 203.913Z" fill="#E8E8E8"/>
<path d="M122.118 38.499C121.319 37.9455 120.232 37.064 120.56 35.957C120.909 34.809 121.77 35.3625 122.569 35.096C123.635 34.7475 123.574 33.456 123.266 32.6155C122.959 31.7955 122.303 29.807 124.004 30.4835C124.394 30.6475 124.681 30.914 125.132 30.7705C125.542 30.6475 125.747 30.2785 125.849 29.889C125.931 29.5405 125.87 29.1715 125.849 28.8025C125.808 28.5565 125.788 28.29 125.788 28.044C125.706 27.4495 126.075 27.2035 126.854 27.306C126.874 27.6955 127.489 27.6955 127.469 27.306C127.428 26.732 126.997 26.322 126.382 26.3425C125.665 26.363 125.275 27.06 125.193 27.716C125.132 28.167 125.501 29.2125 125.296 29.5815C125.05 29.7455 124.804 29.93 124.537 30.094C124.435 30.0325 124.332 29.971 124.23 29.9095C124.045 29.848 123.902 29.725 123.717 29.684C123.082 29.5405 122.569 29.93 122.344 30.504C121.954 31.488 122.651 32.308 122.856 33.2305C123.123 34.5015 122.159 34.358 121.319 34.5015C120.95 34.563 120.642 34.7475 120.396 35.014C119.105 36.5105 120.601 38.171 121.831 39.032C122.139 39.2575 122.446 38.7245 122.118 38.499Z" fill="#E8E8E8"/>
<path d="M126.157 37.9252C125.481 37.1462 124.968 36.0802 126.28 35.6702C126.608 35.5677 126.977 35.6087 127.284 35.4037C127.961 34.9322 127.674 34.2967 127.551 33.6407C127.489 33.2717 127.346 32.7797 127.571 32.4107C127.735 32.1442 128.33 32.0417 128.637 31.9802C129.068 31.8777 129.519 31.8162 129.888 31.5702C130.441 31.1807 130.646 30.4838 130.277 29.8893C130.072 29.5613 129.539 29.8688 129.744 30.1968C130.359 31.1807 127.489 31.4472 126.997 32.1647C126.423 33.0052 127.633 34.4812 126.628 35.0142C126.239 35.2192 125.747 35.0757 125.378 35.3422C125.111 35.5267 124.927 35.8137 124.845 36.1212C124.619 37.0027 125.214 37.7612 125.747 38.3762C125.993 38.6632 126.423 38.2327 126.157 37.9252Z" fill="#E8E8E8"/>
<path d="M101.946 33.0665C101.413 32.6975 101.352 32.0415 101.516 31.4675C101.618 31.078 102.11 30.012 102.582 29.971C103.361 29.889 103.75 30.873 103.955 31.447C104.14 32.0005 104.201 32.554 104.222 33.128C104.222 33.5175 104.837 33.5175 104.837 33.128C104.816 31.98 104.058 28.454 102.172 29.479C101.454 29.8685 100.921 30.996 100.839 31.775C100.757 32.513 101.044 33.169 101.639 33.5995C101.946 33.825 102.254 33.292 101.946 33.0665Z" fill="#E8E8E8"/>
<path d="M101.7 33.3945C100.962 33.579 100.224 33.7635 99.4658 33.948C99.0353 34.0505 98.2973 34.0915 97.9488 34.4195C97.3543 34.973 97.5183 36.6745 97.5183 37.392C97.5183 37.597 97.7233 37.7405 97.9078 37.679C98.0103 37.6585 98.1128 37.6175 98.2358 37.597C98.7688 37.31 99.0353 37.4945 99.0558 38.1095C99.4658 38.5195 99.4658 38.7655 99.0558 38.8065C98.8098 38.909 98.5638 38.95 98.2973 38.95C98.1333 38.9705 97.9898 39.073 97.9898 39.2575C98.0308 40.5695 98.1333 41.861 98.2768 43.173C98.3178 43.5625 98.9328 43.5625 98.8918 43.173C98.7483 41.861 98.6458 40.5695 98.6048 39.2575C98.5023 39.36 98.3998 39.4625 98.2973 39.565C99.1583 39.4625 100.532 39.114 100.347 37.9455C100.142 36.695 98.6253 36.8385 97.7643 37.0845C97.8873 37.187 98.0308 37.2895 98.1538 37.3715C98.1538 36.9 98.1538 36.449 98.1948 35.9775C98.2563 35.2395 98.2153 34.973 98.8918 34.7065C99.8143 34.3375 100.901 34.2145 101.864 33.9685C102.254 33.907 102.09 33.3125 101.7 33.3945Z" fill="#E8E8E8"/>
<path d="M104.652 33.5791C105.513 33.5381 106.395 33.5381 107.256 33.6406C108.076 33.7431 108.035 33.8661 108.158 34.5836C108.24 35.0346 108.26 35.5061 108.301 35.9571C108.465 37.7201 108.588 39.4831 108.691 41.2461C108.711 41.6356 109.326 41.6356 109.306 41.2461C109.183 38.8476 109.101 36.3876 108.711 34.0096C108.609 33.4151 108.506 33.2306 107.891 33.1281C106.825 32.9231 105.718 32.9231 104.652 32.9846C104.263 32.9846 104.263 33.5996 104.652 33.5791Z" fill="#E8E8E8"/>
<path d="M98.728 43.6035C99.9375 43.3985 101.147 43.1935 102.336 42.9885C103.71 42.763 105.022 42.8655 106.395 42.763C107.031 42.7015 110.044 42.394 108.937 41.1435C108.671 40.8565 108.24 41.287 108.506 41.574C108.67 41.7585 105.883 42.1685 105.821 42.1685C104.96 42.189 104.099 42.148 103.238 42.2505C101.68 42.435 100.122 42.763 98.564 43.0295C98.1745 43.0705 98.3385 43.665 98.728 43.6035Z" fill="#E8E8E8"/>
<path d="M207.624 161.663C207.562 163.816 207.501 165.968 207.439 168.141C210.166 168.326 212.872 168.49 215.598 168.674C215.598 166.46 215.598 164.246 215.598 162.032C212.933 161.909 210.289 161.786 207.624 161.663Z" fill="white" stroke="#E8E8E8" stroke-width="0.8" stroke-miterlimit="10"/>
<path d="M211.171 185.587C211.54 187.965 211.704 189.933 211.786 191.347C212.052 196.042 211.847 197.128 211.437 197.989C210.433 200.101 208.608 200.982 208.772 201.269C208.895 201.454 209.797 201.249 213.815 199.137C213.569 194.463 213.344 189.81 213.098 185.136C212.462 185.3 211.827 185.443 211.171 185.587Z" fill="white" stroke="#E8E8E8" stroke-width="0.8" stroke-miterlimit="10"/>
<path d="M205.861 170.519C209.346 170.54 212.831 170.581 216.316 170.601C215.927 175.275 215.558 179.929 215.168 184.602C212.134 184.356 209.08 184.131 206.046 183.885C205.964 179.437 205.902 174.988 205.861 170.519Z" fill="white" stroke="#E8E8E8" stroke-width="0.8" stroke-miterlimit="10"/>
<path d="M207.276 185.423C208.383 188.108 208.752 190.425 208.875 191.983C209.059 194.279 209.182 196.042 208.075 197.21C207.665 197.661 206.989 198.092 205.677 198.973C204.508 199.752 203.955 200.039 203.996 200.121C204.057 200.244 205.185 199.998 210.105 198.256C210.433 196.595 210.699 194.463 210.638 191.962C210.556 189.297 210.125 187.022 209.654 185.32C208.875 185.361 208.075 185.382 207.276 185.423Z" fill="white" stroke="#E8E8E8" stroke-width="0.8" stroke-miterlimit="10"/>
<path d="M209.059 201.454C209.674 200.941 210.248 200.388 210.802 199.793C211.437 199.096 212.38 198.03 213.364 198.953C213.385 198.789 213.405 198.625 213.426 198.461C211.97 199.178 210.535 199.896 209.08 200.593C208.793 200.736 208.936 201.167 209.244 201.167C210.617 201.187 211.478 198.789 212.893 199.24C213.262 199.363 213.426 198.768 213.057 198.645C212.442 198.461 211.97 198.625 211.458 198.994C210.863 199.424 210.023 200.552 209.264 200.552C209.326 200.736 209.367 200.941 209.428 201.126C210.884 200.408 212.319 199.691 213.774 198.994C213.959 198.912 213.979 198.645 213.836 198.502C213.282 197.989 212.298 197.805 211.601 198.133C211.089 198.358 210.761 198.953 210.392 199.342C209.838 199.937 209.264 200.47 208.649 201.003C208.321 201.269 208.752 201.72 209.059 201.454Z" fill="#E8E8E8"/>
<path d="M211.581 198.256C212.196 198.276 212.79 198.399 213.364 198.645C213.713 198.809 214.041 198.276 213.672 198.112C212.995 197.805 212.319 197.641 211.581 197.62C211.191 197.641 211.191 198.256 211.581 198.256Z" fill="#E8E8E8"/>
<path d="M208.219 197.538C208.69 197.661 209.1 197.907 209.428 198.276C209.695 198.563 210.125 198.132 209.859 197.845C209.449 197.415 208.936 197.107 208.362 196.964C208.014 196.841 207.85 197.435 208.219 197.538Z" fill="#E8E8E8"/>
<path d="M204.898 200.019C205.533 199.547 206.189 199.117 206.866 198.707C207.173 198.522 207.501 198.276 207.829 198.174C208.342 197.989 208.649 198.112 209.121 198.317C209.121 198.133 209.121 197.969 209.121 197.784C208.465 198.071 207.727 198.051 207.05 198.338C206.394 198.604 205.779 199.26 205.103 199.383C205.185 199.568 205.267 199.752 205.349 199.937C206.558 199.342 207.911 199.24 209.121 198.645C209.469 198.461 209.162 197.948 208.813 198.112C207.604 198.707 206.251 198.809 205.041 199.404C204.713 199.568 204.959 200.019 205.287 199.957C206.025 199.834 206.62 199.158 207.317 198.891C208.014 198.625 208.772 198.604 209.449 198.317C209.654 198.235 209.654 197.866 209.449 197.784C208.67 197.436 208.321 197.231 207.542 197.641C206.517 198.174 205.554 198.809 204.631 199.486C204.262 199.711 204.57 200.244 204.898 200.019Z" fill="#E8E8E8"/>
<path d="M208.403 188.559C208.916 188.375 209.428 188.395 209.9 188.641C210.248 188.826 210.556 188.293 210.207 188.108C209.592 187.78 208.895 187.719 208.239 187.965C207.87 188.108 208.034 188.703 208.403 188.559Z" fill="#E8E8E8"/>
<path d="M208.916 190.609C209.346 190.568 209.756 190.67 210.084 190.958C210.392 191.204 210.822 190.773 210.515 190.527C210.064 190.158 209.51 189.953 208.916 189.994C208.526 190.014 208.526 190.629 208.916 190.609Z" fill="#E8E8E8"/>
<path d="M209.141 193.172C209.531 193.131 209.9 193.274 210.125 193.602C210.33 193.93 210.863 193.623 210.658 193.295C210.351 192.782 209.756 192.475 209.162 192.557C208.998 192.577 208.854 192.68 208.854 192.864C208.834 193.008 208.977 193.192 209.141 193.172Z" fill="#E8E8E8"/>
<path d="M211.786 188.416C212.155 188.211 212.626 188.231 212.975 188.518C213.282 188.764 213.713 188.334 213.405 188.088C212.852 187.637 212.114 187.534 211.478 187.883C211.13 188.088 211.437 188.621 211.786 188.416Z" fill="#E8E8E8"/>
<path d="M212.134 192.29C212.462 192.147 212.831 192.208 213.097 192.454C213.384 192.721 213.835 192.29 213.528 192.024C213.056 191.593 212.4 191.491 211.806 191.778C211.457 191.921 211.785 192.454 212.134 192.29Z" fill="#E8E8E8"/>
<path d="M212.216 195.57C212.544 195.365 212.954 195.365 213.262 195.611C213.569 195.857 214 195.427 213.692 195.181C213.18 194.75 212.462 194.689 211.909 195.058C211.581 195.263 211.888 195.796 212.216 195.57Z" fill="#E8E8E8"/>
<path d="M216.808 170.581C216.398 175.296 215.988 180.011 215.578 184.726" stroke="#E8E8E8" stroke-width="0.8" stroke-miterlimit="10"/>
<path d="M205.984 184.07C209.407 184.316 212.831 184.541 216.254 184.787" stroke="#E8E8E8" stroke-width="0.8" stroke-miterlimit="10"/>
<path d="M216.275 161.848C216.193 164.185 216.091 166.501 216.009 168.838" stroke="#E8E8E8" stroke-width="0.8" stroke-miterlimit="10"/>
<path d="M216.705 173.348C218.612 173 220.641 174.496 220.785 176.464C220.99 178.924 218.181 179.355 216.336 179.088C215.947 179.027 215.783 179.621 216.172 179.683C218.427 180.011 221.605 179.375 221.4 176.464C221.236 174.066 218.837 172.323 216.541 172.754C216.152 172.815 216.316 173.41 216.705 173.348Z" fill="#E8E8E8"/>
<path d="M216.255 180.175C217.054 180.339 217.69 180.913 217.915 181.692C218.018 182.081 218.612 181.917 218.51 181.528C218.243 180.544 217.444 179.765 216.439 179.58C216.029 179.519 215.865 180.093 216.255 180.175Z" fill="#E8E8E8"/>
<path d="M215.947 179.97C216.439 180.687 216.665 181.487 216.583 182.368C216.562 182.758 217.177 182.758 217.198 182.368C217.259 181.405 217.013 180.462 216.46 179.662C216.255 179.334 215.722 179.642 215.947 179.97Z" fill="#E8E8E8"/>
<path d="M205.841 173.061C204.488 172.2 202.007 174.681 201.7 175.89C201.085 178.35 204.242 178.063 205.554 178.883C205.882 179.088 206.189 178.555 205.861 178.35C204.918 177.756 203.524 177.981 202.704 177.243C201.7 176.341 202.622 175.255 203.319 174.619C203.688 174.291 204.939 173.205 205.533 173.574C205.861 173.82 206.189 173.287 205.841 173.061Z" fill="#E8E8E8"/>
<path d="M205.513 178.596C204.98 178.801 204.488 179.108 204.078 179.539C203.77 179.867 203.381 180.379 203.688 180.83C203.914 181.158 204.447 180.851 204.221 180.523C204.078 180.318 204.611 179.867 204.754 179.744C205.021 179.498 205.328 179.313 205.677 179.19C206.046 179.047 205.902 178.452 205.513 178.596Z" fill="#E8E8E8"/>
<path d="M205.267 179.026C204.877 179.641 204.754 180.338 204.898 181.035C204.98 181.425 205.574 181.261 205.492 180.871C205.369 180.318 205.492 179.805 205.8 179.334C206.025 179.006 205.492 178.698 205.267 179.026Z" fill="#E8E8E8"/>
<path d="M207.214 172.672C207.112 174.168 207.132 175.685 207.235 177.181C207.276 177.571 207.891 177.571 207.85 177.181C207.727 175.685 207.727 174.168 207.829 172.672C207.87 172.282 207.255 172.282 207.214 172.672Z" fill="#E8E8E8"/>
<path d="M207.665 172.836C209.838 172.959 211.991 173.041 214.164 173.082C214.061 172.979 213.959 172.877 213.856 172.774C213.795 174.312 213.733 175.87 213.651 177.407C213.631 177.797 214.246 177.797 214.266 177.407C214.328 175.87 214.389 174.312 214.471 172.774C214.471 172.61 214.328 172.467 214.164 172.467C211.991 172.426 209.838 172.344 207.665 172.221C207.276 172.2 207.276 172.815 207.665 172.836Z" fill="#E8E8E8"/>
<path d="M207.419 177.448C208.321 177.694 209.326 177.633 210.228 177.694C211.335 177.756 212.462 177.838 213.569 177.899C213.959 177.92 213.959 177.305 213.569 177.284C212.585 177.223 211.601 177.161 210.617 177.1C209.633 177.038 208.526 177.1 207.563 176.854C207.214 176.751 207.05 177.346 207.419 177.448Z" fill="#E8E8E8"/>
<path d="M208.116 180.625C208.485 181.425 209.284 180.728 209.899 181.015C210.186 181.138 210.125 181.322 210.514 181.343C210.965 181.363 212.072 180.461 212.298 181.302C212.359 181.528 212.646 181.589 212.81 181.445C213.015 181.384 213.241 181.322 213.446 181.281C213.692 181.589 214.143 181.138 213.877 180.851C213.405 180.297 212.81 180.605 212.359 181.015C212.523 181.056 212.708 181.097 212.872 181.158C212.687 180.441 211.929 179.969 211.211 180.297C210.863 180.461 210.822 180.769 210.289 180.564C210.186 180.523 210.145 180.359 210.043 180.318C209.817 180.236 208.628 180.359 208.628 180.338C208.485 179.949 207.952 180.256 208.116 180.625Z" fill="#E8E8E8"/>
<path d="M209.203 164.492C209.244 164.267 209.51 164.205 209.695 164.287C209.961 164.39 210.105 164.697 210.228 164.923C210.392 165.271 210.925 164.964 210.761 164.615C210.535 164.164 210.187 163.693 209.633 163.631C209.182 163.59 208.711 163.857 208.629 164.308C208.526 164.718 209.121 164.882 209.203 164.492Z" fill="#E8E8E8"/>
<path d="M212.974 164.779C213.015 164.574 213.2 164.451 213.405 164.533C213.651 164.615 213.753 164.922 213.794 165.148C213.856 165.537 214.45 165.373 214.389 164.984C214.307 164.492 213.979 163.979 213.446 163.897C212.974 163.836 212.462 164.123 212.38 164.615C212.318 165.004 212.913 165.168 212.974 164.779Z" fill="#E8E8E8"/>
<path d="M209.51 165.784C210.207 167.014 211.867 167.198 212.769 166.091C213.015 165.784 212.585 165.353 212.339 165.661C211.683 166.46 210.555 166.399 210.043 165.476C209.858 165.128 209.325 165.435 209.51 165.784Z" fill="#E8E8E8"/>
<path d="M156.23 197.64C152.335 202.417 148.461 207.173 144.566 211.949C149.137 228.021 151.72 232.244 153.258 232.019C154.365 231.855 154.898 229.456 155.492 226.771C156.968 220.067 156.087 214.307 155.185 210.719C157.645 207.972 160.084 205.205 162.544 202.458C160.433 200.859 158.342 199.26 156.23 197.64Z" fill="#161616" stroke="#161616" stroke-width="2" stroke-miterlimit="10"/>
<path d="M141.86 173.04C144.299 174.926 146.636 174.25 151.474 175.07C155.595 175.767 160.228 177.304 165.148 180.379C159.9 186.529 154.652 193.028 149.445 199.875C148.194 201.535 146.944 203.196 145.734 204.856C147.743 205.328 150.162 206.066 152.786 207.255C155.349 208.403 157.44 209.694 159.1 210.863C166.911 204.057 173.881 197.476 180.092 191.265C182.962 188.395 187.021 184.008 187.657 177.796C187.698 177.448 187.698 177.14 187.698 176.833C187.554 166.521 174.578 159.059 166.685 156.312C158.055 153.319 143.213 151.7 139.072 158.854C136.633 163.077 138.067 170.109 141.86 173.04Z" fill="#EC615B"/>
<path opacity="0.26" d="M157.009 162.729C156.866 164.677 156.517 166.993 155.8 169.556C155.287 171.38 154.672 173 154.057 174.373C153.381 174.64 152.725 174.906 152.048 175.173C156.456 176.915 160.884 178.658 165.291 180.4C162.011 184.152 158.711 188.088 155.39 192.188C151.966 196.411 148.707 200.552 145.611 204.631C147.805 205.349 149.978 206.066 152.171 206.763C160.023 198.112 167.874 189.441 175.726 180.79C176.546 178.432 176.505 176.587 176.259 175.296C175.131 168.982 167.403 163.836 157.009 162.729Z" fill="#6D6C6C"/>
<path opacity="0.23" d="M165.25 180.359C165.968 181.445 166.665 182.552 167.382 183.639C161.273 190.998 155.164 198.337 149.055 205.697C147.969 205.41 146.862 205.102 145.775 204.815C149.691 199.444 153.914 193.93 158.485 188.374C160.761 185.607 163.016 182.942 165.25 180.359Z" fill="#6D6C6C"/>
<path d="M144.853 189.851C150.9 190.958 156.968 192.044 163.016 193.151C170.006 208.403 170.785 213.323 169.473 214.164C168.53 214.758 166.562 213.282 164.369 211.622C158.875 207.46 155.82 202.499 154.16 199.158C150.511 198.666 146.862 198.153 143.213 197.661C143.746 195.058 144.299 192.454 144.853 189.851Z" fill="#161616" stroke="#161616" stroke-width="2" stroke-miterlimit="10"/>
<path d="M132.389 155.882C121.36 159.121 114.636 165.845 110.31 170.273C104.468 176.28 97.2928 183.639 99.3633 189.072C100.429 191.839 103.668 193.541 118.756 196.165C130.154 198.153 140.035 199.219 147.743 199.814C148.707 196.288 149.67 192.782 150.613 189.256C142.864 186.755 135.136 184.275 127.387 181.774C132.143 180.769 137.145 179.58 142.352 178.125C146.308 177.018 150.08 175.87 153.668 174.66C156.989 167.957 157.706 160.72 154.242 156.62C149.404 150.88 138.559 154.058 132.389 155.882Z" fill="#EC615B"/>
<path opacity="0.29" d="M156.927 162.975C156.825 165.005 156.476 167.608 155.533 170.478C154.959 172.221 154.303 173.738 153.647 174.988C153.094 175.029 152.54 175.091 151.987 175.132C147.313 176.669 142.331 178.125 137.063 179.478C133.66 180.359 130.339 181.118 127.12 181.815C134.89 184.254 142.659 186.673 150.429 189.113C150.265 189.953 150.06 190.835 149.814 191.757C149.527 192.823 149.199 193.807 148.891 194.709C138.17 192.065 127.448 189.42 116.727 186.776C116.235 186.181 114.615 184.029 114.861 181.179C115.128 178.084 118.08 175.89 121.852 173.881C132.758 168.1 151.044 164.185 156.927 162.975Z" fill="#6D6C6C"/>
<path opacity="0.24" d="M121.606 182.245C123.553 182.101 125.521 181.958 127.469 181.794C135.115 184.336 142.762 186.898 150.408 189.44C150.08 190.65 149.752 191.88 149.424 193.089C140.158 189.461 130.872 185.853 121.606 182.245Z" fill="#6D6C6C"/>
<path d="M129.499 109.429C132.533 107.645 137.801 105.103 144.812 104.365C155.554 103.238 163.795 107.092 167.055 108.834C166.46 116.891 165.538 123.328 164.8 127.756C163.918 133.045 163.201 135.976 162.873 140.835C162.463 146.923 162.975 151.925 163.447 155.205C159.88 156.312 154.488 157.522 147.846 157.378C141.45 157.235 136.284 155.841 132.82 154.631C133.742 147.292 133.435 141.47 132.984 137.514C132.471 133.106 131.774 130.954 130.934 125.624C129.847 118.736 129.56 113.098 129.499 109.429Z" fill="white" stroke="#161616" stroke-width="0.8" stroke-miterlimit="10"/>
<path opacity="0.14" d="M151.68 106.805C152.11 108.363 152.602 110.515 152.93 113.098C153.156 114.841 154.078 122.733 151.208 133.147C149.445 139.564 147.58 146.349 141.471 151.925C139.503 153.729 137.596 154.939 136.202 155.697C139.298 156.497 143.336 157.255 148.113 157.296C154.365 157.358 159.531 156.23 163.119 155.123C162.914 153.586 162.647 151.269 162.545 148.481C162.463 146.042 162.463 142.147 164.144 131.179C165.476 122.549 166.419 118.838 166.891 111.028C166.952 110.126 166.973 109.367 167.014 108.855C165.517 107.973 163.57 107.01 161.171 106.231C158.957 105.513 156.969 105.144 155.329 104.98C154.14 105.575 152.91 106.19 151.68 106.805Z" fill="#6D6C6C"/>
<path opacity="0.17" d="M166.419 112.196C165.271 118.695 163.754 123.943 162.565 127.592C159.08 138.252 156.641 145.427 150.06 150.675C145.981 153.934 141.737 155.308 139.011 155.964C141.778 156.743 145.694 157.501 150.429 157.399C155.882 157.276 160.29 156.046 163.18 155C162.791 152.499 162.34 148.748 162.463 144.176C162.606 138.252 163.57 134.685 164.636 128.186C165.23 124.373 165.989 118.92 166.419 112.196Z" fill="#6D6C6C"/>
<path d="M129.375 109.327C126.71 111.172 123.287 114.083 120.294 118.408C113.549 128.207 113.734 138.601 114 142.434C115.23 145.735 117.342 150.06 121.032 154.304C123.184 156.784 126.341 160.351 131.733 162.647C133.537 163.426 135.115 163.857 136.263 164.103C137.247 163.221 138.211 162.34 139.195 161.458C136.038 157.768 132.86 153.894 129.683 149.896C127.243 146.842 124.906 143.808 122.651 140.815C122.733 138.293 123.266 133.722 126.013 128.945C127.571 126.239 129.396 124.271 130.851 122.939C130.359 118.408 129.867 113.878 129.375 109.327Z" fill="white" stroke="#161616" stroke-width="0.8" stroke-miterlimit="10"/>
<path opacity="0.13" d="M129.765 113.898C123.861 120.56 121.052 126.874 119.658 130.851C117.219 137.739 117.731 141.347 118.1 143.069C118.408 144.422 119.084 146.739 121.565 150.265C123.717 153.319 128.248 158.793 136.878 163.303C137.637 162.565 138.395 161.847 139.154 161.109C136.714 158.362 134.254 155.472 131.774 152.458C128.514 148.502 125.48 144.607 122.672 140.794C122.754 138.723 123.102 135.833 124.312 132.594C126.136 127.735 129.006 124.537 130.79 122.836C130.421 119.863 130.093 116.891 129.765 113.898Z" fill="#6D6C6C"/>
<path opacity="0.16" d="M122.651 141.061C123.02 143.459 123.779 146.514 125.378 149.814C128.904 156.989 134.418 160.946 137.227 162.668C137.78 162.176 138.313 161.704 138.867 161.212C133.455 154.488 128.063 147.764 122.651 141.061Z" fill="#6D6C6C"/>
<path d="M167.362 108.958C170.355 110.782 174.209 113.632 177.551 117.875C185.136 127.49 184.91 137.699 184.623 141.471C183.229 144.71 180.872 148.953 176.731 153.135C174.312 155.554 170.765 159.06 164.718 161.335C162.688 162.094 160.905 162.524 159.613 162.77C158.527 161.909 157.42 161.048 156.333 160.187C159.859 156.559 163.447 152.766 167.014 148.83C169.74 145.817 172.364 142.844 174.906 139.913C174.804 137.453 174.23 132.963 171.134 128.248C169.371 125.583 167.342 123.656 165.702 122.344C166.276 117.875 166.829 113.427 167.362 108.958Z" fill="white" stroke="#161616" stroke-width="0.8" stroke-miterlimit="10"/>
<path opacity="0.16" d="M167.219 113.939C169.822 116.665 173.369 121.032 176.136 127.12C177.448 130.011 179.58 134.705 179.621 139.133C179.765 152.602 160.7 161.868 159.593 162.401C158.506 161.704 157.44 161.027 156.354 160.33C162.524 153.565 168.674 146.8 174.845 140.035C174.722 137.821 174.209 133.701 171.749 129.314C169.72 125.706 167.198 123.369 165.538 122.077C166.112 119.371 166.665 116.665 167.219 113.939Z" fill="#6D6C6C"/>
<path opacity="0.12" d="M175.049 140.097C174.742 141.881 174.229 143.828 173.43 145.837C169.822 154.939 162.524 159.921 158.834 162.053C157.952 161.479 157.091 160.905 156.21 160.331C162.483 153.586 168.756 146.842 175.049 140.097Z" fill="#6D6C6C"/>
<path d="M172.077 141.614H121.667V173.533H172.077V141.614Z" fill="white" stroke="#161616" stroke-width="0.8" stroke-miterlimit="10"/>
<path d="M146.145 160.618C143.48 160.946 142.188 157.707 142.885 155.554C143.562 153.422 146.083 152.418 148.133 153.156C150.163 153.894 151.147 156.374 150.429 158.363C149.63 160.577 146.842 161.479 144.792 160.495C144.443 160.331 144.115 160.864 144.484 161.028C146.309 161.909 148.543 161.581 149.999 160.146C151.413 158.732 151.618 156.497 150.737 154.755C148.728 150.778 142.516 152.049 142.086 156.415C141.86 158.752 143.541 161.561 146.145 161.253C146.534 161.192 146.534 160.577 146.145 160.618Z" fill="#161616"/>
<path opacity="0.14" d="M140.589 141.532C147.416 143.91 152.069 149.999 152.213 156.538C152.397 164.738 145.509 172.446 136.12 173.225C148.072 173.328 160.023 173.43 171.995 173.533C171.954 162.832 171.934 152.131 171.893 141.45C161.458 141.45 151.024 141.491 140.589 141.532Z" fill="#6D6C6C"/>
<path opacity="0.26" d="M171.995 141.43C171.81 147.949 170.519 153.033 169.432 156.374C167.833 161.233 166.685 164.779 163.385 167.916C158.895 172.221 153.299 173.02 150.839 173.225C157.829 173.287 164.82 173.348 171.81 173.43C171.831 167.342 171.872 161.253 171.913 155.144C171.913 150.573 171.954 146.001 171.995 141.43Z" fill="#6D6C6C"/>
<path d="M145.386 92.8858C144.258 94.2593 145.345 95.9403 145.14 100.43C145.037 102.664 144.668 104.468 144.381 105.678C145.345 106.129 147.046 106.764 149.24 106.826C151.946 106.887 153.996 106.047 155 105.555C154.549 104.653 153.955 103.259 153.586 101.455C152.663 96.8628 154.303 94.7103 152.95 93.0088C151.372 91.0408 146.903 91.0203 145.386 92.8858Z" fill="white" stroke="#161616" stroke-width="0.8" stroke-miterlimit="10"/>
<path d="M138.231 73.1646C136.94 76.4856 137.432 79.4786 137.719 80.7701C137.596 80.7906 135.197 81.3031 134.541 83.1481C133.885 85.0137 135.238 87.6581 138.067 88.5191C139.092 91.0201 141.573 95.8582 146.8 98.5027C147.682 98.9332 148.522 99.2817 149.363 99.5277C150.121 99.2407 151.146 98.7897 152.315 98.1132C155.964 96.0017 157.993 93.3777 158.465 92.7422C159.326 91.5942 160.494 89.7492 161.315 87.2071C161.766 87.2891 162.565 87.3302 163.344 86.9407C165.107 86.0387 165.989 83.2301 164.759 81.4056C163.734 79.8886 161.745 79.8271 161.499 79.8271C161.765 78.7611 162.585 74.9276 160.515 71.1351C158.137 66.7686 153.032 64.4726 148.235 65.1286C141.142 66.0511 138.354 72.8366 138.231 73.1646Z" fill="white" stroke="#161616" stroke-width="0.8" stroke-miterlimit="10"/>
<path d="M145.119 98.3179C146.37 99.0559 147.743 100.204 149.281 100.081C150.552 99.9784 151.966 99.2404 152.93 98.4614C153.237 98.2154 152.807 97.7849 152.499 98.0309C151.597 98.7484 150.142 99.5069 148.953 99.4864C147.702 99.4659 146.431 98.4204 145.406 97.7849C145.099 97.5799 144.791 98.1129 145.119 98.3179Z" fill="#161616"/>
<path d="M145.038 98.5846C146.206 99.5891 147.539 100.717 149.179 100.635C150.778 100.553 152.274 99.4866 153.32 98.3386C153.586 98.0516 153.156 97.6211 152.889 97.9081C151.987 98.8921 150.716 99.8556 149.322 99.9991C147.785 100.143 146.555 99.0971 145.468 98.1541C145.181 97.8876 144.751 98.3181 145.038 98.5846Z" fill="#161616"/>
<path d="M145.817 98.7076C145.817 98.6871 145.817 98.6871 145.817 98.7076C145.694 98.5231 145.468 98.4821 145.325 98.6256C145.325 98.6256 145.325 98.6256 145.304 98.6461C145.181 98.7486 145.181 98.9741 145.304 99.0766C147.559 101.229 151.7 101.926 153.32 98.6256C153.484 98.2771 152.971 97.9491 152.787 98.3181C151.352 101.27 147.723 100.553 145.755 98.6461C145.755 98.7896 145.755 98.9331 145.755 99.0766C145.755 99.0766 145.755 99.0766 145.776 99.0561C145.612 99.0356 145.448 99.0151 145.284 98.9946V99.0151C145.489 99.3431 146.022 99.0356 145.817 98.7076Z" fill="#161616"/>
<path d="M148.277 79.7452C148.01 83.0662 148.154 86.3667 148.687 89.6467C148.707 89.8107 148.912 89.9132 149.056 89.8517C149.855 89.5852 150.429 89.1137 150.86 88.3962C151.065 88.0477 150.532 87.7402 150.327 88.0887C149.978 88.6832 149.548 89.0317 148.892 89.2572C149.015 89.3187 149.138 89.4007 149.261 89.4622C148.728 86.2437 148.605 82.9842 148.871 79.7247C148.933 79.3352 148.318 79.3352 148.277 79.7452Z" fill="#161616"/>
<path d="M144.628 83.0048C144.669 83.1893 144.976 84.3373 144.628 84.5218C144.279 84.7063 143.295 83.9683 142.988 83.0048C142.742 82.1848 142.947 81.1598 143.336 81.0778C143.746 80.9753 144.382 82.1028 144.628 83.0048Z" fill="#161616" stroke="#161616" stroke-width="0.8" stroke-miterlimit="10"/>
<path d="M155.205 83.0048C155.246 83.1893 155.554 84.3373 155.205 84.5218C154.857 84.7063 153.873 83.9683 153.565 83.0048C153.319 82.1848 153.524 81.1598 153.914 81.0778C154.324 80.9753 154.959 82.1028 155.205 83.0048Z" fill="#161616" stroke="#161616" stroke-width="0.8" stroke-miterlimit="10"/>
<path d="M147.538 92.3525C150.039 93.4185 152.315 91.922 154.16 90.3024C154.467 90.0359 154.016 89.6054 153.729 89.8719C152.13 91.266 150.08 92.7625 147.866 91.8195C147.477 91.676 147.169 92.209 147.538 92.3525Z" fill="#161616"/>
<path d="M154.755 86.264C155.144 86.264 155.144 85.6489 154.755 85.6489C154.365 85.6489 154.365 86.264 154.755 86.264Z" fill="#161616"/>
<path d="M157.03 85.116C157.051 85.0955 157.071 85.075 157.092 85.0545C157.215 84.9315 157.215 84.747 157.092 84.624C156.969 84.501 156.784 84.501 156.661 84.624C156.641 84.6445 156.62 84.665 156.6 84.6855C156.477 84.8085 156.477 84.993 156.6 85.116C156.723 85.239 156.907 85.239 157.03 85.116Z" fill="#161616"/>
<path d="M156.353 86.6126C156.374 86.6126 156.394 86.6126 156.415 86.6126C156.579 86.6126 156.722 86.4691 156.722 86.3051C156.722 86.1411 156.579 85.9976 156.415 85.9976C156.394 85.9976 156.374 85.9976 156.353 85.9976C156.189 85.9976 156.046 86.1411 156.046 86.3051C156.046 86.4691 156.169 86.6126 156.353 86.6126Z" fill="#161616"/>
<path d="M142.208 79.3349C142.987 78.6789 144.135 78.6584 144.914 79.2938C145.222 79.5398 145.652 79.1094 145.345 78.8634C144.279 78.0024 142.803 78.0024 141.757 78.9044C141.47 79.1504 141.921 79.5808 142.208 79.3349Z" fill="#161616"/>
<path d="M152.213 79.1096C153.094 78.3306 154.345 78.1871 155.39 78.7406C155.739 78.9251 156.046 78.3921 155.698 78.2076C154.406 77.5106 152.869 77.6951 151.782 78.6791C151.475 78.9456 151.905 79.3761 152.213 79.1096Z" fill="#161616"/>
<path d="M142.373 86.2024C142.762 86.2024 142.762 85.5874 142.373 85.5874C141.983 85.5874 141.983 86.2024 142.373 86.2024Z" fill="#161616"/>
<path d="M144.546 85.9157C144.935 85.9157 144.935 85.3008 144.546 85.3008C144.156 85.3008 144.156 85.9157 144.546 85.9157Z" fill="#161616"/>
<path d="M143.459 86.3872C143.438 86.4077 143.418 86.4282 143.397 86.4487C143.274 86.5717 143.274 86.7562 143.397 86.8792C143.52 87.0022 143.705 87.0022 143.828 86.8792C143.848 86.8587 143.869 86.8382 143.889 86.8177C144.012 86.6947 144.012 86.5102 143.889 86.3872C143.766 86.2642 143.582 86.2642 143.459 86.3872Z" fill="#161616"/>
<path d="M141.573 66.5021C140.343 67.2606 137.657 68.9211 135.833 72.3241C134.008 75.7066 134.029 78.9046 134.111 80.2781C131.118 85.6696 129.765 90.4256 129.109 93.6646C128.043 98.8101 128.617 100.696 129.355 101.947C131.159 105.022 134.787 105.78 135.669 105.965C140.199 106.928 143.807 104.612 144.627 104.079C144.853 103.402 145.078 102.562 145.201 101.619C145.427 99.9991 145.304 98.6051 145.119 97.6006C144.094 96.7601 142.905 95.6326 141.757 94.1566C140.015 91.9016 139.031 89.6876 138.477 88.0886C136.673 87.9041 135.32 86.6741 135.197 85.3006C135.074 84.0091 135.976 82.3486 137.165 82.3486C138.047 82.3486 138.682 83.2506 138.805 83.4146C139.482 83.0251 140.425 82.3486 141.265 81.2826C142.475 79.7451 142.68 78.3716 143.233 76.9366C143.766 75.5426 144.791 73.6156 147.005 71.6066C149.137 72.3651 150.839 73.1031 152.007 73.6566C155.759 75.3991 157.891 76.4241 159.551 78.6586C160.474 79.8886 160.945 81.0981 161.191 81.8566C163.098 80.4011 163.877 80.7906 164.041 80.8726C165.25 81.5491 165.209 85.2596 163.323 86.2846C162.606 86.6741 161.786 86.5716 161.273 86.4486C160.679 88.5191 159.367 91.9016 156.353 94.8946C155.349 95.8991 154.324 96.6781 153.401 97.2726C153.319 98.0311 153.278 99.0766 153.483 100.307C153.668 101.434 153.996 102.357 154.303 103.013C159.285 106.293 165.476 105.698 168.838 102.172C171.831 99.0151 171.831 94.2386 170.703 90.9791C169.678 88.0066 167.69 86.2231 166.706 85.4441C166.972 84.2961 168.448 77.4901 164.164 71.2376C163.057 69.6181 159.961 65.7026 154.385 64.3496C148.481 62.9146 143.623 65.2516 141.573 66.5021Z" fill="#FEA300"/>
<path opacity="0.17" d="M154.57 74.9277C156.886 77.8387 157.501 80.5242 157.706 81.9182C158.547 87.7812 155.144 92.5372 153.422 94.9767C152.007 96.9652 150.552 98.3797 149.506 99.3022C150.408 101.721 151.29 104.12 152.192 106.539C153.114 106.231 154.037 105.924 154.959 105.616C154.529 104.858 154.078 103.915 153.729 102.767C153.094 100.717 153.053 98.9127 153.114 97.6827C154.242 96.8832 155.554 95.7967 156.825 94.3617C159.367 91.4917 160.638 88.5397 161.294 86.5512C161.704 86.6332 162.585 86.7357 163.426 86.2642C165.189 85.2597 164.902 82.7587 164.881 82.5947C164.82 82.0617 164.697 81.2007 164.082 80.8522C163.364 80.4627 162.175 80.8317 161.232 81.9387C160.945 80.9342 160.125 78.6177 157.911 76.7727C156.681 75.7477 155.431 75.2147 154.57 74.9277Z" fill="#6D6C6C"/>
<path opacity="0.19" d="M148.563 79.9294C148.44 79.9089 148.03 81.6924 146.78 89.5644C147.497 89.5644 148.215 89.5644 148.932 89.5644C148.789 88.5189 148.625 87.0019 148.543 85.1569C148.44 81.9999 148.686 79.9499 148.563 79.9294Z" fill="#6D6C6C"/>
<path opacity="0.54" d="M166.583 85.6492C166.235 85.8542 167.547 87.6172 167.362 90.2412C167.301 91.0612 167.178 92.9267 165.702 94.1772C165.599 94.2592 163.406 96.0632 161.233 94.9152C159.941 94.2387 159.162 92.8037 159.203 91.2457C158.588 92.3937 157.584 93.9107 156.005 95.3867C155.021 96.3092 154.058 96.9857 153.217 97.4982C153.156 98.4002 153.156 99.6302 153.484 101.024C153.668 101.783 153.894 102.439 154.119 102.972C154.755 103.382 155.698 103.935 156.928 104.366C157.707 104.632 161.991 106.129 166.173 104.058C166.911 103.689 168.551 102.849 169.74 101.045C169.884 100.819 170.417 100.02 170.806 98.6667C172.2 94.0337 170.15 89.8517 169.966 89.5032C168.838 87.2277 167.014 85.4032 166.583 85.6492Z" fill="#FEA300"/>
<path opacity="0.35" d="M138.457 88.1704C138.272 88.1909 138.682 89.8719 138.231 91.5324C137.903 92.7624 136.858 94.7714 135.074 95.1814C133.209 95.5914 130.892 94.2179 129.826 91.6554C129.334 92.7829 128.678 94.5869 128.576 96.8829C128.514 98.3794 128.432 99.9784 129.17 101.557C130.831 105.083 135.71 106.456 139.338 106.128C141.757 105.903 143.582 104.96 144.566 104.324C144.812 103.627 145.058 102.787 145.222 101.823C145.488 100.163 145.427 98.7074 145.283 97.6414C143.664 96.4729 142.557 95.2634 141.86 94.3819C140.876 93.1314 139.543 91.4504 138.867 89.1134C138.764 88.8469 138.58 88.1499 138.457 88.1704Z" fill="#FEA300"/>
<path d="M181.372 35.5938C183.95 34.9856 186.339 34.9682 188.54 35.5414C190.756 36.0914 192.629 37.1691 194.16 38.7745C195.691 40.3799 196.742 42.3963 197.315 44.8236C197.599 46.0279 197.673 47.1426 197.538 48.1678C197.398 49.1742 197.068 50.0069 196.548 50.6658C196.047 51.3204 195.392 51.7431 194.583 51.934C193.981 52.076 193.404 52.0731 192.852 51.925C192.297 51.7582 191.803 51.4773 191.372 51.0824C190.941 50.6874 190.615 50.1883 190.393 49.5851C190.147 50.8152 189.594 51.8794 188.733 52.7777C187.887 53.6527 186.814 54.2434 185.516 54.5497C183.71 54.9759 182.051 54.7217 180.539 53.7871C179.042 52.8293 178.076 51.4284 177.64 49.5844C177.205 47.7403 177.444 46.0553 178.355 44.5293C179.285 42.9988 180.653 42.0205 182.46 41.5943C183.306 41.3946 184.132 41.3587 184.937 41.4866C185.756 41.5913 186.501 41.8427 187.171 42.2408C187.837 42.6201 188.421 43.118 188.924 43.7343L188.379 40.7938L188.972 40.654L190.843 48.5852C190.989 49.2062 191.235 49.7441 191.581 50.1988C191.941 50.6304 192.371 50.9362 192.87 51.1164C193.365 51.2777 193.876 51.2962 194.403 51.1719C195.419 50.9322 196.122 50.2499 196.512 49.1249C196.898 47.9811 196.902 46.6095 196.525 45.0101C195.712 41.5666 193.926 39.0481 191.167 37.4545C188.426 35.8564 185.23 35.488 181.58 36.3492C177.948 37.206 175.266 38.9711 173.533 41.6444C171.814 44.2946 171.365 47.3602 172.186 50.8413C173.008 54.3224 174.751 56.8708 177.417 58.4866C180.082 60.1024 183.184 60.493 186.721 59.6585C187.756 59.4143 188.737 59.024 189.663 58.4877C190.613 57.9657 191.349 57.3847 191.874 56.7445L192.074 57.5913C191.679 58.0221 191.197 58.4237 190.63 58.796C190.081 59.1638 189.481 59.4841 188.83 59.7568C188.184 60.0484 187.522 60.274 186.845 60.4339C183.119 61.3128 179.83 60.8869 176.979 59.1561C174.15 57.4396 172.299 54.728 171.424 51.0211C170.55 47.3142 171.02 44.0448 172.835 41.2131C174.669 38.3769 177.514 36.5038 181.372 35.5938ZM185.386 53.7461C186.985 53.3687 188.186 52.5195 188.986 51.1984C189.787 49.8772 189.994 48.3981 189.608 46.761C189.217 45.1052 188.371 43.8746 187.068 43.0695C185.781 42.2411 184.327 42.0178 182.709 42.3996C181.11 42.7769 179.912 43.6355 179.116 44.9755C178.315 46.2967 178.105 47.7664 178.487 49.3846C178.865 50.984 179.709 52.2051 181.02 53.0479C182.331 53.8907 183.787 54.1234 185.386 53.7461Z" fill="#E8E8E8"/>
<path d="M29.2879 65.1527C29.2056 74.9915 29.0822 84.7892 29 94.628C52.1122 93.9694 75.2245 93.2695 98.2956 92.6109C103.025 96.2747 107.713 99.9385 112.443 103.602C111.209 96.357 109.934 89.1529 108.7 81.9075C108.33 75.9383 107.919 69.9692 107.549 64C81.4755 64.3705 55.3611 64.7822 29.2879 65.1527Z" fill="#FEA300"/>
<path d="M34.881 78.2438C49.0691 78.2438 63.2572 78.2438 77.4453 78.2438C78.2267 78.2438 78.2267 77.0088 77.4453 77.0088C63.2572 77.0088 49.0691 77.0088 34.881 77.0088C34.0996 77.0088 34.0996 78.2438 34.881 78.2438Z" fill="#E8E8E8"/>
<path d="M45.7789 83.7599C58.8567 83.7599 71.9345 83.7599 84.9711 83.7599C85.7525 83.7599 85.7525 82.5249 84.9711 82.5249C71.8933 82.5249 58.8155 82.5249 45.7789 82.5249C44.9975 82.5249 44.9975 83.7599 45.7789 83.7599Z" fill="#E8E8E8"/>
<path d="M82.586 78.0378C84.2311 78.0378 85.8761 78.0378 87.5211 78.0378C88.3025 78.0378 88.3025 76.8027 87.5211 76.8027C85.8761 76.8027 84.2311 76.8027 82.586 76.8027C81.8047 76.8027 81.8047 78.0378 82.586 78.0378Z" fill="#E8E8E8"/>
</svg>
