<svg width="154" height="116" viewBox="0 0 154 116" fill="none" xmlns="http://www.w3.org/2000/svg">
<path d="M43.3111 97.5568C53.7319 97.7658 63.8209 94.8948 74.0095 93.1898C76.9853 92.6948 79.9833 92.2988 83.0033 92.1008C83.2135 92.0898 83.2135 91.7598 83.0033 91.7708C72.5714 92.4528 62.5156 95.5548 52.1611 96.7648C49.2295 97.1058 46.2758 97.2928 43.3221 97.2378C43.0898 97.2268 43.0898 97.5568 43.3111 97.5568Z" fill="#E8E8E8"/>
<path d="M92.0193 93.8608C95.7253 93.0688 99.564 92.9368 103.314 93.5088C106.766 94.0368 110.073 95.1698 113.337 96.3798C116.556 97.5678 119.753 98.8328 123.094 99.6798C126.545 100.549 130.052 100.769 133.614 100.769C137.818 100.769 142.055 100.604 146.181 101.528C146.392 101.572 146.48 101.253 146.27 101.209C138.98 99.5808 131.424 101.231 124.134 99.5808C117.33 98.0408 111.113 94.5758 104.232 93.3328C100.161 92.5958 95.9797 92.6838 91.9419 93.5418C91.7206 93.5858 91.8091 93.9048 92.0193 93.8608Z" fill="#E8E8E8"/>
<path d="M31.5958 51.5654C30.6444 51.2794 28.7749 50.4984 29.4718 49.1784C29.9696 48.2324 31.452 48.1554 32.3702 48.1884C35.4677 48.2764 38.5652 48.5404 41.6627 48.2874C44.5721 48.0454 47.3488 47.2204 50.1808 46.5604C53.057 45.8784 56.0992 45.3834 58.9976 46.2194C60.2698 46.5824 61.4535 47.1874 62.7035 47.6054C63.3009 47.8034 63.9204 47.9574 64.551 48.0234C65.3032 48.1004 66.0555 47.9904 66.7967 47.9574C67.56 47.9244 68.3454 47.9464 68.9981 48.3974C69.5955 48.8044 70.0933 49.5744 69.7061 50.2894C69.153 51.3234 67.5379 51.0374 66.6086 50.8394C63.854 50.2674 61.0774 50.0914 58.2785 50.4654C56.7962 50.6634 55.347 51.0264 53.931 51.4774C52.4044 51.9614 50.922 52.3904 49.2958 52.1704C47.7802 51.9614 46.331 51.4774 44.7934 51.4224C43.2557 51.3564 41.729 51.5544 40.2135 51.7524C37.2709 52.1484 34.1291 52.6544 31.3746 51.2354C31.1865 51.1364 31.0206 51.4224 31.2086 51.5214C33.7862 52.8524 36.6956 52.5444 39.4834 52.1814C40.9436 51.9834 42.4149 51.7744 43.8973 51.7414C45.5235 51.7084 47.0391 52.0824 48.621 52.3904C50.2361 52.6984 51.6964 52.5334 53.2672 52.0494C54.827 51.5654 56.3647 51.0924 57.9799 50.8504C59.6503 50.5974 61.3429 50.5314 63.0244 50.6524C64.5178 50.7514 65.9449 51.1474 67.4162 51.3124C68.2901 51.4114 69.4074 51.3784 69.9495 50.5644C70.569 49.6294 69.9052 48.5404 69.0534 48.0234C67.7591 47.2424 66.155 47.7924 64.7501 47.7044C63.2014 47.6054 61.7743 46.8904 60.3472 46.3404C57.3825 45.1964 54.3514 45.3394 51.287 45.9884C48.0457 46.6704 44.8929 47.7154 41.5742 47.9794C39.6604 48.1334 37.7244 48.1004 35.8106 48.0234C34.815 47.9794 33.8083 47.9354 32.8127 47.8914C32.1932 47.8694 31.5847 47.8584 30.9763 47.9794C30.036 48.1664 28.9629 48.7164 29.0293 49.8274C29.1067 51.0484 30.5227 51.6094 31.5184 51.9064C31.7064 51.9504 31.7949 51.6314 31.5958 51.5654Z" fill="#E8E8E8"/>
<path d="M113.237 10.9866C112.285 10.8546 110.726 10.5136 110.449 9.43564C110.051 7.93964 112.197 7.46664 113.237 7.27964C116.279 6.76264 119.399 7.23564 122.463 7.23564C128.536 7.22464 134.521 6.08064 140.561 5.65164C143.581 5.43164 146.623 5.39864 149.632 5.78364C150.318 5.87164 151.037 5.93764 151.701 6.13564C151.978 6.21264 152.287 6.34464 152.498 6.54264C153.007 7.03764 152.509 7.48864 152.044 7.73064C150.849 8.35764 149.489 8.61064 148.15 8.66564C145.473 8.78664 142.807 8.23664 140.13 8.33564C138.88 8.37964 137.652 8.58864 136.468 9.01764C135.085 9.52364 133.802 10.2386 132.408 10.7116C130.793 11.2616 129.089 11.5366 127.375 11.5366C125.638 11.5366 123.923 11.2726 122.209 11.0746C118.735 10.6786 115.25 10.6896 111.788 11.1516C111.577 11.1846 111.577 11.5146 111.788 11.4816C115.173 11.0306 118.602 10.9976 121.998 11.3826C123.68 11.5696 125.361 11.8336 127.065 11.8666C128.636 11.8996 130.218 11.7016 131.733 11.2726C133.282 10.8326 134.698 10.0736 136.192 9.47964C137.641 8.90764 139.134 8.65464 140.683 8.65464C143.537 8.63264 146.402 9.27064 149.256 8.89664C149.953 8.80864 150.628 8.65464 151.292 8.41264C151.801 8.22564 152.487 7.99464 152.852 7.56564C153.538 6.74064 152.542 6.01464 151.801 5.80564C150.34 5.37664 148.692 5.29964 147.177 5.21164C145.528 5.11264 143.88 5.12364 142.232 5.20064C135.561 5.51964 128.968 6.90564 122.275 6.88364C120.372 6.88364 118.469 6.70764 116.567 6.69664C114.951 6.68564 113.104 6.71864 111.588 7.34564C110.637 7.74164 109.708 8.66564 110.239 9.75464C110.737 10.7776 112.142 11.1296 113.159 11.2726C113.359 11.3386 113.447 11.0196 113.237 10.9866Z" fill="#E8E8E8"/>
<path d="M6.25159 26.0014C15.4777 22.0194 25.5888 25.7374 34.0959 29.7304C38.4324 31.7654 42.7025 33.9434 47.2271 35.5494C51.6631 37.1224 56.2762 38.2114 60.9556 38.8384C70.3477 40.1034 79.961 39.5424 89.1982 37.4854C98.8779 35.3294 108.049 31.4134 117.651 28.9604C127.64 26.4084 138.083 25.8584 148.272 27.4974C149.511 27.6954 150.739 27.9264 151.967 28.1904C152.177 28.2344 152.265 27.9154 152.055 27.8714C142.165 25.7814 131.888 25.6824 121.976 27.6404C112.064 29.5984 102.739 33.6024 93.0148 36.2094C83.5785 38.7394 73.7218 39.7624 63.9757 38.8494C59.1303 38.3984 54.3292 37.4634 49.683 36.0114C44.8818 34.5154 40.3794 32.3374 35.8548 30.1814C27.6797 26.2764 18.4535 22.3164 9.20528 24.6374C8.13222 24.9014 7.10341 25.2644 6.08566 25.7044C5.89759 25.8034 6.06353 26.0894 6.25159 26.0014Z" fill="#E8E8E8"/>
<path d="M44.1074 22.0636C54.9155 28.0586 67.7812 28.5096 79.7729 26.8376C93.3466 24.9456 106.422 20.4906 120.018 18.7526C127.585 17.7846 135.307 17.6636 142.796 19.3136C143.006 19.3576 143.095 19.0386 142.884 18.9946C129.643 16.0906 116.058 18.6536 103.093 21.6566C90.3155 24.6156 77.3945 28.0696 64.1527 27.2226C57.2386 26.7826 50.3577 25.1436 44.2733 21.7776C44.0963 21.6676 43.9304 21.9536 44.1074 22.0636Z" fill="#E8E8E8"/>
<path d="M11.8381 1.5266C21.1306 -0.673401 31.0426 0.195599 39.8041 3.9906C44.1074 5.8496 48.1452 8.2696 52.3711 10.2826C56.6301 12.3066 61.0773 13.7036 65.7678 14.3306C71.1331 15.0456 76.5648 14.9246 81.9412 14.5726C82.1513 14.5616 82.1513 14.2316 81.9412 14.2426C77.0847 14.5616 72.184 14.6936 67.3386 14.1876C62.4269 13.6706 57.7364 12.3946 53.2561 10.3376C48.997 8.3686 44.9703 5.9486 40.6891 4.0346C36.4853 2.1206 32.0271 0.855599 27.4362 0.316599C22.2036 -0.310401 16.8715 -0.00240094 11.7496 1.2076C11.5394 1.2516 11.6279 1.5706 11.8381 1.5266Z" fill="#E8E8E8"/>
<path d="M106.091 68.1975C105.117 67.9995 103.524 67.5045 103.447 66.3055C103.402 65.5685 104.022 65.0295 104.675 64.8315C105.46 64.5785 106.29 64.8095 107.053 65.0295C108.447 65.4365 109.852 65.7665 111.312 65.8215C112.673 65.8765 114.022 65.6785 115.339 65.3265C116.755 64.9525 118.138 64.4465 119.543 64.0505C121.025 63.6325 122.541 63.4125 124.089 63.3905C127.043 63.3465 129.964 63.8745 132.906 63.9955C134.378 64.0505 135.827 63.9735 137.276 63.7535C138.847 63.5115 140.451 63.1485 142.055 63.3355C143.205 63.4675 145.053 64.2375 144.677 65.7115C144.345 66.9985 142.508 67.7245 141.38 68.0875C135.716 69.9135 129.875 66.8775 124.134 67.6805C120.826 68.1425 117.706 69.5285 114.365 69.7925C112.839 69.9135 111.268 69.8145 109.819 69.2755C108.491 68.7695 107.296 67.6695 105.781 67.9335C105.571 67.9665 105.659 68.2855 105.869 68.2525C106.777 68.0985 107.573 68.5275 108.336 68.9455C108.956 69.2755 109.575 69.5835 110.25 69.7815C111.633 70.1995 113.115 70.2545 114.553 70.1225C117.717 69.8255 120.693 68.5825 123.824 68.0765C127.275 67.5265 130.672 68.3185 134.079 68.7695C136.856 69.1325 139.831 69.2205 142.442 68.0655C143.438 67.6255 144.765 66.9215 145.02 65.7555C145.252 64.7105 144.444 63.8745 143.57 63.4455C142.276 62.8185 140.716 62.9395 139.345 63.1265C137.674 63.3465 136.048 63.6985 134.355 63.7205C131.059 63.7755 127.806 63.1045 124.521 63.0935C122.95 63.0935 121.39 63.2695 119.863 63.6655C118.348 64.0615 116.877 64.6115 115.372 65.0185C113.514 65.5135 111.644 65.6675 109.741 65.3705C108.79 65.2165 107.894 64.9525 106.976 64.6885C106.29 64.4905 105.549 64.3255 104.83 64.4795C103.756 64.7105 102.783 65.7225 103.259 66.8555C103.69 67.8895 105.007 68.3405 106.024 68.5495C106.201 68.5605 106.29 68.2415 106.091 68.1975Z" fill="#E8E8E8"/>
<path d="M56.4533 111.637C60.5907 110.647 64.6396 109.294 68.5446 107.611C70.5691 106.731 72.5493 105.73 74.7065 105.202C76.7751 104.685 78.9213 104.531 81.0563 104.586C83.5233 104.641 85.9681 104.971 88.4018 105.356C88.612 105.389 88.7005 105.07 88.4903 105.037C84.3419 104.388 80.0718 103.86 75.9012 104.608C73.7551 104.993 71.7859 105.807 69.8168 106.698C67.7481 107.633 65.6573 108.48 63.5112 109.228C61.1659 110.042 58.7875 110.746 56.3648 111.318C56.1546 111.362 56.2431 111.681 56.4533 111.637Z" fill="#161616"/>
<path d="M82.5938 104.706C84.4523 104.662 86.2887 104.398 88.0808 103.881C89.9061 103.364 91.7093 102.638 93.6452 102.825C94.6298 102.913 95.5922 103.188 96.5436 103.43C97.5392 103.683 98.5238 103.936 99.5194 104.189C101.433 104.673 103.336 105.157 105.25 105.641C105.46 105.696 105.548 105.377 105.338 105.322C103.358 104.816 101.378 104.321 99.3977 103.815C97.5835 103.353 95.725 102.737 93.8665 102.517C92.0411 102.308 90.3154 102.869 88.5897 103.397C86.6316 103.991 84.6403 104.332 82.6048 104.387C82.3836 104.376 82.3836 104.706 82.5938 104.706Z" fill="#161616"/>
<path d="M101.965 106.412C106.312 105.455 110.881 104.63 115.295 105.642C117.485 106.148 119.543 107.116 121.589 108.007C123.736 108.953 125.893 109.888 128.039 110.834C128.238 110.922 128.404 110.635 128.205 110.547C124.842 109.074 121.512 107.479 118.083 106.17C114.764 104.905 111.312 104.652 107.795 105.048C105.803 105.279 103.823 105.664 101.865 106.104C101.666 106.137 101.754 106.456 101.965 106.412Z" fill="#161616"/>
<path d="M62.6594 115.454C63.7988 115.256 64.9493 115.058 66.0887 114.86C67.2282 114.662 68.3787 114.408 69.5292 114.287C70.5912 114.177 71.6753 114.365 72.7262 114.464C73.8878 114.585 75.0604 114.695 76.222 114.816C76.4322 114.837 76.4322 114.508 76.222 114.486C75.0604 114.365 73.8878 114.255 72.7262 114.134C71.5979 114.024 70.4584 113.837 69.319 113.98C67.0622 114.255 64.8166 114.75 62.5709 115.135C62.3607 115.179 62.4492 115.498 62.6594 115.454Z" fill="#161616"/>
<path d="M98.2919 98.2058C98.5021 99.5258 98.7122 100.857 98.9114 102.177C94.5417 103.585 92.3956 104.476 92.4841 104.85C92.5947 105.312 96.0904 104.971 102.971 103.86C102.573 101.77 102.186 99.6798 101.788 97.5898C100.615 97.7878 99.4534 97.9968 98.2919 98.2058Z" fill="black"/>
<path d="M88.8889 54.0076C88.8115 55.5036 88.7008 57.6376 88.6013 60.2226C88.5017 62.9616 88.4464 64.3916 88.4575 66.1516C88.4575 66.9106 88.4906 70.0016 88.8889 73.9836C89.2208 77.3386 89.7407 82.3546 91.5881 88.5256C92.3183 90.9676 93.4466 94.2456 95.2056 97.9856C96.0131 98.1066 96.9645 98.1726 98.0486 98.1286C100.084 98.0296 101.732 97.5346 102.872 97.0726C102.54 95.9946 102.075 94.4656 101.589 92.6286C100.936 90.1426 99.0553 82.6516 98.3252 72.5866C97.9601 67.5266 97.8274 61.2126 98.469 53.9526C95.283 53.9636 92.086 53.9856 88.8889 54.0076Z" fill="white"/>
<path opacity="0.09" d="M98.1923 54.8545C97.9821 55.6465 97.7056 56.7905 97.4069 58.1765C96.6325 61.8395 95.836 67.0645 95.9134 75.8975C95.9577 81.3315 96.3449 88.8445 97.7609 97.9195C98.314 97.8645 98.8782 97.7985 99.4645 97.7105C100.692 97.5235 101.832 97.2815 102.872 97.0065C102.407 95.5105 101.765 93.2885 101.102 90.5825C98.7454 80.9355 98.0817 72.7515 97.9047 67.3505C97.8051 64.1385 97.8051 59.8815 98.1923 54.8545Z" fill="#606060"/>
<path d="M98.2255 54.2934C97.1193 65.4254 97.8052 76.7224 100.25 87.6454C100.947 90.7474 101.777 93.8054 102.75 96.8304C102.816 97.0284 103.137 96.9404 103.071 96.7424C99.6637 86.1054 97.96 74.9514 98.0485 63.7864C98.0707 60.6184 98.2477 57.4394 98.5574 54.2824C98.5795 54.0844 98.2477 54.0844 98.2255 54.2934Z" fill="#161616"/>
<path d="M88.4353 64.1604C88.0259 73.1804 89.2981 82.2554 92.1523 90.8244C92.9488 93.2224 93.878 95.5764 94.929 97.8755C95.0175 98.0735 95.3051 97.8975 95.2166 97.7105C91.5106 89.5154 89.3313 80.6604 88.8114 71.6954C88.6676 69.1874 88.6565 66.6794 88.7671 64.1604C88.7782 63.9404 88.4463 63.9514 88.4353 64.1604Z" fill="#161616"/>
<path d="M95.0617 97.9747C95.4379 98.3927 96.3007 98.2937 96.8096 98.3047C97.584 98.3157 98.3694 98.2387 99.1327 98.1287C99.9624 98.0077 100.792 97.8317 101.611 97.6337C102.02 97.5347 102.872 97.5127 103.082 97.0617C103.171 96.8747 102.883 96.6987 102.794 96.8967C102.695 97.1277 102.142 97.1717 101.932 97.2157C101.622 97.2927 101.323 97.3587 101.013 97.4357C100.427 97.5677 99.8518 97.6887 99.2655 97.7767C98.6571 97.8757 98.0486 97.9417 97.4402 97.9637C96.9756 97.9857 95.6481 98.1287 95.3051 97.7437C95.1502 97.5787 94.9179 97.8207 95.0617 97.9747Z" fill="#161616"/>
<path d="M85.6256 53.9416C85.3048 54.6346 84.8734 55.9546 84.5636 57.1206C84.1764 58.6056 84.0769 59.4966 83.8556 60.7946C83.4463 63.1926 83.1697 63.5996 82.5724 66.2286C81.9418 69.0446 81.6542 71.2116 81.4329 72.9386C81.2559 74.2806 80.9351 77.0195 80.7913 80.5615C80.7249 82.0905 80.6917 82.9925 80.7249 84.2355C80.8134 88.1405 81.444 91.1655 81.7206 92.3535C82.4617 95.6205 83.5459 98.4145 84.63 100.681C85.1278 100.934 85.8801 101.253 86.8314 101.462C88.0041 101.715 89.5086 102.045 90.9467 101.319C91.3449 101.121 92.2521 100.571 92.9379 99.2725C92.4069 97.8315 91.7543 95.7855 91.2343 93.2775C89.9511 87.0516 90.4157 82.1235 90.7365 79.0215C91.3339 73.1585 92.7056 68.7586 95.0619 61.1686C95.8584 58.6166 96.5664 56.5486 97.0532 55.1736C97.2191 54.0846 97.6063 50.8176 95.8474 49.4536C93.2698 47.4296 87.2629 50.4326 85.6256 53.9416Z" fill="white"/>
<path opacity="0.08" d="M95.4933 59.7935C94.7742 60.9265 93.7786 62.6095 92.7941 64.7325C91.5772 67.3505 89.7851 71.9485 88.8226 81.1115C88.2916 86.1165 87.9376 93.1235 88.7562 101.582C89.0992 101.615 90.5594 101.736 91.8095 100.735C92.4511 100.218 92.783 99.6245 92.9489 99.2505C92.4069 97.7655 91.7099 95.5875 91.1789 92.8925C89.6081 85.0385 90.5926 78.7245 91.3227 74.3245C91.9201 70.6505 93.0817 65.5795 95.4933 59.7935Z" fill="#606060"/>
<path d="M87.3625 101.439C87.7386 102.781 88.1147 104.134 88.4909 105.476C82.5614 107.269 79.6519 108.391 79.7515 108.831C79.8621 109.337 83.8999 108.963 91.8649 107.709C91.6547 105.553 91.4446 103.408 91.2454 101.252C89.9401 101.307 88.6457 101.373 87.3625 101.439Z" fill="black"/>
<path d="M85.5042 54.0735C84.3316 57.0215 83.7342 60.1455 83.1036 63.2475C82.4399 66.4925 81.7982 69.7375 81.3336 73.0155C80.4707 79.0875 80.2052 85.3025 81.3889 91.3525C82.0195 94.6085 83.0815 97.7765 84.6413 100.703C84.7409 100.89 85.0285 100.725 84.9289 100.538C79.0105 89.3505 80.8026 76.2605 83.2142 64.3915C83.9112 60.9485 84.5307 57.4395 85.8361 54.1615C85.9024 53.9635 85.5816 53.8755 85.5042 54.0735Z" fill="#161616"/>
<path d="M95.3498 59.7717C91.6439 69.5947 89.1659 80.1547 90.604 90.6817C91.0022 93.5857 91.6992 96.4347 92.7169 99.1847C92.7944 99.3827 93.1152 99.2947 93.0377 99.0967C89.3539 89.2077 90.1062 78.3617 92.8718 68.3407C93.6683 65.4697 94.6197 62.6427 95.6706 59.8487C95.748 59.6507 95.4272 59.5737 95.3498 59.7717Z" fill="#161616"/>
<path d="M84.6742 100.692C86.234 101.55 88.0261 101.913 89.7961 101.682C91.2453 101.484 92.9268 100.824 93.0706 99.1626C93.0927 98.9536 92.7609 98.9536 92.7387 99.1626C92.5839 100.89 90.482 101.352 89.0549 101.418C87.5836 101.484 86.1344 101.121 84.8512 100.406C84.6521 100.307 84.4861 100.593 84.6742 100.692Z" fill="#161616"/>
<path d="M87.9045 25.2755C87.6058 25.6275 87.1854 26.1665 86.7872 26.8815C85.4265 29.2575 85.338 31.5895 85.3159 33.6355C85.2938 36.6165 85.2716 38.1125 85.5924 41.3575C85.8911 44.3935 85.9686 48.7495 84.8955 54.3045C85.8579 55.0085 87.2629 55.8225 89.0993 56.2515C94.3871 57.4835 98.7679 54.4145 99.5976 53.8205C98.5466 47.6935 97.9714 42.7875 97.6395 39.3445C97.4293 37.1665 96.6549 33.9985 95.1173 27.6515C94.6526 25.7155 94.1769 23.8675 92.7388 23.3395C90.7476 22.5915 88.3028 24.8905 87.9045 25.2755Z" fill="#EC615B"/>
<path opacity="0.1" d="M92.6836 23.4937C92.8606 24.2087 93.115 25.2867 93.3695 26.6177C93.7013 28.3337 94.1438 30.9297 94.4536 34.7907C94.7744 38.7727 95.1395 46.2417 95.2501 55.8997C96.0023 55.6796 96.9095 55.3496 97.8719 54.8216C98.5135 54.4696 99.0666 54.0956 99.5313 53.7436C99.4538 52.8966 99.31 51.6096 99.0777 50.0586C98.779 48.1116 98.4803 46.7586 98.3365 46.0877C97.9825 44.3497 97.5843 41.7537 97.54 38.1457C97.0865 36.2317 96.7435 34.6917 96.5112 33.6687C95.8696 30.7647 95.6815 29.6977 95.1948 27.9377C94.708 26.1667 94.1992 24.7587 93.8783 23.9117C93.4801 23.7577 93.0818 23.6257 92.6836 23.4937Z" fill="#606060"/>
<path d="M87.8936 26.3315C87.9931 26.5295 88.1591 26.5955 88.5241 26.7715C88.8339 26.9255 89.1326 27.1125 89.4423 27.2445C90.3937 27.6515 91.511 29.4555 91.688 29.7415C92.3628 30.8305 93.1483 32.1065 93.6018 33.9545C93.7235 34.4385 94.0001 35.6925 93.6793 39.9275C93.3363 44.2725 92.8938 44.8775 93.2368 47.0445C93.4912 48.6175 93.812 50.4985 95.3718 51.5215C96.821 52.4675 98.4914 52.1375 98.8344 52.0715C100.936 51.6645 102.131 50.0475 103.293 48.4745C105.063 46.0875 105.737 43.7005 106.025 42.3145C106.158 41.6655 106.136 39.7625 106.102 35.9675C106.058 32.0515 105.992 30.6985 104.963 29.5545C104.266 28.7845 103.414 28.4215 102.828 28.2345C102.872 27.9925 102.883 27.6295 102.684 27.3215C102.308 26.7495 101.412 26.7605 100.837 26.7715C98.3698 26.8375 96.5334 28.4875 96.4449 28.5645C94.9072 29.9835 94.4536 31.7215 94.3098 32.4475C94.0001 31.0835 93.4912 30.0385 93.0929 29.3675C92.75 28.7845 92.2411 28.1905 91.2123 26.9805C90.4048 26.0345 90.0176 25.6715 89.4091 25.4735C89.2764 25.4295 88.2697 25.1325 87.9378 25.5835C87.7829 25.7925 87.7829 26.1115 87.8936 26.3315Z" fill="white"/>
<path opacity="0.11" d="M87.8158 25.9246C87.8822 25.8036 88.6234 26.0786 88.7008 26.1116C89.796 26.5296 90.7695 27.3986 92.0196 29.4116C92.6612 30.4456 93.4688 31.9086 94.1546 33.8116C94.6414 33.3166 95.0507 32.9096 95.3715 32.6016C95.3715 32.6016 96.5552 31.4686 98.469 30.3686C98.6571 30.2586 98.8894 30.1266 99.0553 30.2256C99.3983 30.4126 99.0332 31.3256 99.1328 32.1726C99.2102 32.8106 99.5863 33.6906 101.013 34.6696C101.047 34.8566 101.058 35.1206 100.903 35.2966C100.593 35.6376 99.7965 35.3626 99.3872 35.2196C98.7234 34.9886 97.4402 34.3836 95.9246 32.6126C95.7808 33.1846 95.5928 33.9986 95.449 34.9996C95.3162 35.8686 94.9511 38.7616 95.5596 42.4796C95.803 43.9536 96.2565 45.9226 97.1858 48.1666C97.5951 48.3426 98.115 48.5076 98.7345 48.6066C100.029 48.8046 101.102 48.5516 101.721 48.3536C101.356 48.5296 100.859 48.8266 100.427 49.3436C99.9071 49.9706 99.8961 50.4436 99.4646 51.0266C99.177 51.4226 98.6571 51.9176 97.6946 52.2696C97.396 52.2366 96.9424 52.1596 96.4446 51.9396C94.929 51.2686 94.2431 49.8496 93.9334 49.1896C93.5241 48.2986 92.8935 46.4946 93.4909 40.3896C93.8338 36.9026 94.21 35.8136 93.6347 33.8226C93.1922 32.2936 92.4289 31.0286 92.1634 30.5996C91.6877 29.8296 90.8359 28.4546 89.2872 27.1896C88.557 26.5736 87.7495 26.0676 87.8158 25.9246Z" fill="#606060"/>
<path d="M100.151 28.3887C99.9516 28.6527 99.6971 29.0377 99.498 29.5437C99.3874 29.8407 99.1219 30.5337 99.1882 31.4137C99.3099 33.1627 100.571 34.2297 100.803 34.4167C100.958 34.5377 101.091 34.6367 101.18 34.6917C101.047 35.1427 100.892 35.8137 100.837 36.6387C100.748 37.8047 100.66 39.1137 101.345 39.4987C101.788 39.7407 102.452 39.5757 102.817 39.2237C102.905 39.1357 103.16 38.8607 103.226 37.6177C103.304 36.1437 102.994 35.5277 103.436 35.0987C103.624 34.9007 103.945 34.7797 104.222 34.6587C104.531 34.5267 104.808 34.4607 105.007 34.4167C104.885 35.3187 104.797 36.1217 104.731 36.7707C104.653 37.5737 104.62 37.9807 104.897 38.2337C105.151 38.4647 105.571 38.5087 105.892 38.3657C106.313 38.1787 106.445 37.6617 106.678 36.6277C106.866 35.8137 107.021 35.1317 106.921 34.2077C106.866 33.7347 106.766 33.3497 106.678 33.0857C106.655 32.8987 106.6 32.6237 106.512 32.3047C106.324 31.6667 106.147 31.4797 106.036 31.0727C105.87 30.4897 106.058 30.2037 106.102 29.5437C106.147 29.0267 106.102 28.2897 105.726 27.3657C105.582 27.3767 105.284 27.3987 104.974 27.6077C104.598 27.8497 104.443 28.2017 104.388 28.3227C104.1 28.2567 103.58 28.1907 102.983 28.3557C101.954 28.6307 101.412 29.3897 101.268 29.6207C101.556 28.9937 101.312 28.3777 100.925 28.2237C100.593 28.0807 100.195 28.3667 100.151 28.3887Z" fill="black"/>
<path d="M101.401 31.799C101.512 31.59 102.065 31.128 102.253 31.513C102.341 31.7 102.629 31.535 102.54 31.348C102.419 31.095 102.12 31.018 101.855 31.073C101.534 31.128 101.268 31.348 101.113 31.634C101.014 31.821 101.301 31.986 101.401 31.799Z" fill="white"/>
<path d="M104.642 30.9518C104.709 30.8088 104.775 30.6438 104.886 30.5338C104.996 30.4238 105.328 30.3028 105.339 30.5558C105.35 30.7648 105.682 30.7648 105.671 30.5558C105.649 30.2368 105.372 30.0278 105.052 30.0718C104.686 30.1378 104.498 30.4678 104.355 30.7758C104.266 30.9738 104.554 31.1498 104.642 30.9518Z" fill="white"/>
<path d="M104.73 31.9968C104.73 32.0078 104.73 32.0188 104.73 32.0298C104.708 32.0518 104.686 32.0738 104.675 32.0848C104.62 32.1178 104.531 32.0848 104.542 32.0188C104.542 32.0188 104.542 31.9858 104.553 31.9968L104.52 32.0298C104.598 32.0298 104.675 32.0298 104.753 32.0298C104.742 32.0188 104.742 32.0188 104.73 32.0078C104.742 32.0188 104.742 32.0188 104.742 32.0188C104.73 32.0078 104.742 32.0078 104.742 32.0298C104.753 32.0958 104.719 32.1398 104.631 32.1728C104.598 32.1618 104.576 32.1618 104.542 32.1508C104.498 32.1288 104.509 32.0628 104.52 32.0298C104.531 32.0188 104.52 32.0188 104.509 32.0408C104.52 32.0298 104.52 32.0298 104.509 32.0408C104.432 32.0958 104.399 32.1838 104.454 32.2718C104.498 32.3378 104.609 32.3818 104.686 32.3268C104.764 32.2718 104.841 32.1948 104.852 32.0848C104.852 31.9638 104.764 31.8537 104.642 31.8537C104.52 31.8537 104.432 31.9308 104.421 32.0518C104.41 32.1398 104.465 32.2168 104.52 32.2718C104.587 32.3378 104.686 32.3268 104.753 32.2718C104.896 32.1618 104.93 31.9308 104.764 31.8207C104.686 31.7767 104.587 31.7657 104.509 31.8097C104.41 31.8647 104.399 31.9968 104.421 32.0958C104.432 32.1838 104.542 32.2278 104.62 32.2058C104.708 32.1728 104.742 32.0848 104.73 31.9968Z" fill="white"/>
<path d="M102.961 32.338C102.64 32.525 102.208 32.437 101.998 32.129C101.876 31.953 101.589 32.118 101.711 32.294C102.031 32.745 102.64 32.899 103.138 32.624C103.315 32.514 103.149 32.228 102.961 32.338Z" fill="white"/>
<path d="M102.717 33.0528C102.474 33.2398 102.264 33.4818 102.12 33.7568C102.02 33.9438 102.308 34.1088 102.407 33.9218C102.54 33.6688 102.728 33.4598 102.961 33.2838C103.027 33.2288 103.016 33.1078 102.961 33.0528C102.883 32.9868 102.784 32.9978 102.717 33.0528Z" fill="white"/>
<path d="M105.405 31.8428C105.626 31.5898 105.792 31.3038 105.903 30.9848C105.969 30.7868 105.649 30.6988 105.582 30.8968C105.494 31.1608 105.35 31.4028 105.173 31.6118C105.04 31.7768 105.272 32.0078 105.405 31.8428Z" fill="white"/>
<path d="M105.427 32.2609C105.693 32.2059 106.003 32.1399 106.213 32.3599C106.357 32.5139 106.589 32.2829 106.445 32.1289C106.147 31.8099 105.715 31.8649 105.328 31.9529C105.129 31.9859 105.217 32.3049 105.427 32.2609Z" fill="white"/>
<path d="M87.7608 26.0787C88.2696 25.2867 89.4754 25.7597 90.0839 26.1557C90.814 26.6177 91.3671 27.3107 91.8649 28.0037C92.8716 29.4007 93.7677 30.9187 94.0995 32.6237C94.1438 32.8327 94.4646 32.7447 94.4204 32.5357C94.0332 30.5007 92.8384 28.5427 91.4888 26.9807C90.7034 26.0787 88.4798 24.3737 87.4731 25.9247C87.3625 26.0897 87.6501 26.2657 87.7608 26.0787Z" fill="#161616"/>
<path d="M88.4465 26.8269C91.1015 28.3119 92.5949 31.0948 93.3472 33.9328C93.4025 34.1418 93.7233 34.0538 93.668 33.8448C92.8936 30.9298 91.3338 28.0589 88.6124 26.5409C88.4244 26.4309 88.2584 26.7169 88.4465 26.8269Z" fill="#161616"/>
<path d="M94.4204 32.4806C94.6969 30.5336 95.947 28.9056 97.6617 27.9706C98.5467 27.4866 99.5313 27.1896 100.538 27.0466C101.014 26.9806 101.567 26.9146 102.031 27.0906C102.54 27.2776 103.027 28.0806 102.385 28.4436C102.197 28.5426 102.363 28.8286 102.551 28.7296C103.259 28.3336 103.082 27.3216 102.463 26.9366C101.5 26.3316 99.9074 26.7606 98.9228 27.0906C96.4891 27.8716 94.4757 29.8296 94.1106 32.4146C94.0664 32.6016 94.3872 32.6896 94.4204 32.4806Z" fill="#161616"/>
<path d="M95.1613 32.9759C95.7034 32.3489 96.3893 31.8209 97.053 31.3259C97.6946 30.8419 98.3805 30.4459 99.177 30.2699C99.3872 30.2259 99.2987 29.9069 99.0885 29.9509C98.2699 30.1379 97.5508 30.5449 96.8871 31.0399C96.2012 31.5569 95.4932 32.0959 94.929 32.7449C94.7852 32.8989 95.0175 33.1409 95.1613 32.9759Z" fill="#161616"/>
<path d="M99.2213 30.3025C99.4536 29.7745 99.7523 29.2685 100.117 28.8175C100.184 28.7405 100.261 28.6085 100.35 28.5535C100.427 28.4105 100.527 28.3995 100.67 28.5315C100.847 28.5315 100.925 28.5975 100.925 28.7515C101.047 28.9825 101.058 29.3785 101.102 29.6425C101.146 29.8515 101.467 29.7635 101.423 29.5545C101.334 29.1365 101.224 27.6405 100.427 28.0475C100.117 28.2015 99.8851 28.5865 99.6859 28.8505C99.3873 29.2575 99.1439 29.6865 98.9337 30.1375C98.8452 30.3245 99.1328 30.5005 99.2213 30.3025Z" fill="#161616"/>
<path d="M101.357 29.7418C101.921 29.0157 103.071 28.0147 104.056 28.5537C104.244 28.6527 104.41 28.3667 104.222 28.2677C103.082 27.6627 101.799 28.6527 101.113 29.5107C100.992 29.6758 101.224 29.9068 101.357 29.7418Z" fill="#161616"/>
<path d="M104.377 28.4987C104.532 28.2567 105.251 27.3877 105.561 27.6187C105.726 27.7397 105.76 28.1687 105.804 28.3667C105.87 28.6747 105.892 28.9827 105.903 29.3017C105.915 29.5107 106.246 29.5107 106.235 29.3017C106.224 28.8617 106.169 28.4327 106.058 28.0037C105.992 27.7617 105.937 27.2997 105.649 27.2227C105.384 27.1567 105.018 27.4097 104.819 27.5527C104.521 27.7617 104.288 28.0257 104.1 28.3337C103.979 28.5097 104.266 28.6747 104.377 28.4987Z" fill="#161616"/>
<path d="M95.5932 32.4366C96.3565 33.1736 97.1641 33.8556 98.027 34.4716C98.8788 35.0766 99.7085 35.5056 100.782 35.4506C100.992 35.4396 100.992 35.1096 100.782 35.1206C99.6863 35.1756 98.8788 34.6916 98.027 34.0756C97.2415 33.5036 96.5114 32.8766 95.8145 32.2056C95.6706 32.0626 95.4383 32.2936 95.5932 32.4366Z" fill="#161616"/>
<path d="M93.3583 33.5699C94.5641 38.8939 91.4223 44.7129 94.022 49.8059C94.5088 50.7629 95.25 51.6319 96.2677 52.0609C97.2633 52.4789 98.4139 52.4459 99.4427 52.1159C101.722 51.3899 103.193 49.2889 104.321 47.3089C105.04 46.0659 105.638 44.7349 105.992 43.3379C106.169 42.6449 106.279 41.9189 106.313 41.2039C106.346 40.3789 106.235 39.5539 106.268 38.7289C106.279 38.5199 105.947 38.5199 105.936 38.7289C105.892 40.0709 106.069 41.3469 105.804 42.6779C105.571 43.8659 105.14 45.0209 104.598 46.0989C103.591 48.1229 102.23 50.3999 100.14 51.4669C99.0555 52.0169 97.7169 52.2259 96.5554 51.7969C95.4159 51.3789 94.6637 50.3779 94.1769 49.3109C93.137 46.9899 93.2587 44.3499 93.5353 41.8859C93.845 39.0919 94.3318 36.2649 93.7012 33.4709C93.6238 33.2839 93.303 33.3609 93.3583 33.5699Z" fill="#161616"/>
<path d="M98.281 44.5806C97.6615 45.6586 97.2522 46.8246 97.0752 48.0566C97.042 48.2656 97.3628 48.3536 97.396 48.1446C97.573 46.9346 97.9602 45.8016 98.5686 44.7456C98.6792 44.5696 98.3916 44.4046 98.281 44.5806Z" fill="#161616"/>
<path d="M98.4911 44.7018C100.128 44.5588 101.854 44.2508 103.491 44.4268C103.702 44.4488 103.702 44.1188 103.491 44.0968C101.854 43.9098 100.128 44.2288 98.4911 44.3718C98.2809 44.3938 98.2809 44.7238 98.4911 44.7018Z" fill="#161616"/>
<path d="M97.2412 48.3537C98.0488 48.8267 98.9891 48.7827 99.8962 48.7607C100.848 48.7277 101.799 48.6177 102.629 48.1228C102.817 48.0128 102.64 47.7268 102.463 47.8368C101.677 48.3097 100.792 48.3978 99.8962 48.4307C99.0554 48.4637 98.1704 48.5187 97.4071 48.0788C97.2301 47.9688 97.0642 48.2547 97.2412 48.3537Z" fill="#161616"/>
<path d="M103.337 44.35C103.127 45.56 102.806 46.726 102.374 47.87C102.297 48.068 102.618 48.156 102.695 47.958C103.138 46.814 103.458 45.637 103.658 44.438C103.691 44.229 103.37 44.141 103.337 44.35Z" fill="#161616"/>
<path d="M98.1925 45.1528C98.7346 46.3408 100.272 46.6378 101.456 46.6488C101.666 46.6488 101.666 46.3188 101.456 46.3188C100.394 46.2968 98.9669 46.0548 98.4801 44.9768C98.3916 44.7898 98.104 44.9658 98.1925 45.1528Z" fill="#161616"/>
<path d="M100.582 46.2197C100.549 46.4947 100.516 46.7697 100.483 47.0337C100.46 47.2427 100.792 47.2427 100.814 47.0337C100.848 46.7587 100.881 46.4837 100.914 46.2197C100.936 46.0107 100.604 46.0107 100.582 46.2197Z" fill="#161616"/>
<path d="M101.213 46.2197C101.179 46.4947 101.146 46.7697 101.124 47.0447C101.102 47.2538 101.434 47.2538 101.456 47.0447C101.489 46.7697 101.522 46.4947 101.544 46.2197C101.567 46.0107 101.235 46.0107 101.213 46.2197Z" fill="#161616"/>
<path d="M101.5 46.6815C102.286 46.5055 102.938 46.0215 103.348 45.3395C103.458 45.1525 103.171 44.9875 103.06 45.1745C102.684 45.7905 102.109 46.1975 101.412 46.3625C101.201 46.4175 101.29 46.7365 101.5 46.6815Z" fill="#161616"/>
<path d="M99.0779 29.7089C98.746 31.6559 99.1111 33.9769 101.113 34.8679C101.301 34.9559 101.478 34.6699 101.279 34.5819C99.4098 33.7459 99.089 31.6009 99.3987 29.7969C99.4319 29.5879 99.1111 29.4999 99.0779 29.7089Z" fill="#161616"/>
<path d="M105.881 29.1806C105.903 29.8076 105.892 30.4456 105.981 31.0616C106.069 31.7326 106.678 32.4806 106.357 33.1516C106.268 33.3386 106.556 33.5146 106.644 33.3166C106.932 32.7116 106.678 32.2056 106.467 31.6116C106.191 30.8526 106.257 29.9726 106.224 29.1696C106.202 28.9606 105.87 28.9606 105.881 29.1806Z" fill="#161616"/>
<path d="M102.02 34.637C102.507 34.384 103.06 34.648 103.171 35.176C103.182 35.231 103.259 35.209 103.248 35.154C103.115 34.571 102.507 34.285 101.976 34.56C101.932 34.593 101.976 34.67 102.02 34.637Z" fill="white"/>
<path d="M102.861 35.1976C102.938 35.2856 102.994 35.3846 103.027 35.4946C103.049 35.5496 103.126 35.5276 103.104 35.4726C103.06 35.3516 102.994 35.2416 102.916 35.1426C102.883 35.0986 102.817 35.1646 102.861 35.1976Z" fill="white"/>
<path d="M105.084 34.4279C105.184 33.9769 105.472 33.6029 105.892 33.3939C105.936 33.3719 105.903 33.2949 105.848 33.3279C105.405 33.5369 105.106 33.9329 105.007 34.4059C104.996 34.4609 105.073 34.4829 105.084 34.4279Z" fill="white"/>
<path d="M85.6033 11.1075C84.84 11.4925 84.1984 12.2185 83.9108 12.5375C83.2028 13.3405 82.8377 14.0885 82.4395 14.9245C82.1076 15.6065 81.7204 16.5745 81.4106 17.7845C81.8421 17.8615 82.2735 17.9275 82.705 18.0045C82.6828 18.4225 82.6828 19.0385 82.8488 19.7645C83.0036 20.4245 83.2581 21.4805 84.1431 22.2175C85.36 23.2515 86.9751 22.9985 87.2738 22.9545C87.2959 23.4715 87.4065 24.2085 87.8269 24.9675C87.9375 25.1545 88.0481 25.3305 88.1588 25.4845C88.7672 25.3085 89.7075 24.9455 90.6257 24.1975C92.9709 22.3165 93.2918 19.5115 93.3913 18.6975C93.5351 17.4435 93.8117 15.0785 92.2519 13.1205C90.6257 11.0965 87.5393 10.1395 85.6033 11.1075Z" fill="white"/>
<path d="M83.3357 13.3957C83.6454 12.9337 84.2428 12.2517 84.9176 11.7787C86.0017 11.0197 86.4885 11.3387 87.0416 10.6677C87.4398 10.1837 87.6943 9.39166 87.3956 9.01766C86.9199 8.42366 85.2273 9.13866 85.0061 9.23766C84.5193 9.44666 82.9153 10.1177 82.2737 11.8117C81.7427 13.2307 82.0967 14.7817 82.34 14.8147C82.4064 14.8257 82.4507 14.7157 82.8047 14.1767C82.9706 13.9017 83.1587 13.6487 83.3357 13.3957Z" fill="#FEA300"/>
<path d="M85.7472 10.0845C85.6587 10.3705 85.5259 10.9425 85.9684 12.0645C86.7538 14.0775 88.5902 15.8816 89.5084 15.5516C89.7075 15.4746 89.9177 15.2766 90.316 15.2546C90.4155 15.2546 90.8138 15.2326 91.1235 15.4746C91.6103 15.8596 91.6324 16.6956 91.3116 17.2346C91.2563 17.3336 90.9576 17.7846 90.504 17.8176C90.1058 17.8506 89.973 17.5426 89.6522 17.5206C88.8668 17.4766 88.192 19.1926 88.1035 19.4236C87.9265 19.8636 87.495 21.0076 87.8048 22.4706C87.8712 22.7896 88.026 23.4606 88.5017 24.1536C89.5305 25.6386 91.2563 26.0016 91.8979 26.1336C92.5285 26.2656 94.929 26.7606 96.7986 25.2206C97.0973 24.9786 98.0818 24.1426 98.3473 22.7236C98.8009 20.3256 96.7765 18.5326 96.6548 18.4336C96.5663 17.1906 96.2676 15.2106 95.2167 13.0436C94.5529 11.6685 93.9334 10.4035 92.5285 9.44655C90.681 8.20355 87.9928 7.85155 86.5879 8.92955C86.4441 9.06155 85.9684 9.43555 85.7472 10.0845Z" fill="#FEA300"/>
<path d="M83.6452 21.8877C83.4793 22.0527 82.9926 22.5587 82.9041 23.3507C82.7824 24.4507 83.5236 25.2097 83.6784 25.3637C84.486 26.1887 85.8356 26.5187 86.8091 26.0237C86.8866 25.9907 87.7384 25.5397 87.7716 24.8907C87.7826 24.6047 87.6277 24.4617 87.4065 23.8237C87.2627 23.4057 87.1742 23.0647 87.1078 22.8337C86.8091 22.9327 86.3002 23.0647 85.6697 22.9767C84.5413 22.8337 83.8444 22.1077 83.6452 21.8877Z" fill="#FEA300"/>
<path opacity="0.12" d="M85.8579 11.0527C85.869 11.3937 85.9132 11.8997 86.1455 12.4387C86.3004 12.8017 86.4553 13.0217 86.577 13.1977C87.0416 13.9017 87.1965 14.5617 87.4398 15.2987C87.827 16.4427 87.7607 17.3997 87.6832 18.5877C87.6168 19.5777 87.3956 21.0847 86.6765 22.8337C86.9752 22.9217 87.4067 23.0977 87.8713 23.4057C88.7231 23.9777 89.1103 24.6597 89.3536 24.9787C89.8515 25.6277 90.9577 26.3097 93.6238 26.2657C93.3583 26.0017 92.9821 25.6057 92.5728 25.1217C91.6104 23.9997 90.7696 23.0207 90.2718 21.8327C89.9842 21.1507 89.5417 19.7537 89.8847 17.7297C90.1944 17.8837 90.5595 17.8727 90.8471 17.6857C91.1458 17.4877 91.3338 17.0917 91.2343 16.7287C91.1126 16.3107 90.6037 16.0247 90.0838 16.1567C89.9731 15.8817 89.7961 15.4857 89.5085 15.0567C89.055 14.3857 88.5793 13.9677 88.4023 13.8137C87.8381 13.3297 87.0195 12.5047 85.8579 11.0527Z" fill="#606060"/>
<path opacity="0.14" d="M81.5322 17.5867C81.5433 17.4107 82.1075 17.2677 82.5831 17.3007C83.0035 17.3337 83.5013 17.5207 83.4902 17.6857C83.4792 17.8397 83.0146 17.9607 82.6716 17.9717C82.1407 17.9937 81.5322 17.7627 81.5322 17.5867Z" fill="#606060"/>
<path d="M82.9041 13.4947C82.2736 14.8697 81.7094 16.2667 81.2226 17.6967C81.1894 17.7847 81.2558 17.8727 81.3333 17.8947C81.7647 18.0597 82.1961 18.1367 82.6497 18.1257C82.8599 18.1257 82.8599 17.7957 82.6497 17.7957C82.2182 17.7957 81.82 17.7187 81.4218 17.5757C81.4549 17.6417 81.4992 17.7077 81.5324 17.7737C82.0081 16.3657 82.5501 14.9907 83.1807 13.6487C83.2802 13.4727 82.9926 13.2967 82.9041 13.4947Z" fill="#161616"/>
<path d="M82.6053 18.1914C82.6938 19.6104 82.8265 21.1834 83.8885 22.2504C84.9063 23.2844 86.3776 23.1964 87.7161 23.0424C87.9263 23.0204 87.9263 22.6904 87.7161 22.7124C86.4771 22.8554 85.0722 22.9764 84.1208 22.0194C83.1252 21.0184 83.0256 19.5224 82.9371 18.1914C82.9261 17.9824 82.5942 17.9824 82.6053 18.1914Z" fill="#161616"/>
<path d="M87.0634 23.0757C87.2073 23.8457 87.4728 24.5827 87.8489 25.2647C87.9484 25.4517 88.2361 25.2867 88.1365 25.0997C87.7714 24.4287 87.5281 23.7357 87.3842 22.9877C87.3511 22.7787 87.0303 22.8667 87.0634 23.0757Z" fill="#161616"/>
<path d="M82.8268 19.8747C83.3689 20.3477 84.1765 20.1277 84.3866 19.4347C84.453 19.2257 84.1322 19.1487 84.0658 19.3467C83.9331 19.7867 83.4131 19.9517 83.0702 19.6327C82.9043 19.5007 82.6719 19.7317 82.8268 19.8747Z" fill="#161616"/>
<path d="M83.8447 19.4235C84.0217 19.4675 84.1544 19.5665 84.265 19.6985C84.3204 19.7645 84.442 19.7535 84.4974 19.6985C84.5637 19.6325 84.5527 19.5335 84.4974 19.4675C84.3535 19.2915 84.1544 19.1595 83.9332 19.1045C83.734 19.0495 83.6455 19.3685 83.8447 19.4235Z" fill="#161616"/>
<path d="M84.3423 15.3094C84.4308 14.8474 85.006 14.9354 85.3158 15.1004C85.5813 15.2434 85.7693 15.4744 85.88 15.7494C85.9574 15.9474 86.2782 15.8594 86.2008 15.6614C86.0238 15.1884 85.6587 14.8144 85.1498 14.6824C84.6852 14.5614 84.1321 14.7044 84.0325 15.2214C83.9883 15.4304 84.3091 15.5184 84.3423 15.3094Z" fill="#161616"/>
<path d="M84.3311 13.3627C84.8289 12.5377 85.8024 13.1757 86.0015 13.8687C86.0568 14.0777 86.3776 13.9897 86.3223 13.7807C86.1785 13.2747 85.8245 12.8017 85.2824 12.6697C84.7957 12.5597 84.2979 12.7687 84.0434 13.1867C83.9328 13.3847 84.2204 13.5497 84.3311 13.3627Z" fill="#161616"/>
<path d="M84.6633 17.1796C84.8735 17.1796 84.8735 16.8496 84.6633 16.8496C84.4531 16.8496 84.442 17.1796 84.6633 17.1796Z" fill="#161616"/>
<path d="M85.2934 16.6845C85.3045 16.6845 85.3266 16.6845 85.3376 16.6845C85.4261 16.6845 85.5036 16.6075 85.5036 16.5195C85.5036 16.4315 85.4261 16.3545 85.3376 16.3545C85.3266 16.3545 85.3045 16.3545 85.2934 16.3545C85.2049 16.3545 85.1274 16.4315 85.1274 16.5195C85.1274 16.6185 85.2049 16.6845 85.2934 16.6845Z" fill="#161616"/>
<path d="M85.3047 17.2456C85.3047 17.2566 85.3047 17.2676 85.3047 17.2786C85.3047 17.4876 85.6366 17.4876 85.6366 17.2786C85.6366 17.2676 85.6366 17.2566 85.6366 17.2456C85.6366 17.0366 85.3047 17.0366 85.3047 17.2456C85.3047 17.2566 85.3047 17.2676 85.3047 17.2786C85.3047 17.4876 85.6366 17.4876 85.6366 17.2786C85.6366 17.2676 85.6366 17.2566 85.6366 17.2456C85.6366 17.0366 85.3047 17.0366 85.3047 17.2456Z" fill="#161616"/>
<path d="M90.1279 15.5625C90.4266 15.1335 90.9354 15.4085 91.1124 15.7605C91.2563 16.0355 91.2563 16.3655 91.2452 16.6625C91.2009 17.4105 90.5704 17.9385 89.8402 17.4765C89.6632 17.3555 89.4973 17.6415 89.6743 17.7625C90.1057 18.0485 90.6589 18.0815 91.0903 17.7515C91.5328 17.4105 91.6103 16.8495 91.5771 16.3215C91.5439 15.8155 91.3448 15.2545 90.8138 15.0675C90.4376 14.9355 90.0615 15.0785 89.8402 15.3975C89.7296 15.5625 90.0172 15.7275 90.1279 15.5625Z" fill="#161616"/>
<path d="M60.3698 9.28179C60.1375 9.28179 59.9052 9.29279 59.6839 9.29279C59.3078 10.0188 59.0976 10.6788 58.9759 11.1628C58.6219 12.5818 58.7104 13.7588 58.7768 14.3308C58.821 14.7158 58.8874 15.0348 58.9427 15.2548C59.1418 15.2548 59.341 15.2548 59.5401 15.2548C59.6175 15.5188 59.695 15.7828 59.7724 16.0468C61.642 16.0358 63.1797 16.0358 64.2527 16.0468C70.7575 16.1018 75.2931 16.3548 76.344 16.4098C77.6605 16.4868 78.7335 16.5638 79.3973 16.6078C79.4194 16.2008 79.5301 16.0578 79.6296 16.0138C79.8066 15.9368 79.9615 16.1238 80.1938 16.0798C80.4372 16.0358 80.5921 15.7828 80.6916 15.5518C80.8907 15.6508 81.2558 15.7828 81.6872 15.7168C81.7868 15.7058 81.8753 15.6728 81.9527 15.6508C82.1408 15.2768 82.3289 14.9028 82.5169 14.5288C82.2514 14.4408 81.8753 14.3638 81.4217 14.3638C81.1673 14.3638 80.9461 14.3968 80.758 14.4298C80.7359 14.3748 80.5589 13.8798 80.0942 13.7698C79.9504 13.7368 79.8287 13.7478 79.7292 13.7698C79.6628 13.6488 79.5964 13.5278 79.5301 13.4068C79.2646 13.3628 78.8552 13.2968 78.3685 13.2088C74.4192 12.4938 71.6646 11.6248 69.5627 10.9978C67.5494 10.3928 64.6178 9.56779 60.8565 8.65479C60.7017 8.86379 60.5357 9.07279 60.3698 9.28179Z" fill="white"/>
<path opacity="0.07" d="M58.81 13.5496C58.9095 13.5276 59.0202 13.7806 59.1419 13.7476C59.341 13.7036 59.2967 13.0106 59.341 12.4936C59.3742 11.9986 59.518 11.2836 60.0047 10.4146C60.3255 10.5466 60.8123 10.7556 61.3986 11.0086C63.5115 11.9216 64.9718 12.6256 65.4143 12.8236C68.3348 14.1766 71.5429 14.7816 72.3505 14.9356C74.1869 15.2876 76.7312 15.5956 79.7845 15.4636C79.6517 15.8266 79.519 16.1896 79.3862 16.5526C78.8773 16.5416 78.1362 16.5416 77.229 16.5196C73.335 16.4426 70.6137 16.3216 69.0538 16.2556C66.8524 16.1676 63.6996 16.0796 59.7171 16.0906C59.6729 15.7936 59.6286 15.4966 59.5844 15.1996C59.3299 15.2436 59.0755 15.2876 58.821 15.3316C58.6551 13.9566 58.6994 13.5716 58.81 13.5496Z" fill="#606060"/>
<path d="M60.6021 8.66576C59.2193 10.7888 58.8321 13.4288 59.5401 15.8598C59.5954 16.0688 59.9162 15.9808 59.8609 15.7718C59.175 13.4178 59.5511 10.8878 60.8897 8.83076C61.0114 8.64376 60.7238 8.47876 60.6021 8.66576Z" fill="#161616"/>
<path d="M60.8896 8.98453C67.1178 10.5465 73.3349 12.1085 79.5631 13.6595C79.7733 13.7145 79.8618 13.3955 79.6516 13.3405C73.4234 11.7785 67.2063 10.2165 60.9781 8.66553C60.779 8.61053 60.6905 8.92953 60.8896 8.98453Z" fill="#161616"/>
<path d="M59.7724 16.2227C66.2661 16.1677 72.7598 16.3217 79.2424 16.6737C79.4526 16.6847 79.4526 16.3547 79.2424 16.3437C72.7598 15.9917 66.2661 15.8377 59.7724 15.8927C59.5622 15.8927 59.5622 16.2227 59.7724 16.2227Z" fill="#161616"/>
<path d="M79.4639 13.5388C79.9064 14.5178 79.8068 15.6288 79.1983 16.5198C79.0767 16.6958 79.3643 16.8608 79.486 16.6848C80.1608 15.6948 80.2493 14.4628 79.7515 13.3738C79.663 13.1868 79.3754 13.3518 79.4639 13.5388Z" fill="#161616"/>
<path d="M79.7957 13.9677C79.9173 14.0557 80.0058 14.0227 80.1497 14.0557C80.4262 14.1327 80.5369 14.3857 80.5922 14.6497C80.6807 15.1337 80.559 16.1567 79.8399 15.8707C79.6408 15.7937 79.5523 16.1127 79.7514 16.1897C80.4815 16.4757 80.9572 15.7167 80.9572 15.0787C80.9572 14.7267 80.913 14.3307 80.7139 14.0337C80.6475 13.9347 80.559 13.8357 80.4484 13.7807C80.3045 13.7147 80.1054 13.7587 79.9837 13.6707C79.7846 13.5607 79.6187 13.8467 79.7957 13.9677Z" fill="#161616"/>
<path d="M80.769 14.5727C81.3331 14.5397 81.8973 14.5507 82.4504 14.6277C82.6606 14.6497 82.6606 14.3197 82.4504 14.2977C81.8863 14.2317 81.3331 14.2097 80.769 14.2427C80.5588 14.2647 80.5588 14.5947 80.769 14.5727Z" fill="#161616"/>
<path d="M80.7247 15.7829C81.1782 15.8599 81.6318 15.8929 82.0854 15.8489C82.2956 15.8269 82.2956 15.4969 82.0854 15.5189C81.6539 15.5519 81.2336 15.5409 80.8132 15.4639C80.603 15.4309 80.5145 15.7389 80.7247 15.7829Z" fill="#161616"/>
<path d="M60.4141 9.19378C59.341 8.57778 59.0423 10.5028 58.8985 11.1078C58.5666 12.5048 58.4118 13.9458 58.8211 15.3428C58.8432 15.4088 58.9096 15.4638 58.976 15.4638C59.1198 15.4638 59.2746 15.4638 59.4185 15.4638C59.6286 15.4638 59.6286 15.1338 59.4185 15.1338C59.2746 15.1338 59.1198 15.1338 58.976 15.1338C59.0313 15.1778 59.0866 15.2108 59.1308 15.2548C58.8432 14.2428 58.8432 13.2198 59.0091 12.1858C59.0866 11.7238 59.1861 11.2618 59.3078 10.8108C59.3853 10.5138 59.6286 9.11678 60.2371 9.47978C60.4362 9.58978 60.6021 9.30378 60.4141 9.19378Z" fill="#161616"/>
<path d="M72.3725 11.5587C72.1734 11.3167 71.8415 11.3497 71.7972 11.3497C71.4322 11.3717 71.0782 11.7017 70.691 12.5047C69.9387 14.0337 69.9056 15.5627 69.9056 15.8047C69.8945 16.8607 69.9941 18.5767 70.7463 20.6227C70.8127 21.4807 70.9565 22.6797 71.2773 24.0767C71.8415 26.5847 72.4389 29.2247 74.4965 31.5677C75.2709 32.4587 76.7975 34.1857 79.4525 34.8127C82.2292 35.4727 84.4859 34.4937 85.039 34.2407C85.5258 34.0097 86.8865 33.3277 88.037 31.8867C88.7339 31.0177 89.5415 30.0717 89.4087 28.9057C89.3534 28.3997 89.1322 27.9707 88.8003 27.2887C88.4684 26.6067 88.2914 26.2657 87.9374 26.1337C87.4507 25.9467 86.9307 26.2767 86.3555 26.6067C85.382 27.1567 85.2935 27.6847 84.2426 28.2347C83.966 28.3777 83.6894 28.4767 83.1363 28.6527C82.2624 28.9387 81.3995 29.2247 80.603 29.2797C78.8662 29.4007 77.4723 28.4107 77.0741 28.1247C75.6027 27.0797 75.0275 25.6827 74.6514 24.7697C73.8106 22.7237 73.877 20.8427 74.0208 19.7427C74.5407 19.6547 74.8616 19.4457 75.0164 19.3247C75.6027 18.8737 75.7466 18.2467 75.9678 17.2787C76.1116 16.6737 76.178 16.3547 76.0231 16.2337C75.7023 15.9917 74.7177 16.7837 74.4965 16.9707C74.5407 16.2227 74.6514 15.6177 74.762 15.1887C74.9058 14.6167 74.9832 14.3197 75.1824 14.0887C75.5696 13.6377 76.0231 13.6817 76.178 13.2527C76.2665 13.0217 76.2554 12.7027 76.0674 12.5157C75.8461 12.2957 75.3704 12.3067 74.9611 12.6257C74.8284 12.3397 74.5629 12.1637 74.2752 12.1527C73.9876 12.1417 73.7996 12.3177 73.7442 12.3617C73.7774 12.0647 73.6447 11.7897 73.4234 11.6797C73.1247 11.5257 72.6491 11.7017 72.4721 12.1527C72.4831 12.0977 72.5606 11.7897 72.3725 11.5587Z" fill="white"/>
<path opacity="0.12" d="M71.7973 11.3496C71.5318 11.8116 71.1999 12.4936 70.9787 13.3846C70.4919 15.3206 70.8902 16.9376 71.0672 17.7186C72.9699 25.7816 72.1402 25.9796 73.4677 27.8716C73.9545 28.5536 77.2954 33.1296 82.2735 32.5246C86.444 32.0186 88.6565 28.2456 88.9442 27.7396C89.1101 28.1796 89.3092 28.9276 89.1765 29.8186C88.9774 31.1276 88.1587 31.9526 87.86 32.2606C87.5724 32.5466 87.2184 32.7996 86.4994 33.2946C85.8577 33.7456 85.2272 34.1416 84.9506 34.2846C83.6342 35.0216 81.5987 35.1976 80.1827 35.0106C76.3329 34.5046 74.0209 30.8746 73.0584 29.3676C70.857 25.9246 70.6357 22.4376 70.6579 20.6996C70.4477 19.9956 70.2375 19.2806 70.0273 18.5766C69.8835 17.4876 69.8724 16.5856 69.8946 15.9586C69.9499 14.3856 69.9941 13.2086 70.8017 12.2076C71.1557 11.7676 71.5429 11.5036 71.7973 11.3496Z" fill="#606060"/>
<path d="M86.7762 33.1297C88.5241 32.3047 89.6967 30.5777 89.4091 28.6197C89.2432 27.4317 88.2808 25.3857 86.7431 26.1117C86.0572 26.4417 85.493 27.0467 84.8624 27.4757C83.9885 28.0697 82.9818 28.5317 81.9751 28.8507C80.6919 29.2577 79.2648 29.3457 78.0258 28.7297C77.1187 28.2787 76.4107 27.5417 75.8686 26.7057C74.6739 24.8687 74.0544 22.7017 74.1982 20.5127C74.2093 20.3037 73.8774 20.3037 73.8663 20.5127C73.7446 22.3607 74.1539 24.1207 74.9726 25.7707C75.6916 27.2447 76.7426 28.6307 78.3356 29.2247C80.2715 29.9397 82.3844 29.2137 84.1323 28.3007C84.9178 27.8827 85.5926 27.3437 86.3006 26.8047C86.9422 26.3097 87.5838 26.0677 88.2365 26.7277C89.0441 27.5417 89.2874 28.9607 89.0441 30.0387C88.7454 31.3257 87.7829 32.2937 86.6103 32.8437C86.4222 32.9317 86.5882 33.2177 86.7762 33.1297Z" fill="#161616"/>
<path d="M74.1759 20.6555C74.032 20.0505 74.4635 19.8965 74.8617 19.6105C75.094 19.4455 75.271 19.2145 75.437 18.9835C75.8574 18.3785 76.1892 17.6745 76.2777 16.9375C76.322 16.5745 76.3994 16.0025 75.9016 15.9805C75.3153 15.9585 75.0719 16.6955 74.5188 16.7505C74.3086 16.7725 74.3086 17.1025 74.5188 17.0805C74.9392 17.0365 75.1494 16.7725 75.4702 16.5305C75.6582 16.3875 75.8684 16.2225 75.968 16.5415C76.0233 16.7175 75.9348 17.0475 75.8906 17.2235C75.8131 17.5975 75.6472 17.9605 75.4702 18.3015C75.3042 18.6095 75.1162 18.9285 74.8617 19.1815C74.6294 19.4235 74.3086 19.4785 74.0542 19.6765C73.7112 19.9405 73.7665 20.3915 73.855 20.7545C73.9104 20.9525 74.2312 20.8645 74.1759 20.6555Z" fill="#161616"/>
<path d="M70.3151 18.9176C70.0938 17.4986 70.0717 16.0466 70.293 14.6276C70.3815 14.0556 70.4921 13.4726 70.6912 12.9226C70.8129 12.5816 70.9788 12.1856 71.2222 11.9106C71.5541 11.5476 72.2068 11.3606 72.3838 11.9766C72.4391 12.1856 72.7599 12.0976 72.7046 11.8886C72.5497 11.3606 72.0408 11.0746 71.5098 11.2836C70.835 11.5586 70.5142 12.3836 70.304 13.0106C69.6845 14.9136 69.6845 17.0476 69.9832 19.0056C70.0275 19.2146 70.3483 19.1266 70.3151 18.9176Z" fill="#161616"/>
<path d="M71.9192 13.2414C72.1847 12.5924 72.937 11.2834 73.7556 12.1744C73.8994 12.3284 74.1317 12.0974 73.9879 11.9434C73.6118 11.5364 73.0697 11.4704 72.594 11.7454C72.063 12.0424 71.8196 12.6254 71.5984 13.1644C71.521 13.3514 71.8418 13.4394 71.9192 13.2414Z" fill="#161616"/>
<path d="M73.3131 13.5167C73.3242 13.0987 73.4901 12.6367 73.8994 12.4387C74.2423 12.2737 74.6517 12.3507 74.884 12.6477C75.0167 12.8127 75.249 12.5817 75.1163 12.4167C74.7955 12.0207 74.2202 11.9217 73.7667 12.1307C73.2357 12.3837 72.9923 12.9557 72.9812 13.5167C72.9702 13.7257 73.302 13.7257 73.3131 13.5167Z" fill="#161616"/>
<path d="M74.2754 13.6266C74.4746 12.8896 75.3042 12.2186 76.0233 12.8126C76.1892 12.9446 76.4216 12.7136 76.2556 12.5816C75.3374 11.8336 74.2312 12.5376 73.9546 13.5386C73.8993 13.7476 74.2201 13.8356 74.2754 13.6266Z" fill="#161616"/>
<path d="M75.9568 12.7579C76.3108 13.2529 75.5254 13.5609 75.2488 13.7919C75.0165 13.9789 74.8838 14.2209 74.7842 14.4959C74.5187 15.2549 74.397 16.0799 74.3306 16.8719C74.3085 17.0809 74.6404 17.0809 74.6625 16.8719C74.7178 16.2889 74.8063 15.7059 74.9502 15.1339C74.9944 14.9469 75.0387 14.7599 75.105 14.5729C75.2488 14.1879 75.459 14.0449 75.7798 13.8139C76.1781 13.5279 76.5985 13.0659 76.2445 12.5709C76.1228 12.4169 75.8352 12.5819 75.9568 12.7579Z" fill="#161616"/>
<path d="M69.9055 18.5874C70.0825 19.3354 70.3038 20.0724 70.5804 20.7984C70.6578 20.9964 70.9786 20.9084 70.9012 20.7104C70.6246 19.9844 70.4034 19.2474 70.2264 18.4994C70.1821 18.2904 69.8613 18.3784 69.9055 18.5874Z" fill="#161616"/>
<path d="M70.5255 21.0075C70.9458 24.7915 71.8862 28.6745 74.4416 31.6225C76.4771 33.9655 79.7073 35.7475 82.8933 35.1645C84.3978 34.8895 85.7696 34.1415 86.8648 33.0965C87.0196 32.9535 86.7873 32.7115 86.6325 32.8655C84.4421 34.9555 81.3225 35.5055 78.5458 34.2625C75.5589 32.9095 73.4681 30.3685 72.2844 27.3655C71.4879 25.3305 71.0897 23.1745 70.8463 21.0185C70.8352 20.7985 70.5033 20.7985 70.5255 21.0075Z" fill="#161616"/>
</svg>
