<svg width="44" height="44" viewBox="0 0 44 44" fill="#272727" xmlns="http://www.w3.org/2000/svg">
<path d="M14.7071 12.2929C14.3166 11.9024 13.6834 11.9024 13.2929 12.2929C12.9024 12.6834 12.9024 13.3166 13.2929 13.7071L14.7071 12.2929ZM30.8 31.2142C31.1906 31.6048 31.8237 31.6048 32.2142 31.2142C32.6048 30.8237 32.6048 30.1906 32.2142 29.8L30.8 31.2142ZM13.2929 13.7071L30.8 31.2142L32.2142 29.8L14.7071 12.2929L13.2929 13.7071Z"/>
<path d="M13.2929 30.2929C12.9024 30.6834 12.9024 31.3166 13.2929 31.7071C13.6834 32.0976 14.3166 32.0976 14.7071 31.7071L13.2929 30.2929ZM32.8179 13.5963C33.2084 13.2058 33.2084 12.5726 32.8179 12.1821C32.4274 11.7916 31.7942 11.7916 31.4037 12.1821L32.8179 13.5963ZM14.7071 31.7071L32.8179 13.5963L31.4037 12.1821L13.2929 30.2929L14.7071 31.7071Z"/>
</svg>
