<svg width="25" height="24" viewBox="0 0 25 24" fill="#FEA300" xmlns="http://www.w3.org/2000/svg">
<path d="M17.6193 6.75H6.88068C6.28409 6.75 5.6875 7.33333 5.6875 7.91667V16.0833C5.6875 16.725 6.22443 17.25 6.88068 17.25H17.6193C18.2159 17.25 18.8125 16.6667 18.8125 16.0833V7.91667C18.8125 7.33333 18.2159 6.75 17.6193 6.75ZM8.44972 14.4442L9.93523 12.5775C9.96273 12.5431 9.99779 12.5151 10.0378 12.4957C10.0778 12.4763 10.1218 12.466 10.1665 12.4654C10.2111 12.4649 10.2554 12.4741 10.2959 12.4925C10.3364 12.5109 10.3722 12.5379 10.4006 12.5717L11.6534 14.0475L13.5028 11.72C13.6222 11.5683 13.8608 11.5683 13.9801 11.7258L16.0741 14.4558C16.1074 14.4992 16.1276 14.5507 16.1326 14.6046C16.1376 14.6586 16.1271 14.7128 16.1023 14.7613C16.0775 14.8097 16.0395 14.8505 15.9923 14.8789C15.9452 14.9074 15.8909 14.9225 15.8355 14.9225H8.68239C8.43778 14.9167 8.2946 14.6367 8.44972 14.4442Z" />
</svg>
