<svg width="151" height="26" viewBox="0 0 151 26" fill="#FEA300" xmlns="http://www.w3.org/2000/svg">
<path d="M37.8486 20.5716C35.9878 20.5716 34.4855 20.0817 33.3416 19.1021C32.2129 18.1071 31.6486 16.7524 31.6486 15.038H35.149C35.149 15.4207 35.2176 15.7651 35.3549 16.0713C35.5074 16.3621 35.7057 16.5993 35.9497 16.783C36.209 16.9667 36.4988 17.1045 36.8191 17.1963C37.1394 17.2882 37.4749 17.3341 37.8257 17.3341C38.5273 17.3341 39.1297 17.1657 39.6331 16.829C40.1516 16.4922 40.4109 16.033 40.4109 15.4513C40.4109 15.2064 40.3499 14.9921 40.2279 14.8084C40.1059 14.6094 39.961 14.4563 39.7932 14.3492C39.6407 14.2267 39.3967 14.1043 39.0611 13.9818C38.7408 13.8594 38.4663 13.7675 38.2375 13.7063C38.0087 13.6451 37.6656 13.5609 37.208 13.4537C36.8419 13.3619 36.5674 13.293 36.3844 13.2471C36.2014 13.2012 35.9268 13.1246 35.5608 13.0175C35.21 12.9103 34.9354 12.8185 34.7372 12.7419C34.5541 12.6501 34.3101 12.5276 34.0051 12.3746C33.7 12.2215 33.4636 12.0684 33.2958 11.9154C33.1281 11.7623 32.9374 11.5709 32.7239 11.3413C32.5256 11.1117 32.3731 10.8745 32.2663 10.6296C32.1596 10.3693 32.068 10.0785 31.9918 9.75704C31.9155 9.42029 31.8774 9.06822 31.8774 8.70085C31.8774 7.17013 32.396 5.98383 33.4331 5.14193C34.4702 4.30004 35.8887 3.87909 37.6884 3.87909C39.5034 3.87909 40.9142 4.33831 41.9209 5.25674C42.9428 6.17517 43.4537 7.43801 43.4537 9.04526H40.022C40.022 8.38705 39.7856 7.88957 39.3128 7.55281C38.8552 7.20075 38.2833 7.02471 37.5969 7.02471C36.9868 7.02471 36.453 7.15483 35.9954 7.41505C35.5531 7.67527 35.332 8.05029 35.332 8.54012C35.332 8.76973 35.3854 8.97638 35.4921 9.16006C35.6142 9.32844 35.7514 9.47386 35.9039 9.59632C36.0565 9.70347 36.2929 9.81827 36.6132 9.94073C36.9335 10.0479 37.2004 10.1321 37.4139 10.1933C37.6427 10.2392 37.9782 10.3158 38.4205 10.4229C38.9086 10.5454 39.2746 10.6449 39.5187 10.7214C39.7627 10.7826 40.1135 10.8974 40.5711 11.0658C41.0286 11.2189 41.3794 11.372 41.6235 11.525C41.8827 11.6781 42.1802 11.8847 42.5157 12.145C42.8512 12.3899 43.1029 12.6654 43.2707 12.9715C43.4537 13.2624 43.6062 13.6221 43.7282 14.0507C43.8655 14.464 43.9341 14.9156 43.9341 15.4054C43.9341 16.5228 43.652 17.4795 43.0877 18.2755C42.5233 19.0715 41.7912 19.6531 40.8914 20.0205C40.0067 20.3879 38.9925 20.5716 37.8486 20.5716Z"/>
<path d="M58.1218 20.2501H54.0723L50.1144 14.3262V20.2501H46.7742V3.37396H50.1144V13.3619L53.8207 7.8513H57.6871L53.5004 13.7522L58.1218 20.2501Z"/>
<path d="M59.6138 6.19813V3.07546H62.954V6.19813H59.6138ZM59.6138 20.2501V7.8513H62.954V20.2501H59.6138Z"/>
<path d="M66.16 20.2501V3.37396H69.5002V20.2501H66.16Z"/>
<path d="M72.7062 20.2501V3.37396H76.0464V20.2501H72.7062Z"/>
<path d="M89.3416 7.82834H91.8353V20.2271H89.2043L88.9298 19.125C87.8011 20.1047 86.4666 20.5945 84.9261 20.5945C83.0654 20.5945 81.5173 19.9746 80.2819 18.7347C79.0617 17.4795 78.4516 15.9105 78.4516 14.0277C78.4516 12.1603 79.0617 10.6066 80.2819 9.36671C81.5173 8.12683 83.0654 7.50689 84.9261 7.50689C86.4971 7.50689 87.8469 8.01203 88.9755 9.0223L89.3416 7.82834ZM82.7756 16.4616C83.4162 17.1045 84.2169 17.4259 85.1778 17.4259C86.1539 17.4259 86.9623 17.1045 87.6029 16.4616C88.2434 15.8187 88.5637 15.0074 88.5637 14.0277C88.5637 13.0481 88.2434 12.2368 87.6029 11.5939C86.9623 10.951 86.1615 10.6296 85.2007 10.6296C84.5601 10.6296 83.9805 10.7826 83.4619 11.0888C82.9586 11.3796 82.562 11.7852 82.2723 12.3057C81.9825 12.8108 81.8376 13.3848 81.8376 14.0277C81.8376 15.0074 82.1502 15.8187 82.7756 16.4616Z"/>
<path d="M100.79 20.5945C99.5703 20.5945 98.4569 20.3113 97.4503 19.745C96.4589 19.1633 95.6734 18.3673 95.0938 17.3571C94.5295 16.3468 94.2473 15.2294 94.2473 14.0048C94.2473 12.1526 94.8727 10.6066 96.1233 9.36671C97.374 8.12683 98.9373 7.50689 100.813 7.50689C102.415 7.50689 103.787 7.97376 104.931 8.9075C106.075 9.82593 106.8 11.0505 107.105 12.5812H103.787C103.513 11.9842 103.109 11.5174 102.575 11.1806C102.056 10.8285 101.462 10.6525 100.79 10.6525C99.8906 10.6525 99.1356 10.974 98.5255 11.6169C97.9307 12.2598 97.6333 13.0634 97.6333 14.0277C97.6333 14.9921 97.9383 15.8034 98.5484 16.4616C99.1585 17.1198 99.9058 17.4489 100.79 17.4489C101.462 17.4489 102.056 17.2729 102.575 16.9208C103.094 16.5534 103.498 16.033 103.787 15.3595H107.151C106.846 16.9361 106.113 18.2066 104.954 19.171C103.795 20.12 102.407 20.5945 100.79 20.5945Z"/>
<path d="M115.32 17.2652H116.83V20.2501H114.473C113.573 20.2501 112.788 20.0741 112.117 19.722C111.461 19.3699 110.958 18.8648 110.607 18.2066C110.256 17.5331 110.081 16.7371 110.081 15.8187V10.5377H107.839V9.82593L112.734 4.61383H113.352V7.8513H116.761V10.5377H113.421V15.3824C113.421 15.9794 113.581 16.4463 113.901 16.783C114.237 17.1045 114.71 17.2652 115.32 17.2652Z"/>
<path d="M119.11 6.19813V3.07546H122.45V6.19813H119.11ZM119.11 20.2501V7.8513H122.45V20.2501H119.11Z"/>
<path d="M133.755 7.8513H137.233L132.314 20.2501H129.225L124.215 7.8513H127.761L130.804 16.1631L133.755 7.8513Z"/>
<path d="M150.558 14.0048C150.558 14.3262 150.535 14.6553 150.49 14.9921H141.155C141.293 15.834 141.62 16.4845 142.139 16.9438C142.673 17.3877 143.352 17.6096 144.175 17.6096C144.739 17.6096 145.25 17.4872 145.708 17.2423C146.166 16.982 146.524 16.63 146.783 16.1861H150.306C149.849 17.5331 149.071 18.6046 147.973 19.4006C146.875 20.1965 145.609 20.5945 144.175 20.5945C142.345 20.5945 140.82 19.9669 139.6 18.7117C138.379 17.4566 137.769 15.9029 137.769 14.0507C137.769 13.316 137.868 12.6118 138.067 11.9383C138.28 11.2648 138.578 10.6602 138.959 10.1244C139.355 9.58867 139.813 9.12945 140.332 8.74677C140.85 8.34879 141.437 8.04264 142.093 7.82834C142.749 7.61404 143.443 7.50689 144.175 7.50689C145.411 7.50689 146.516 7.79773 147.492 8.3794C148.484 8.96107 149.239 9.74939 149.757 10.7444C150.291 11.7393 150.558 12.8261 150.558 14.0048ZM144.175 10.354C143.428 10.354 142.795 10.5607 142.276 10.974C141.773 11.3873 141.43 11.9613 141.247 12.696H147.218C147.065 12.1909 146.844 11.7699 146.554 11.4332C146.265 11.0811 145.914 10.8132 145.502 10.6296C145.106 10.4459 144.663 10.354 144.175 10.354Z"/>
<path fill-rule="evenodd" clip-rule="evenodd" d="M15.6997 8.45083C18.0249 8.45083 19.9099 6.55905 19.9099 4.22542C19.9099 1.89178 18.0249 0 15.6997 0C13.3744 0 11.4895 1.89178 11.4895 4.22542C11.4895 6.55905 13.3744 8.45083 15.6997 8.45083ZM15.6997 6.05909C16.7087 6.05909 17.5267 5.23813 17.5267 4.22542C17.5267 3.21271 16.7087 2.39175 15.6997 2.39175C14.6906 2.39175 13.8726 3.21271 13.8726 4.22542C13.8726 5.23813 14.6906 6.05909 15.6997 6.05909Z"/>
<path d="M11.7984 17.0112C11.5439 17.2311 11.235 17.5055 10.883 17.8237C9.92671 18.6885 8.69895 19.8342 7.48176 20.9828C6.26625 22.1297 5.06814 23.2729 4.17344 24.1298C3.72622 24.5581 3.3551 24.9146 3.09589 25.164C2.96628 25.2886 2.86467 25.3865 2.79552 25.4531L2.69035 25.5545L2.69005 25.5548C2.69005 25.5548 2.68997 25.5549 1.72673 24.5495L2.69005 25.5548C2.05758 26.1652 1.05174 26.1455 0.443561 25.5107C-0.164622 24.876 -0.14493 23.8666 0.487544 23.2562L1.49028 24.3028C0.487547 23.2562 0.487678 23.2561 0.487678 23.2561L0.594845 23.1528C0.664613 23.0855 0.766893 22.987 0.897205 22.8617C1.15782 22.611 1.53061 22.2529 1.97973 21.8227C2.87771 20.9627 4.08197 19.8136 5.30523 18.6594C6.52681 17.5067 7.77421 16.3424 8.75615 15.4545C9.24534 15.0122 9.68042 14.6278 10.0182 14.3449C10.1851 14.2051 10.3454 14.0757 10.4853 13.9725C10.554 13.9218 10.6374 13.8629 10.7263 13.8083L10.7311 13.8053C10.7839 13.7728 10.9887 13.6466 11.2582 13.5806C11.6285 13.4898 11.9369 13.5507 12.0568 13.5777C12.209 13.612 12.3379 13.6606 12.4271 13.6977C12.6074 13.7729 12.7845 13.8695 12.9357 13.9582C13.2466 14.1407 13.6175 14.3908 14.0065 14.668C14.7929 15.2286 15.7664 15.9816 16.7075 16.7412C17.6499 17.5019 18.5815 18.2868 19.2851 18.9162C19.6337 19.2281 19.9451 19.5186 20.178 19.7568C20.2909 19.8722 20.4129 20.0032 20.5165 20.1345C20.5664 20.1976 20.64 20.2958 20.709 20.4163L20.7122 20.4219C20.7518 20.4905 20.9405 20.8175 20.9405 21.266C20.9405 22.0181 20.456 22.4417 20.3149 22.5544C20.1307 22.7014 19.9508 22.7822 19.8624 22.8192C19.6688 22.9003 19.4661 22.9523 19.3176 22.9863C18.9977 23.0596 18.5868 23.1247 18.1521 23.1831C17.2677 23.3019 16.1093 23.416 14.9753 23.5146C13.8357 23.6136 12.6984 23.699 11.8475 23.7596C11.4216 23.7899 11.0666 23.814 10.8178 23.8306C10.6933 23.8389 10.5954 23.8453 10.5284 23.8496L10.4247 23.8563C10.4247 23.8563 10.4245 23.8563 10.3246 22.2649L10.4245 23.8563C9.54884 23.9117 8.79421 23.2441 8.73903 22.3652C8.68385 21.4863 9.34903 20.729 10.2247 20.6736L10.2856 21.6438C10.2247 20.6736 10.2247 20.6736 10.2247 20.6736L10.225 20.6736L10.3236 20.6672C10.3889 20.663 10.4849 20.6567 10.6073 20.6486C10.8521 20.6323 11.2024 20.6085 11.6228 20.5786C12.4644 20.5187 13.5839 20.4346 14.7011 20.3375C15.1183 20.3012 15.5321 20.2634 15.9289 20.2245C15.5432 19.9005 15.1323 19.5622 14.7161 19.2262C13.8008 18.4874 12.8815 17.7776 12.1665 17.2679C12.0327 17.1726 11.9098 17.0869 11.7984 17.0112Z"/>
<path d="M7.14793 12.0435C7.61282 11.5149 8.10162 11.3459 8.77126 11.3687C9.55238 11.3952 10.5006 11.687 11.7269 12.1506C11.9662 12.2411 12.2171 12.3385 12.4768 12.4394L12.4772 12.4396C13.4527 12.8186 14.5528 13.246 15.6348 13.5336C17.0328 13.9052 18.6131 14.1097 20.2111 13.6672C21.126 13.4138 21.8665 12.9142 22.343 12.5309C22.5897 12.3325 22.7876 12.1473 22.9267 12.0086C22.9966 11.9389 23.0528 11.8798 23.0941 11.8353C23.1147 11.8129 23.1317 11.7942 23.1449 11.7794C23.1515 11.7721 23.1571 11.7657 23.1618 11.7604L23.168 11.7532L23.1706 11.7502L23.1718 11.7488L23.1724 11.7482C23.1726 11.7479 23.1729 11.7476 22.0385 10.7605L23.1729 11.7476C23.7477 11.0823 23.6762 10.0752 23.0133 9.49835C22.3526 8.92344 21.3538 8.99267 20.7781 9.65167C20.777 9.65286 20.7749 9.65524 20.7717 9.65873C20.77 9.66055 20.768 9.66268 20.7658 9.6651C20.7511 9.68101 20.7246 9.70907 20.6874 9.74607C20.6124 9.82087 20.4987 9.92759 20.3557 10.0426C20.0527 10.2863 19.7012 10.5002 19.366 10.5931C18.5353 10.8231 17.5842 10.7528 16.4483 10.4509C15.5531 10.2129 14.6735 9.87179 13.7232 9.50322C13.4383 9.39269 13.1469 9.2797 12.8469 9.16628C11.6342 8.70785 10.2412 8.22784 8.87889 8.1815C7.40508 8.13137 5.94824 8.5884 4.76551 9.9334C3.97739 10.8297 3.55381 11.7474 3.32707 12.4513C3.21368 12.8033 3.14839 13.1051 3.11076 13.3298C3.09191 13.4424 3.07987 13.5365 3.0722 13.6088C3.06836 13.6449 3.06561 13.6757 3.06365 13.7008C3.06266 13.7133 3.06187 13.7244 3.06124 13.7341L3.06041 13.7474L3.06008 13.7532L3.05993 13.7559L3.05986 13.7572C3.05983 13.7579 3.05979 13.7585 4.64634 13.8426L3.05979 13.7585C3.01348 14.6379 3.68626 15.3884 4.56248 15.4349C5.43106 15.481 6.17351 14.8179 6.23151 13.9498L6.23186 13.9464C6.23319 13.9338 6.23676 13.9036 6.24435 13.8582C6.25961 13.7671 6.29055 13.6184 6.3505 13.4323C6.47047 13.0599 6.70208 12.5506 7.14793 12.0435Z"/>
</svg>
