<svg width="44" height="44" viewBox="0 0 44 44" fill="#272727" xmlns="http://www.w3.org/2000/svg">
<path d="M12 13C11.4477 13 11 13.4477 11 14C11 14.5523 11.4477 15 12 15V13ZM32 15C32.5523 15 33 14.5523 33 14C33 13.4477 32.5523 13 32 13V15ZM12 15H32V13H12V15Z"/>
<path d="M12 21C11.4477 21 11 21.4477 11 22C11 22.5523 11.4477 23 12 23V21ZM32 23C32.5523 23 33 22.5523 33 22C33 21.4477 32.5523 21 32 21V23ZM12 23H32V21H12V23Z"/>
<path d="M12 29C11.4477 29 11 29.4477 11 30C11 30.5523 11.4477 31 12 31V29ZM32 31C32.5523 31 33 30.5523 33 30C33 29.4477 32.5523 29 32 29V31ZM12 31H32V29H12V31Z"/>
</svg>
