<svg width="19" height="18" viewBox="0 0 19 18" fill="none" xmlns="http://www.w3.org/2000/svg">
<path d="M3.5 4.5H15.5L14.315 15.165C14.2744 15.532 14.0998 15.8712 13.8247 16.1175C13.5496 16.3638 13.1933 16.5 12.824 16.5H6.176C5.80673 16.5 5.45042 16.3638 5.17531 16.1175C4.9002 15.8712 4.72562 15.532 4.685 15.165L3.5 4.5Z" fill="white" stroke="white" stroke-width="2" stroke-linecap="round" stroke-linejoin="round"/>
<path d="M6.00875 2.36025C6.13006 2.10298 6.32203 1.8855 6.56225 1.73318C6.80248 1.58087 7.08106 1.5 7.3655 1.5H11.6345C11.9191 1.49985 12.1978 1.58066 12.4382 1.73298C12.6785 1.88531 12.8706 2.10286 12.992 2.36025L14 4.5H5L6.00875 2.36025Z" stroke="white" stroke-width="2" stroke-linecap="round" stroke-linejoin="round"/>
<path d="M2 4.5H17" stroke="white" stroke-width="2" stroke-linecap="round" stroke-linejoin="round"/>
<path d="M8 8.25V12" stroke="#FF5151" stroke-width="2" stroke-linecap="round" stroke-linejoin="round"/>
<path d="M11 8.25V12" stroke="#FF5151" stroke-width="2" stroke-linecap="round" stroke-linejoin="round"/>
</svg>
